<?xml version="1.0" standalone="no"?>
<!DOCTYPE svg PUBLIC "-//W3C//DTD SVG 20010904//EN"
 "http://www.w3.org/TR/2001/REC-SVG-20010904/DTD/svg10.dtd">
<svg version="1.0" xmlns="http://www.w3.org/2000/svg"
 width="640.000000pt" height="1280.000000pt" viewBox="0 0 640.000000 1280.000000"
 preserveAspectRatio="xMidYMid meet">

<g transform="translate(0.000000,1280.000000) scale(0.100000,-0.100000)"
fill="#000000" stroke="none">
<path d="M0 11743 c1 -931 3 -1053 15 -1018 8 22 12 48 9 58 -3 11 0 17 10 17
9 0 16 -6 16 -13 0 -8 8 -22 19 -31 17 -16 19 -15 24 14 4 16 13 30 20 30 10
0 13 -8 10 -24 -6 -27 13 -44 30 -27 9 9 8 16 -1 31 -7 12 -8 20 -2 20 16 0
12 30 -5 36 -8 4 -22 1 -30 -6 -12 -10 -16 -9 -21 5 -5 12 -9 13 -14 4 -11
-17 -41 -3 -34 15 3 8 19 18 35 21 19 4 29 13 29 24 0 17 29 51 43 51 4 0 7
-7 7 -15 0 -11 11 -15 39 -15 26 0 44 -6 53 -17 12 -16 51 -43 61 -43 2 0 2
23 -1 50 -3 33 -1 50 7 50 6 0 11 7 11 15 0 11 11 15 36 15 21 0 33 4 29 10
-3 6 -17 7 -30 4 -26 -7 -42 11 -26 30 14 16 4 26 -24 26 -29 0 -47 21 -35 40
6 8 10 34 10 58 0 26 5 42 12 42 9 0 9 3 1 11 -12 12 -7 39 7 39 5 0 10 -8 13
-17 3 -14 8 -11 23 14 10 18 25 33 33 33 10 0 11 3 2 14 -9 10 -8 15 4 20 8 3
15 15 15 26 0 12 7 20 16 20 13 0 15 -7 9 -37 -4 -21 -12 -41 -18 -45 -8 -5
-6 -8 6 -8 10 0 20 8 23 18 3 9 12 29 20 44 14 27 14 27 -21 34 -26 4 -35 11
-35 25 0 11 7 22 15 25 10 4 13 13 10 24 -4 13 1 19 20 24 14 4 25 11 25 17 0
8 5 8 15 -1 8 -6 23 -9 35 -5 15 5 22 1 29 -17 10 -23 10 -23 10 5 1 28 5 30
76 31 19 1 30 6 30 16 1 8 7 14 14 12 7 -1 19 5 27 15 13 17 13 17 14 -4 0
-16 6 -23 19 -23 14 0 18 6 15 25 -3 33 -40 63 -86 71 -25 4 -35 10 -31 20 3
8 -1 14 -8 14 -8 0 3 12 24 26 31 20 41 23 53 14 11 -10 14 -9 14 3 0 8 6 17
14 20 8 3 20 18 28 34 10 20 21 28 40 28 33 0 47 12 23 21 -10 4 -21 1 -26 -7
-7 -11 -9 -9 -9 6 0 18 -2 18 -20 -5 -20 -25 -20 -25 0 23 l20 48 -36 49 c-36
50 -66 66 -131 69 -24 1 -33 -4 -38 -19 -4 -12 -18 -25 -32 -31 -31 -12 -73
-12 -73 0 0 5 9 7 19 4 20 -5 71 23 71 38 0 5 -18 9 -40 9 -29 0 -42 5 -50 19
-9 18 -6 20 32 23 48 3 61 22 23 32 -18 5 -35 0 -56 -15 -25 -17 -29 -26 -24
-49 5 -24 3 -28 -22 -34 -15 -4 -37 -10 -47 -13 -14 -4 -18 -1 -13 10 3 8 2
28 -3 44 l-8 28 -3 -30 c-1 -16 -2 -41 -3 -55 -1 -24 -5 -25 -63 -28 l-63 -3
0 55 c0 70 13 106 40 106 22 0 28 16 8 22 -11 4 1 18 47 57 36 29 120 54 185
54 91 1 157 -32 218 -107 15 -18 61 -14 73 6 7 10 11 10 21 0 9 -9 9 -12 -5
-12 -9 0 -19 -11 -23 -25 -6 -24 -7 -24 -20 -8 -17 23 -17 9 1 -51 8 -27 15
-62 15 -77 0 -25 2 -27 28 -20 15 4 54 6 87 6 33 0 64 4 68 10 5 5 6 -4 3 -21
-4 -25 0 -36 20 -53 13 -11 24 -17 24 -12 0 5 -7 14 -15 21 -33 27 -4 114 41
123 35 7 74 -16 74 -43 0 -22 -29 -27 -46 -10 -8 8 -15 6 -24 -4 -17 -22 -5
-50 18 -41 33 14 46 10 53 -15 l7 -25 1 26 c1 31 18 49 47 49 13 0 26 5 29 10
4 7 -8 8 -34 4 -34 -5 -41 -4 -41 9 0 19 25 34 68 42 36 6 62 -22 62 -67 0
-20 5 -28 17 -28 13 0 14 3 5 12 -20 20 -13 55 16 77 19 15 21 19 7 14 -11 -3
-25 -10 -32 -15 -8 -6 -15 -3 -22 10 -9 17 -16 19 -55 10 -28 -6 -52 -6 -62 0
-9 5 -36 7 -60 4 -37 -4 -43 -2 -38 11 7 18 -26 31 -56 22 -21 -7 -28 -35 -8
-35 9 0 9 -3 0 -12 -17 -17 -15 -31 4 -24 10 4 14 1 11 -6 -2 -7 -12 -12 -22
-10 -10 2 -21 -2 -26 -9 -5 -9 -15 -4 -36 18 -28 30 -31 51 -9 66 8 5 7 10 -3
16 -10 6 -2 11 28 16 54 9 53 25 -1 26 -30 1 -36 3 -22 7 18 6 20 11 13 30 -7
17 -14 22 -28 17 -25 -8 -35 9 -16 25 11 9 14 26 11 59 -2 25 -1 34 1 18 2
-15 9 -25 14 -22 13 9 11 49 -3 63 -9 9 -8 12 8 12 25 0 59 24 59 42 0 10 -80
14 -425 18 -369 4 -425 7 -425 20 0 13 58 16 443 20 243 3 442 8 442 13 0 4 0
11 0 16 0 15 50 19 65 5 14 -14 35 -19 35 -8 0 3 -12 21 -26 40 -22 28 -23 34
-10 34 9 0 19 -7 22 -15 4 -8 13 -15 21 -15 11 0 13 -7 10 -23 -9 -32 3 -46
31 -36 27 10 31 44 4 37 -14 -4 -22 5 -34 38 l-15 44 783 0 784 0 -6 -32 c-3
-18 -10 -48 -14 -66 -11 -42 -6 -44 101 -40 93 3 85 -4 109 96 l11 42 144 0
144 0 4 -32 4 -33 1 33 2 32 210 0 c155 0 212 -3 220 -12 6 -7 23 -38 39 -68
l29 -55 81 -3 c53 -2 81 1 81 8 0 6 -14 37 -30 70 l-30 60 1000 0 c882 0 1000
-2 1000 -15 0 -8 -7 -15 -15 -15 -18 0 -19 -9 -5 -46 7 -19 7 -30 -1 -40 -10
-12 6 -14 97 -14 174 0 454 -13 454 -20 0 -4 -93 -10 -206 -14 -114 -4 -212
-10 -219 -12 -17 -7 40 -124 60 -124 17 0 19 -14 5 -40 -11 -20 12 -90 30 -90
6 0 10 -18 10 -39 0 -22 4 -41 10 -43 6 -2 4 -22 -5 -53 -15 -48 -15 -50 7
-66 18 -14 20 -20 10 -32 -10 -12 -8 -20 13 -45 19 -22 25 -41 25 -75 0 -35 4
-47 18 -50 14 -4 14 -6 -5 -12 -26 -8 -30 -40 -7 -53 13 -7 12 -13 -10 -40
-16 -18 -22 -33 -16 -37 5 -3 10 -16 10 -29 0 -33 23 -76 41 -76 12 0 18 -14
23 -52 7 -47 5 -54 -16 -70 -18 -14 -20 -20 -9 -27 8 -5 11 -16 6 -30 -5 -16
-1 -27 14 -40 21 -18 29 -37 11 -26 -8 5 -40 -43 -40 -60 0 -9 36 -5 46 5 7 7
16 -1 27 -24 15 -33 15 -36 -4 -59 -10 -14 -19 -30 -19 -36 0 -6 -6 -11 -13
-11 -16 0 -47 -32 -47 -48 0 -7 9 -12 20 -12 21 0 29 -33 10 -45 -6 -3 -10
-30 -10 -59 0 -28 -4 -56 -9 -62 -14 -14 -25 -94 -13 -94 7 0 61 75 77 107 0
1 21 -8 47 -20 38 -18 43 -24 32 -35 -18 -17 -18 -77 1 -148 15 -60 13 -76 -7
-56 -16 16 -31 15 -25 -1 3 -8 -3 -32 -13 -55 -16 -35 -16 -42 -4 -53 8 -6 14
-22 14 -35 0 -20 5 -24 29 -24 24 0 30 -5 34 -30 4 -20 11 -28 20 -24 8 3 17
-2 20 -10 8 -19 -1 -46 -15 -46 -6 0 -3 -11 5 -24 9 -13 13 -27 9 -30 -10 -11
-12 -76 -1 -76 5 0 9 -20 9 -45 0 -53 -14 -58 -52 -17 -25 26 -60 86 -55 93 2
2 -7 14 -20 26 l-23 22 0 -24 c0 -14 4 -33 9 -43 42 -84 59 -111 83 -135 25
-25 34 -55 29 -94 -1 -7 5 -13 14 -13 8 0 15 7 15 15 0 8 4 15 9 15 4 0 7 -12
7 -27 -1 -16 3 -34 9 -42 5 -8 14 -28 20 -44 13 -38 42 -58 54 -38 5 8 7 20 4
27 -2 6 1 15 6 19 6 3 9 11 6 16 -4 5 -3 9 2 9 4 0 9 57 11 126 3 112 1 128
-15 140 -17 13 -17 13 0 14 16 0 17 71 17 1340 l0 1340 -3200 0 -3200 0 0
-1057z m5843 690 c7 -38 2 -43 -44 -43 -32 0 -39 3 -39 20 0 13 11 25 33 34
44 20 44 20 50 -11z m-5295 -726 c3 -35 1 -38 -20 -35 -19 2 -24 10 -26 41 -3
35 -1 38 20 35 19 -2 24 -10 26 -41z m202 29 c0 -7 -9 -16 -21 -19 -20 -5 -20
-5 -3 14 20 23 24 23 24 5z m-417 -18 c11 -9 14 -18 8 -27 -8 -12 -12 -12 -25
-2 -17 14 -22 41 -8 41 5 0 16 -6 25 -12z m347 -148 c0 -11 -6 -20 -14 -20
-21 0 -31 21 -15 31 22 14 29 11 29 -11z m-249 -82 c-10 -28 -27 -34 -35 -13
-5 13 9 25 41 34 1 1 -1 -9 -6 -21z m5646 -40 c-3 -8 -6 -5 -6 6 -1 11 2 17 5
13 3 -3 4 -12 1 -19z m-5802 -78 c3 -5 -3 -10 -14 -10 -12 0 -21 5 -21 10 0 6
6 10 14 10 8 0 18 -4 21 -10z m62 -79 c-10 -12 -12 -12 -15 2 -2 10 -8 17 -13
17 -6 0 -7 4 -4 10 4 6 13 5 25 -2 15 -10 17 -15 7 -27z m-144 -1 c6 -24 -10
-37 -26 -21 -8 8 -8 11 1 11 6 0 9 7 6 15 -4 8 -2 15 4 15 5 0 12 -9 15 -20z
m5957 -369 c0 -17 -18 -21 -24 -6 -3 9 0 15 9 15 8 0 15 -4 15 -9z m-20 -106
c0 -8 -4 -15 -10 -15 -5 0 -10 7 -10 15 0 8 5 15 10 15 6 0 10 -7 10 -15z
m120 -329 c0 -3 -4 -8 -10 -11 -5 -3 -10 -1 -10 4 0 6 5 11 10 11 6 0 10 -2
10 -4z m112 -641 c0 -5 -5 -11 -11 -13 -6 -2 -11 4 -11 13 0 9 5 15 11 13 6
-2 11 -8 11 -13z"/>
<path d="M1265 12470 c3 -5 8 -10 11 -10 2 0 4 5 4 10 0 6 -5 10 -11 10 -5 0
-7 -4 -4 -10z"/>
<path d="M3162 12415 c0 -16 2 -22 5 -12 2 9 2 23 0 30 -3 6 -5 -1 -5 -18z"/>
<path d="M2627 12343 c-3 -5 -10 -33 -16 -63 -8 -45 -50 -242 -63 -300 -2 -8
6 -16 17 -18 36 -7 45 -23 45 -78 0 -41 -4 -54 -15 -54 -11 0 -15 12 -15 49 0
28 -5 53 -12 57 -17 11 -38 -25 -38 -66 0 -20 -4 -40 -9 -46 -5 -5 -19 -54
-30 -109 -24 -116 -63 -295 -120 -555 -22 -102 -53 -248 -70 -325 -17 -77 -42
-188 -56 -247 -28 -120 -31 -208 -11 -284 27 -101 104 -183 180 -191 34 -4
261 27 486 67 194 34 1181 184 1525 231 163 23 179 28 200 69 22 42 30 148 16
205 -6 25 -85 193 -174 373 -185 373 -310 630 -496 1017 l-130 270 -80 3 c-59
2 -81 -1 -81 -9 0 -12 228 -468 580 -1164 266 -524 270 -532 270 -543 0 -5
-26 -13 -57 -16 -32 -4 -103 -13 -158 -21 -116 -17 -486 -63 -790 -100 -115
-14 -239 -30 -275 -35 -78 -13 -509 -73 -709 -100 -80 -11 -147 -17 -150 -14
-5 5 13 103 54 294 13 58 37 173 55 255 18 83 70 320 116 528 66 299 84 396
84 458 0 70 2 79 18 79 16 0 23 21 46 132 16 72 30 143 32 157 3 14 9 40 13
58 5 17 6 34 3 37 -8 9 -180 7 -185 -1z m43 -348 c0 -8 -7 -15 -15 -15 -8 0
-15 7 -15 15 0 8 7 15 15 15 8 0 15 -7 15 -15z m0 -100 c0 -51 -3 -65 -15 -65
-12 0 -15 14 -15 65 0 51 3 65 15 65 12 0 15 -14 15 -65z"/>
<path d="M5778 12333 c12 -2 32 -2 45 0 12 2 2 4 -23 4 -25 0 -35 -2 -22 -4z"/>
<path d="M946 12259 c-19 -19 -19 -19 27 -19 52 0 54 2 31 24 -20 21 -34 19
-58 -5z"/>
<path d="M1055 12240 c-8 -12 20 -24 35 -15 6 3 8 11 5 16 -8 12 -32 12 -40
-1z"/>
<path d="M3037 12183 c-10 -10 -8 -61 4 -103 10 -32 8 -43 -17 -96 -27 -59
-28 -59 -35 -29 -3 17 -7 52 -8 78 -1 50 -24 116 -44 129 -19 12 -72 9 -85 -4
-18 -18 -14 -92 8 -150 27 -71 25 -84 -12 -121 l-32 -32 -7 -145 c-4 -92 -13
-160 -23 -185 -22 -59 -20 -101 6 -119 34 -24 46 -20 45 17 -1 35 42 177 54
177 12 0 42 -148 34 -168 -4 -9 -15 -93 -25 -186 -10 -92 -21 -170 -23 -173
-3 -2 -26 0 -53 4 -44 8 -49 11 -54 38 -4 24 -11 31 -33 33 -19 2 -29 -2 -34
-15 -3 -10 -19 -30 -35 -45 -25 -24 -29 -34 -26 -70 l3 -43 39 2 c21 2 45 8
52 14 11 9 18 8 32 -3 9 -8 46 -31 82 -51 80 -44 91 -40 132 51 41 91 95 172
113 172 9 0 55 -20 104 -44 l88 -45 7 -52 c4 -28 20 -78 37 -110 16 -33 36
-89 45 -126 24 -105 46 -128 77 -83 8 12 21 18 29 15 26 -10 75 52 64 81 -7
18 -86 20 -86 2 0 -53 -72 176 -90 289 -10 57 -35 96 -130 196 -71 75 -86 105
-106 213 -9 49 -28 136 -41 194 -30 124 -30 145 -8 270 17 102 14 169 -10 207
-16 24 -27 28 -38 16z"/>
<path d="M485 12170 c-38 -15 -50 -45 -46 -115 1 -15 3 -17 10 -6 5 7 14 10
20 6 7 -4 18 -2 25 4 7 6 24 10 36 9 13 -2 25 3 28 11 4 11 -5 13 -47 7 -31
-4 -51 -3 -51 3 0 14 9 18 56 25 37 7 41 5 53 -20 18 -41 37 -17 22 29 -16 47
-59 67 -106 47z"/>
<path d="M905 12170 c-3 -5 1 -10 9 -10 9 0 16 5 16 10 0 6 -4 10 -9 10 -6 0
-13 -4 -16 -10z"/>
<path d="M3515 12047 c-16 -38 -13 -83 9 -124 11 -23 12 -32 1 -46 -20 -27
-42 -20 -55 18 -6 19 -20 40 -30 45 -39 21 -69 -51 -34 -81 8 -7 24 -30 35
-51 11 -21 30 -43 43 -48 28 -10 96 7 103 27 10 27 33 11 72 -49 54 -83 54
-98 -4 -98 -24 0 -67 -9 -95 -20 -37 -15 -74 -20 -137 -20 -84 0 -87 1 -117
33 -17 17 -39 44 -49 60 -44 69 -51 -8 -8 -99 16 -34 32 -75 36 -92 10 -47 28
-57 61 -35 22 14 52 19 139 21 60 1 128 3 150 4 74 4 94 -16 124 -117 39 -130
80 -234 111 -280 139 -205 150 -228 165 -347 4 -31 11 -48 20 -48 15 0 20 11
34 80 6 25 13 57 17 72 5 23 0 34 -32 64 -25 24 -51 69 -77 128 -21 50 -49
102 -63 116 -17 19 -29 52 -44 125 -23 114 -25 152 -9 157 19 6 16 159 -6 270
l-6 33 22 -25 c36 -42 71 -120 65 -145 -6 -25 11 -85 25 -85 15 0 29 37 29 77
-1 49 -46 159 -90 219 -19 26 -45 62 -56 81 -28 45 -91 112 -128 134 -19 12
-39 16 -58 12 -25 -5 -35 0 -64 31 -45 48 -80 49 -99 3z"/>
<path d="M1040 12045 c0 -8 7 -15 15 -15 8 0 15 7 15 15 0 8 -7 15 -15 15 -8
0 -15 -7 -15 -15z"/>
<path d="M1457 12014 c-4 -4 -7 -17 -6 -28 0 -21 1 -21 9 -1 5 12 9 14 9 6 1
-8 4 -12 7 -8 3 3 2 13 -3 22 -5 8 -12 12 -16 9z"/>
<path d="M1382 11960 c0 -14 2 -19 5 -12 2 6 2 18 0 25 -3 6 -5 1 -5 -13z"/>
<path d="M1510 11921 c0 -5 5 -13 10 -16 6 -3 10 -2 10 4 0 5 -4 13 -10 16 -5
3 -10 2 -10 -4z"/>
<path d="M2745 11918 c-2 -7 0 -29 4 -48 l9 -35 1 48 c1 45 -5 60 -14 35z"/>
<path d="M1355 11913 c11 -3 23 -10 27 -17 5 -7 8 -5 8 7 0 12 -7 17 -27 16
-22 -1 -23 -2 -8 -6z"/>
<path d="M793 11845 c-1 -31 1 -35 23 -35 15 0 24 6 24 15 0 8 -4 15 -9 15 -5
0 -8 8 -7 17 0 10 -6 19 -14 20 -11 3 -15 -6 -17 -32z"/>
<path d="M1180 11870 c0 -5 4 -10 9 -10 6 0 13 5 16 10 3 6 -1 10 -9 10 -9 0
-16 -4 -16 -10z"/>
<path d="M780 11740 c0 -5 5 -10 10 -10 6 0 10 5 10 10 0 6 -4 10 -10 10 -5 0
-10 -4 -10 -10z"/>
<path d="M673 11665 c-18 -20 -16 -24 7 -18 16 4 19 2 13 -13 -6 -16 -5 -17 8
-4 14 12 14 16 0 32 -8 10 -16 18 -16 18 0 -1 -6 -7 -12 -15z"/>
<path d="M488 11433 c7 -3 16 -2 19 1 4 3 -2 6 -13 5 -11 0 -14 -3 -6 -6z"/>
<path d="M320 11189 c0 -5 5 -7 10 -4 6 3 10 8 10 11 0 2 -4 4 -10 4 -5 0 -10
-5 -10 -11z"/>
<path d="M320 11143 c0 -21 3 -24 9 -14 5 8 7 20 4 28 -8 21 -13 15 -13 -14z"/>
<path d="M480 11061 c0 -12 5 -21 10 -21 6 0 10 6 10 14 0 8 -4 18 -10 21 -5
3 -10 -3 -10 -14z"/>
<path d="M3200 10743 c-18 -23 -21 -37 -17 -79 7 -69 30 -111 72 -131 31 -15
36 -15 60 1 48 32 59 109 25 176 -34 67 -101 82 -140 33z"/>
<path d="M160 10690 c0 -5 5 -10 10 -10 6 0 10 5 10 10 0 6 -4 10 -10 10 -5 0
-10 -4 -10 -10z"/>
<path d="M0 10591 c0 -64 2 -72 18 -69 18 4 24 35 10 54 -5 7 -11 26 -13 44
-7 59 -15 44 -15 -29z"/>
<path d="M40 10594 c0 -17 22 -14 28 4 2 7 -3 12 -12 12 -9 0 -16 -7 -16 -16z"/>
<path d="M73 10544 c-15 -16 -16 -24 -4 -24 8 0 24 30 19 35 -2 2 -9 -3 -15
-11z"/>
<path d="M6080 10503 c0 -14 39 -34 53 -26 18 10 4 31 -23 35 -21 3 -30 0 -30
-9z"/>
<path d="M6037 10486 c-9 -7 -17 -19 -17 -27 1 -11 3 -11 13 2 7 9 19 18 27
21 7 2 10 7 4 10 -5 4 -17 1 -27 -6z"/>
<path d="M0 10358 c0 -83 1 -86 24 -92 14 -3 28 -16 32 -29 7 -23 22 -37 40
-37 13 0 8 44 -9 78 -8 17 -8 25 2 35 10 9 16 7 32 -13 l20 -25 -7 25 c-3 14
-10 30 -15 36 -5 6 -7 19 -3 28 4 11 0 16 -14 16 -11 0 -22 -5 -24 -12 -8 -23
-30 4 -24 28 5 19 2 24 -12 24 -10 0 -23 5 -30 12 -9 9 -12 -7 -12 -74z"/>
<path d="M165 10299 c-4 -12 -2 -26 5 -33 9 -8 16 -5 31 13 25 31 24 41 -5 41
-16 0 -27 -7 -31 -21z"/>
<path d="M6087 10313 c-10 -10 -8 -43 2 -43 9 0 21 24 21 41 0 11 -14 12 -23
2z"/>
<path d="M6100 10250 c0 -5 5 -10 11 -10 5 0 7 5 4 10 -3 6 -8 10 -11 10 -2 0
-4 -4 -4 -10z"/>
<path d="M4610 10223 c-51 -9 -88 -24 -109 -47 -43 -46 -40 -95 40 -656 20
-136 57 -166 170 -134 l62 17 -7 81 c-8 96 -85 715 -91 734 -4 12 -17 13 -65
5z m0 -118 c0 -2 9 -66 20 -142 30 -216 62 -475 58 -479 -3 -2 -15 -5 -28 -6
-35 -4 -45 26 -65 197 -9 83 -21 182 -26 220 -21 171 -22 184 -9 200 11 13 50
22 50 10z"/>
<path d="M136 10177 c-17 -12 -16 -14 8 -30 32 -21 36 -21 36 2 0 29 -23 43
-44 28z"/>
<path d="M4211 10152 l-83 -15 7 -51 c3 -28 8 -52 10 -54 2 -2 31 2 64 9 34 6
64 9 68 5 7 -7 42 -248 37 -257 -2 -4 -21 -10 -41 -13 -72 -13 -73 -14 -73
-59 0 -64 7 -70 68 -55 32 7 56 8 61 2 10 -11 43 -255 35 -263 -3 -3 -31 -13
-62 -21 -49 -13 -57 -19 -60 -41 -2 -14 2 -37 7 -51 l10 -27 78 24 c43 14 86
25 95 25 9 0 19 3 21 8 6 10 -10 140 -88 717 -8 61 -15 116 -15 123 0 15 -31
14 -139 -6z"/>
<path d="M535 10140 c-3 -6 4 -10 17 -10 24 0 126 -47 143 -66 11 -13 75 -24
75 -13 0 12 -23 25 -95 54 -38 16 -74 32 -79 37 -14 11 -54 10 -61 -2z"/>
<path d="M2 10075 c0 -16 2 -22 5 -12 2 9 2 23 0 30 -3 6 -5 -1 -5 -18z"/>
<path d="M280 10090 c0 -5 5 -10 10 -10 6 0 10 5 10 10 0 6 -4 10 -10 10 -5 0
-10 -4 -10 -10z"/>
<path d="M3703 10065 c-54 -23 -66 -62 -61 -193 3 -62 9 -117 14 -122 5 -5 25
-5 44 -1 39 8 37 0 24 118 -7 67 3 93 36 93 27 0 45 -56 45 -140 0 -67 -4 -84
-42 -165 -60 -127 -69 -175 -55 -277 17 -121 30 -158 67 -195 23 -23 42 -33
64 -33 35 0 80 20 100 44 21 25 30 133 18 225 l-10 83 -35 -6 c-19 -3 -36 -7
-39 -9 -2 -3 1 -42 7 -89 13 -100 4 -141 -32 -136 -34 5 -50 50 -52 142 -1 77
1 86 48 186 56 120 66 185 47 295 -16 88 -47 153 -85 176 -36 22 -59 23 -103
4z"/>
<path d="M3353 10008 c-25 -5 -50 -19 -62 -34 -29 -37 -43 -118 -32 -189 10
-67 87 -510 97 -565 11 -55 39 -113 67 -139 23 -20 33 -23 82 -19 46 4 62 10
87 36 51 50 50 127 -7 467 -25 154 -51 298 -57 320 -21 73 -79 138 -121 134
-7 -1 -31 -5 -54 -11z m67 -128 c11 -11 20 -24 20 -29 0 -4 23 -142 50 -305
28 -163 50 -309 50 -325 0 -45 -43 -69 -69 -37 -6 7 -36 161 -66 341 -51 303
-54 330 -40 351 19 29 29 30 55 4z"/>
<path d="M785 9980 c-3 -5 -1 -10 4 -10 6 0 11 5 11 10 0 6 -2 10 -4 10 -3 0
-8 -4 -11 -10z"/>
<path d="M0 9965 c0 -11 5 -15 15 -12 8 4 17 2 20 -3 4 -6 -3 -10 -14 -10 -12
0 -21 -7 -21 -15 0 -25 47 -19 54 7 6 26 1 33 -31 43 -18 5 -23 2 -23 -10z"/>
<path d="M3023 9943 c-13 -2 -23 -11 -23 -19 0 -7 34 -199 75 -425 41 -227 74
-414 71 -416 -2 -2 -38 -13 -80 -25 -74 -20 -76 -21 -76 -52 0 -44 10 -76 24
-76 6 0 64 14 129 32 107 30 117 35 117 57 0 13 -16 112 -36 220 -55 305 -124
695 -124 704 0 7 -38 7 -77 0z"/>
<path d="M380 9900 c0 -5 5 -10 10 -10 6 0 10 5 10 10 0 6 -4 10 -10 10 -5 0
-10 -4 -10 -10z"/>
<path d="M2595 9864 c-5 -1 -36 -8 -67 -14 -58 -11 -58 -11 -58 -48 0 -20 7
-93 15 -162 8 -69 28 -251 45 -405 39 -355 47 -415 54 -422 2 -3 24 1 48 9 48
17 46 5 33 159 -8 95 -12 88 56 103 24 5 26 1 52 -77 15 -46 27 -90 27 -99 0
-29 24 -39 61 -27 19 7 38 15 43 19 4 5 -3 44 -17 87 -14 43 -65 211 -112 373
-124 425 -126 432 -137 467 -9 31 -23 43 -43 37z m5 -231 c10 -37 39 -142 64
-233 25 -91 46 -172 46 -181 0 -18 -58 -35 -71 -22 -4 5 -19 112 -33 238 -15
127 -29 241 -32 255 -11 52 9 9 26 -57z"/>
<path d="M6340 9721 c0 -25 6 -27 13 -6 4 8 2 17 -3 20 -6 4 -10 -3 -10 -14z"/>
<path d="M58 9523 c7 -3 16 -2 19 1 4 3 -2 6 -13 5 -11 0 -14 -3 -6 -6z"/>
<path d="M238 9433 c7 -3 16 -2 19 1 4 3 -2 6 -13 5 -11 0 -14 -3 -6 -6z"/>
<path d="M545 8630 c-3 -5 -1 -10 4 -10 6 0 11 5 11 10 0 6 -2 10 -4 10 -3 0
-8 -4 -11 -10z"/>
<path d="M370 8591 c0 -28 15 -49 26 -38 3 2 6 17 7 33 1 20 -3 29 -15 32 -14
3 -18 -3 -18 -27z"/>
<path d="M460 8541 c0 -6 5 -13 10 -16 6 -3 10 1 10 9 0 9 -4 16 -10 16 -5 0
-10 -4 -10 -9z"/>
<path d="M189 8418 c-8 -28 -7 -49 3 -46 14 5 22 48 8 48 -6 0 -10 -1 -11 -2z"/>
<path d="M525 8360 c-3 -5 -2 -10 4 -10 5 0 13 5 16 10 3 6 2 10 -4 10 -5 0
-13 -4 -16 -10z"/>
<path d="M2493 8162 c-18 -11 -28 -109 -13 -127 18 -21 76 -19 99 4 21 21 38
108 23 123 -16 16 -31 0 -38 -41 -8 -49 -18 -65 -37 -58 -12 5 -13 13 -6 47
12 53 2 71 -28 52z"/>
<path d="M2873 8162 c-10 -7 -33 -96 -33 -127 0 -17 94 -19 108 -2 31 41 17
97 -24 97 -19 0 -25 4 -21 14 6 16 -14 28 -30 18z m47 -81 c0 -23 -16 -36 -25
-21 -9 14 1 40 15 40 5 0 10 -9 10 -19z"/>
<path d="M3846 8162 c-2 -4 -11 -36 -19 -71 -12 -52 -12 -63 -1 -68 7 -2 17
-2 22 1 12 7 35 123 27 136 -7 12 -22 13 -29 2z"/>
<path d="M3492 8129 c-17 -6 -22 -14 -17 -28 3 -12 0 -21 -10 -25 -10 -3 -15
-15 -13 -28 3 -20 9 -23 51 -23 26 0 47 3 48 7 0 4 4 21 9 37 13 47 -22 77
-68 60z m25 -35 c-3 -3 -12 -4 -19 -1 -8 3 -5 6 6 6 11 1 17 -2 13 -5z m0 -40
c-3 -3 -12 -4 -19 -1 -8 3 -5 6 6 6 11 1 17 -2 13 -5z"/>
<path d="M2627 8123 c-3 -5 -8 -30 -12 -56 -7 -44 -6 -49 10 -45 10 1 23 17
29 35 17 49 28 52 24 8 -2 -31 1 -40 14 -43 12 -2 19 5 23 25 11 46 14 53 25
53 6 0 8 -15 4 -40 -6 -36 -4 -40 14 -40 16 0 23 8 27 34 13 66 8 71 -77 74
-42 1 -79 -1 -81 -5z"/>
<path d="M2996 8114 c-19 -18 -21 -65 -4 -82 13 -13 57 -16 75 -4 19 12 31 55
22 80 -6 17 -16 22 -43 22 -19 0 -42 -7 -50 -16z m52 -36 c-4 -27 -28 -36 -28
-10 0 20 8 32 22 32 5 0 8 -10 6 -22z"/>
<path d="M3111 8085 c-15 -59 -14 -65 8 -65 14 0 21 10 28 38 11 46 29 44 24
-3 -2 -29 1 -35 17 -35 15 0 21 9 26 40 3 22 11 40 17 40 8 0 9 -13 5 -40 -6
-35 -4 -40 14 -40 13 0 22 9 26 28 3 15 7 33 10 40 9 32 -7 39 -85 40 l-79 1
-11 -44z"/>
<path d="M3350 8111 c-14 -28 -12 -67 4 -80 20 -17 67 -10 80 11 14 23 0 35
-24 20 -27 -17 -32 -15 -28 11 2 18 8 21 36 19 17 -2 32 0 32 5 0 35 -82 46
-100 14z"/>
<path d="M3586 8121 c-4 -5 -9 -30 -12 -55 -6 -41 -5 -46 13 -46 14 0 22 10
29 37 13 54 38 58 29 4 -6 -37 -5 -41 14 -41 15 0 22 9 29 43 5 23 7 48 4 55
-5 14 -98 17 -106 3z"/>
<path d="M3721 8116 c-9 -10 -9 -16 -1 -21 8 -5 6 -11 -5 -19 -10 -7 -15 -21
-13 -32 3 -15 12 -19 48 -19 43 0 45 1 54 36 5 20 6 44 3 53 -8 20 -70 22 -86
2z m46 -22 c-3 -3 -12 -4 -19 -1 -8 3 -5 6 6 6 11 1 17 -2 13 -5z"/>
<path d="M3517 7932 c-2 -4 -12 -40 -22 -79 -12 -50 -22 -73 -32 -73 -11 0
-13 7 -8 33 4 17 13 39 20 47 7 8 10 20 8 27 -2 6 1 14 6 18 19 11 12 25 -12
25 -28 0 -69 -44 -61 -65 4 -8 3 -31 0 -50 -6 -29 -11 -35 -33 -35 l-26 0 21
23 c29 31 28 63 -3 83 -52 34 -114 -31 -80 -82 15 -23 14 -24 -10 -24 -20 0
-25 4 -22 18 16 58 16 70 -2 86 -13 12 -27 15 -45 10 -30 -7 -43 -23 -28 -33
7 -4 4 -11 -9 -19 -19 -12 -20 -11 -13 39 6 46 5 51 -12 47 -14 -2 -22 -19
-33 -76 -11 -59 -17 -72 -32 -72 -23 0 -24 7 -4 26 22 22 19 71 -5 84 -58 31
-118 -43 -73 -92 15 -17 14 -18 -15 -18 -34 0 -40 8 -19 29 10 10 6 17 -18 37
l-30 25 28 -7 c34 -8 37 12 3 27 -17 8 -29 8 -45 0 -27 -15 -27 -48 -1 -56 29
-9 25 -23 -5 -17 -27 5 -32 -7 -13 -26 9 -9 5 -12 -22 -12 -32 0 -33 1 -16 19
17 19 17 20 -21 24 l-38 4 38 1 c32 2 37 5 37 27 0 54 -81 56 -99 2 -9 -24 -8
-35 4 -54 15 -22 14 -23 -10 -23 -29 0 -29 5 -11 83 15 65 5 85 -25 48 -10
-12 -23 -20 -29 -16 -6 4 -22 -1 -37 -10 -22 -15 -25 -22 -20 -61 2 -24 0 -44
-5 -44 -5 0 -6 -4 -3 -10 8 -13 1245 -14 1245 -1 0 5 -5 11 -10 13 -7 2 -6 26
3 71 15 67 9 89 -17 68 -6 -6 -18 -40 -25 -76 -7 -36 -17 -65 -22 -65 -8 0 -6
21 7 71 5 17 -19 49 -36 49 -5 0 -21 -4 -35 -10 -29 -11 -24 -35 6 -27 11 3
19 2 19 -3 0 -4 -14 -10 -31 -14 -29 -5 -31 -9 -25 -36 4 -22 2 -30 -9 -30
-18 0 -18 -1 -1 77 11 51 11 65 1 73 -16 13 -19 8 -35 -55 -12 -49 -14 -50
-49 -50 -20 0 -35 4 -33 8 1 4 2 12 2 18 0 7 11 8 30 4 24 -5 30 -3 30 9 0 9
-11 21 -25 28 -19 9 -29 8 -48 -5 -31 -20 -38 -49 -21 -81 12 -25 11 -26 -12
-26 -27 0 -27 1 -15 50 19 75 21 98 6 104 -8 3 -16 2 -18 -2z m-287 -72 c0 -5
-5 -10 -11 -10 -5 0 -7 5 -4 10 3 6 8 10 11 10 2 0 4 -4 4 -10z m-522 -17 c-5
-25 -28 -28 -28 -4 0 12 6 21 16 21 9 0 14 -7 12 -17z m352 -3 c0 -11 -7 -20
-15 -20 -15 0 -21 21 -8 33 12 13 23 7 23 -13z m298 3 c-5 -25 -28 -28 -28 -4
0 12 6 21 16 21 9 0 14 -7 12 -17z m-128 -17 c0 -11 -19 -15 -25 -6 -3 5 1 10
9 10 9 0 16 -2 16 -4z m540 0 c0 -3 -4 -8 -10 -11 -5 -3 -10 -1 -10 4 0 6 5
11 10 11 6 0 10 -2 10 -4z m-600 -26 c9 -16 8 -20 -5 -20 -8 0 -15 9 -15 20 0
11 2 20 5 20 2 0 9 -9 15 -20z m480 -5 c0 -8 -7 -15 -16 -15 -14 0 -14 3 -4
15 7 8 14 15 16 15 2 0 4 -7 4 -15z"/>
<path d="M2519 7919 c-49 -18 -68 -92 -34 -129 19 -21 75 -28 75 -10 0 6 -10
10 -23 10 -30 0 -47 18 -47 50 0 48 66 80 98 48 14 -14 16 -58 3 -58 -4 0 -6
11 -4 24 4 19 0 24 -20 28 -36 7 -57 -9 -57 -41 0 -26 4 -29 42 -35 46 -8 63
2 73 45 12 50 -49 89 -106 68z m32 -82 c-13 -13 -26 -3 -16 12 3 6 11 8 17 5
6 -4 6 -10 -1 -17z"/>
<path d="M4005 7820 c-3 -5 -1 -10 4 -10 6 0 11 5 11 10 0 6 -2 10 -4 10 -3 0
-8 -4 -11 -10z"/>
<path d="M3890 7470 c0 -5 5 -10 10 -10 6 0 10 5 10 10 0 6 -4 10 -10 10 -5 0
-10 -4 -10 -10z"/>
<path d="M3763 7446 c-23 -13 -52 -24 -65 -24 -46 -1 -134 -21 -165 -37 -24
-12 -37 -13 -52 -6 -34 18 -165 17 -192 -2 -13 -9 -27 -17 -31 -17 -16 0 30
38 58 48 25 9 26 11 7 11 -12 1 -33 -3 -47 -9 -16 -6 -27 -6 -31 0 -11 18 -94
11 -141 -11 -57 -27 -90 -71 -99 -132 -7 -42 -25 -67 -49 -67 -11 0 -6 59 6
87 26 59 112 144 150 147 3 1 10 4 14 9 15 15 -22 6 -53 -12 -33 -21 -51 -17
-32 6 13 14 2 17 -26 7 -13 -5 -14 -9 -3 -15 11 -7 10 -11 -2 -18 -9 -7 -17
-6 -21 1 -6 9 -11 8 -22 -1 -12 -9 -16 -9 -20 1 -3 9 -10 6 -22 -10 -9 -12
-21 -20 -26 -17 -5 4 -9 1 -9 -4 0 -6 -7 -11 -15 -11 -16 0 -77 -77 -124 -158
-31 -52 -38 -82 -24 -96 4 -4 9 -26 10 -49 2 -22 7 -45 13 -51 17 -17 11 -27
-20 -37 -16 -6 -28 -14 -25 -19 3 -4 -2 -13 -9 -19 -9 -8 -17 -8 -20 -2 -3 5
0 11 6 14 11 4 -12 3 -57 -2 -5 0 1 -8 13 -17 25 -17 30 -39 7 -30 -8 3 -15 1
-15 -4 0 -6 8 -10 18 -10 13 -1 11 -4 -8 -16 -24 -14 -24 -15 -3 -11 13 3 26
0 30 -6 4 -7 -11 -8 -48 -4 l-54 6 25 -20 25 -21 -31 6 c-21 3 -47 -3 -80 -19
-35 -18 -43 -24 -26 -25 33 0 27 -17 -13 -31 -34 -13 -50 -33 -40 -49 3 -5 13
-6 21 -3 11 4 12 8 4 13 -6 4 3 7 20 7 39 0 38 -16 -4 -47 -19 -14 -33 -27
-31 -29 5 -4 -87 -81 -97 -81 -4 0 -12 -9 -18 -19 -9 -17 -5 -17 35 6 66 36
59 18 -32 -79 -18 -19 -33 -38 -33 -42 0 -3 -22 -34 -50 -68 -27 -34 -50 -72
-50 -85 0 -34 -26 -42 -99 -31 -58 9 -66 8 -78 -8 -14 -19 -16 -82 -4 -154 5
-34 2 -58 -13 -98 -18 -49 -18 -54 -3 -69 14 -15 18 -12 38 35 13 29 26 52 30
52 7 0 30 -56 93 -235 l35 -99 -31 -51 c-75 -124 -112 -175 -124 -175 -7 0
-24 4 -39 10 -14 5 -24 6 -21 1 3 -4 -3 -16 -14 -26 -11 -10 -20 -22 -20 -27
0 -5 -18 -35 -39 -68 -22 -32 -42 -73 -46 -92 -9 -40 -30 -83 -53 -106 -28
-28 -92 -129 -114 -180 -11 -26 -31 -71 -44 -99 -35 -79 -97 -279 -125 -408
-33 -147 -67 -205 -40 -68 13 66 -13 60 -91 -20 -43 -45 -62 -148 -38 -211 12
-33 69 -64 82 -44 6 8 8 -2 4 -32 -4 -25 -11 -85 -16 -135 -6 -49 -13 -98 -16
-109 -10 -31 -13 -83 -17 -283 -1 -106 -6 -195 -9 -198 -3 -4 -14 -2 -25 4
-10 6 -95 24 -188 41 -164 29 -244 47 -217 49 19 2 13 24 -11 42 -16 12 -50
18 -114 20 -86 4 -91 5 -116 35 -14 17 -44 39 -66 49 -37 16 -47 17 -99 5 -31
-7 -70 -19 -85 -27 -21 -11 -36 -12 -60 -4 -40 13 -285 6 -349 -10 l-48 -11 0
-1769 0 -1769 3200 0 3200 0 0 2650 c0 1458 -2 2650 -5 2650 -3 0 -18 -11 -33
-24 -15 -13 -124 -104 -242 -202 -118 -98 -224 -186 -235 -196 -11 -9 -121
-100 -245 -203 -124 -103 -247 -206 -275 -230 -64 -56 -81 -45 -42 28 15 29
27 60 27 69 0 9 6 23 14 31 8 7 28 49 46 92 17 44 35 84 39 90 5 5 14 28 21
50 7 22 20 58 30 80 10 22 25 56 34 75 10 24 49 61 123 118 121 92 432 331
478 367 17 13 64 50 105 81 41 32 77 61 80 64 3 3 22 18 43 33 26 20 37 36 37
53 0 26 0 26 -24 7 -38 -29 -349 -271 -440 -343 -46 -36 -98 -76 -116 -90 -18
-14 -83 -64 -144 -111 -61 -48 -114 -84 -118 -80 -4 3 2 40 13 81 22 79 22 83
3 405 -5 87 -3 123 11 175 24 94 29 195 12 255 -19 63 -40 119 -49 125 -4 3
-6 12 -6 20 3 38 -3 52 -17 46 -19 -7 -19 11 -1 30 19 18 26 18 26 -1 0 -8 3
-15 8 -15 4 0 6 19 4 43 -2 31 -1 38 7 27 6 -8 11 -24 11 -36 0 -28 10 -36 26
-19 16 16 19 29 4 20 -14 -9 -13 18 1 32 9 9 8 16 -5 28 -24 25 -48 74 -44 93
3 12 8 7 18 -15 8 -18 18 -33 22 -33 9 0 -11 58 -23 65 -4 3 -6 12 -3 19 7 19
-33 96 -62 119 -14 10 -24 24 -23 30 3 16 -11 46 -34 79 -11 14 -16 31 -12 38
4 7 -2 21 -16 34 -14 11 -30 33 -36 48 -16 37 -82 108 -100 108 -8 0 -11 4 -8
10 3 5 -5 15 -19 22 -14 6 -26 15 -26 19 0 4 -10 11 -22 15 -13 4 -33 18 -46
31 -17 19 -29 23 -47 19 -18 -5 -24 -3 -23 6 2 8 -20 19 -60 28 -41 10 -61 19
-57 28 3 8 -6 12 -29 12 -45 0 -96 19 -90 33 5 13 -52 43 -76 39 -10 -1 -11 1
-2 4 18 8 15 17 -10 33 -21 13 -22 13 -9 -2 19 -24 1 -22 -57 5 -26 12 -63 25
-82 29 -35 7 -35 7 -5 8 17 0 45 -3 63 -8 17 -5 32 -8 32 -5 0 16 -98 33 -380
65 -100 11 -146 24 -154 45 -4 9 -14 13 -28 9 -25 -5 -64 18 -55 32 3 5 -11 9
-31 10 -20 0 -57 6 -81 13 -39 13 -41 15 -25 27 10 7 13 13 7 13 -6 0 -19 3
-28 6 -10 4 -15 2 -13 -6 2 -7 -3 -15 -11 -17 -10 -4 -11 0 -6 17 6 20 4 22
-19 18 -27 -5 -36 6 -13 16 6 3 -15 4 -48 2 -49 -4 -56 -3 -37 6 21 11 30 28
15 28 -5 0 -27 -11 -50 -24z m-543 -45 c0 -4 -21 -16 -47 -26 -58 -22 -71 -31
-95 -70 -15 -25 -18 -27 -18 -9 0 11 5 25 12 32 7 7 9 12 4 12 -29 0 73 56
114 63 14 2 26 5 28 6 1 0 2 -3 2 -8z m647 -17 c-3 -3 -12 -4 -19 -1 -8 3 -5
6 6 6 11 1 17 -2 13 -5z m-883 -13 c3 -5 -1 -11 -9 -15 -8 -3 -15 -14 -15 -24
0 -11 -7 -25 -15 -32 -8 -7 -13 -15 -11 -19 2 -3 -9 -6 -25 -7 -26 -1 -27 1
-17 20 20 37 63 86 75 86 6 0 14 -4 17 -9z m246 1 c0 -11 -41 -34 -48 -28 -3
4 3 13 14 21 21 16 34 19 34 7z m677 -18 c-3 -3 -12 -4 -19 -1 -8 3 -5 6 6 6
11 1 17 -2 13 -5z m-775 -36 c-6 -6 -15 -8 -19 -4 -4 4 -1 11 7 16 19 12 27 3
12 -12z m48 -1 c0 -2 -13 -16 -29 -31 -22 -21 -31 -25 -37 -14 -4 7 -4 10 1 6
4 -4 16 4 27 17 16 21 38 33 38 22z m-137 -67 c-3 -12 -8 -19 -11 -16 -5 6 5
36 12 36 2 0 2 -9 -1 -20z m-113 1 c0 -6 -5 -13 -11 -16 -5 -4 -14 -18 -20
-32 -5 -15 -13 -21 -21 -17 -9 6 -9 9 0 12 7 2 12 10 12 18 0 16 20 43 33 44
4 0 7 -4 7 -9z m-134 -68 c-11 -11 -17 4 -9 23 7 18 8 18 11 1 2 -10 1 -21 -2
-24z m150 16 c4 -6 8 -46 11 -88 3 -76 3 -76 -13 -46 -10 17 -19 41 -20 55 -2
13 -8 26 -13 28 -17 6 -13 22 7 23 10 0 12 3 5 6 -7 2 -13 11 -13 19 0 17 26
19 36 3z m93 -16 c0 -25 -1 -26 -9 -8 -12 27 -12 35 0 35 6 0 10 -12 9 -27z
m-249 -63 c0 -5 -2 -10 -4 -10 -3 0 -8 5 -11 10 -3 6 -1 10 4 10 6 0 11 -4 11
-10z m-27 -60 c3 -11 1 -18 -4 -14 -5 3 -9 12 -9 20 0 20 7 17 13 -6z m56 -22
c1 -5 -3 -8 -9 -8 -5 0 -10 12 -9 28 0 24 1 25 9 7 5 -11 9 -23 9 -27z m-259
-288 c0 -5 -7 -10 -16 -10 -8 0 -12 5 -9 10 3 6 10 10 16 10 5 0 9 -4 9 -10z
m3001 -332 c6 -11 6 -18 0 -18 -5 0 -16 14 -25 31 -14 28 -14 30 0 18 8 -7 20
-21 25 -31z m-141 12 c0 -5 -2 -10 -4 -10 -3 0 -8 5 -11 10 -3 6 -1 10 4 10 6
0 11 -4 11 -10z m30 -25 c7 -9 8 -15 2 -15 -5 0 -12 7 -16 15 -3 8 -4 15 -2
15 2 0 9 -7 16 -15z m21 -72 c8 -16 18 -31 24 -35 10 -7 7 -9 -17 -12 -17 -2
-20 -46 -4 -52 8 -3 17 -12 20 -20 7 -19 3 -18 -23 5 -17 15 -23 32 -25 80 -3
67 3 75 25 34z m-2253 -27 c5 -22 -16 -46 -39 -46 -15 0 -17 4 -10 18 5 9 12
25 15 35 7 22 30 17 34 -7z m42 -30 c0 -8 -4 -18 -10 -21 -5 -3 -10 3 -10 14
0 12 5 21 10 21 6 0 10 -6 10 -14z m2274 -32 c7 -17 -6 -18 -22 -2 -7 7 -12
15 -12 20 0 12 28 -2 34 -18z m-2177 0 c-3 -3 -12 -4 -19 -1 -8 3 -5 6 6 6 11
1 17 -2 13 -5z m-127 -24 c0 -5 -4 -10 -10 -10 -5 0 -10 5 -10 10 0 6 5 10 10
10 6 0 10 -4 10 -10z m180 -18 c0 -10 -37 -42 -49 -42 -16 0 0 39 18 43 27 8
31 7 31 -1z m-1098 -18 c6 -5 -18 -67 -63 -160 -10 -22 -19 -47 -19 -55 0 -8
-5 -20 -12 -27 -10 -10 -16 -46 -17 -109 -2 -47 -18 -20 -55 90 -20 61 -39
117 -42 122 -2 6 6 15 18 20 16 7 24 20 26 43 4 38 30 59 93 71 58 12 65 12
71 5z m-265 -10 c-3 -3 -12 -4 -19 -1 -8 3 -5 6 6 6 11 1 17 -2 13 -5z m1453
-23 c0 -5 -10 -7 -22 -3 -22 5 -22 5 -5 -21 20 -31 24 -58 5 -39 -17 17 -48
15 -70 -5 -20 -18 -23 -8 -12 33 8 30 104 62 104 35z m97 -33 c-3 -8 -6 -5 -6
6 -1 11 2 17 5 13 3 -3 4 -12 1 -19z m258 12 c3 -5 1 -10 -4 -10 -6 0 -11 5
-11 10 0 6 2 10 4 10 3 0 8 -4 11 -10z m-55 -15 c10 -13 9 -15 -9 -15 -11 0
-21 6 -21 13 0 9 -3 8 -9 -2 -5 -7 -14 -10 -20 -7 -6 4 -9 12 -6 17 9 14 51
11 65 -6z m860 -11 c0 -8 -4 -14 -10 -14 -5 0 -10 9 -10 21 0 11 5 17 10 14 6
-3 10 -13 10 -21z m-80 -14 c0 -5 -7 -10 -16 -10 -8 0 -12 5 -9 10 3 6 10 10
16 10 5 0 9 -4 9 -10z m-560 -22 c0 -4 9 -8 19 -8 11 0 22 -4 26 -10 8 -13
132 -5 151 11 9 7 35 14 59 15 39 3 48 -1 83 -37 22 -22 42 -35 44 -30 1 5 16
7 31 4 21 -4 25 -8 15 -14 -9 -6 -7 -9 10 -9 13 0 22 -6 22 -15 0 -20 9 -19
28 5 17 20 17 20 46 -5 45 -39 60 -34 52 18 -4 24 -3 54 2 67 8 22 10 21 16
-15 4 -22 14 -50 22 -63 11 -17 12 -27 4 -42 -7 -14 -7 -20 0 -20 5 0 10 6 10
14 0 7 7 19 15 26 24 20 19 -21 -5 -48 -22 -23 -25 -38 -10 -47 6 -3 13 2 17
12 3 10 14 28 24 41 19 25 26 20 44 -33 8 -23 16 -29 33 -28 17 2 22 -2 22
-20 0 -18 2 -19 10 -7 6 9 6 18 0 24 -6 6 -10 24 -10 40 1 28 2 29 12 11 6
-11 22 -31 35 -44 17 -17 20 -27 13 -36 -8 -10 -3 -19 17 -35 18 -14 24 -23
16 -26 -33 -14 17 -64 50 -51 9 3 18 -1 21 -9 7 -17 -3 -44 -15 -44 -5 0 -7
-11 -3 -24 5 -21 2 -25 -21 -28 -25 -3 -28 -7 -29 -45 -3 -57 21 -59 30 -3 7
42 26 57 21 18 -1 -17 3 -22 16 -20 9 2 17 2 17 0 0 -2 4 -18 9 -36 9 -29 7
-34 -12 -41 -14 -5 -25 -4 -29 3 -5 8 -11 7 -20 -2 -9 -9 -9 -12 0 -12 7 0 12
-4 12 -9 0 -4 -24 3 -52 17 -50 24 -52 26 -28 34 23 7 22 7 -5 4 -16 -2 -41 2
-55 9 -14 7 -44 21 -67 30 -42 18 -56 34 -30 36 8 0 8 2 -2 6 -23 9 -61 46
-61 59 0 12 -31 24 -67 24 -12 0 -27 9 -33 20 -8 15 -21 20 -52 20 -35 0 -40
-2 -35 -20 6 -22 -3 -26 -20 -9 -7 7 -28 13 -49 16 -39 4 -63 25 -64 57 0 14
-3 16 -13 8 -13 -11 -58 -13 -67 -2 -11 12 -77 32 -103 31 -33 -2 -61 21 -45
37 14 14 1 33 -17 25 -9 -3 -15 1 -15 10 0 12 -9 14 -40 11 -27 -2 -40 0 -40
9 0 7 -11 21 -25 31 -23 17 -24 20 -9 48 15 29 15 29 -8 26 -13 -2 -27 -13
-33 -25 -15 -34 -24 -28 -20 15 1 20 3 38 4 38 1 1 16 -2 35 -6 38 -8 52 6 41
41 -5 14 0 18 25 17 16 -1 30 -5 30 -10z m-522 -32 c3 -12 -1 -17 -10 -14 -7
3 -15 13 -16 22 -3 12 1 17 10 14 7 -3 15 -13 16 -22z m2078 -120 c5 -37 3
-34 -19 24 -14 36 -28 74 -32 85 -4 11 5 0 19 -24 14 -24 29 -62 32 -85z
m-1726 29 c7 -9 8 -15 2 -15 -5 0 -12 7 -16 15 -3 8 -4 15 -2 15 2 0 9 -7 16
-15z m940 -10 c0 -8 -7 -15 -15 -15 -9 0 -12 6 -9 15 4 8 10 15 15 15 5 0 9
-7 9 -15z m-850 -25 c0 -5 -4 -10 -10 -10 -5 0 -10 5 -10 10 0 6 5 10 10 10 6
0 10 -4 10 -10z m665 -250 c3 -5 -1 -10 -9 -10 -9 0 -16 5 -16 10 0 6 4 10 9
10 6 0 13 -4 16 -10z m-1428 -46 c3 -8 1 -20 -6 -27 -14 -14 -47 15 -37 32 10
16 36 13 43 -5z m262 -143 c13 -11 29 -17 37 -14 19 7 46 -16 36 -31 -4 -6
-12 -26 -19 -44 l-11 -34 34 6 c37 8 43 0 17 -20 -16 -12 -16 -15 -3 -24 11
-7 18 -5 26 5 18 24 32 18 50 -22 10 -21 24 -42 31 -46 7 -4 13 -16 13 -25 1
-9 8 -35 16 -57 16 -40 32 -120 38 -182 2 -18 11 -44 20 -59 17 -24 17 -26 1
-38 -16 -12 -16 -15 -1 -44 19 -36 12 -59 -27 -88 -15 -11 -18 -18 -9 -21 6
-3 12 -12 12 -21 0 -14 -1 -14 -12 0 -7 9 -19 18 -27 20 -14 4 -19 24 -25 103
-6 72 -19 120 -40 150 -12 17 -22 32 -24 35 -2 2 -7 -2 -13 -10 -8 -13 -10
-13 -19 0 -5 8 -8 21 -5 28 5 15 -56 44 -93 44 -12 0 -25 4 -28 9 -3 5 -16 9
-29 9 -13 0 -26 6 -28 13 -3 6 -6 3 -6 -8 -1 -11 -5 -27 -11 -35 -8 -12 -11
-12 -28 3 -10 9 -23 17 -29 17 -13 0 -28 74 -18 89 7 12 33 4 58 -17 10 -9 17
-11 17 -4 0 6 -5 14 -10 17 -6 4 -8 15 -5 26 7 22 -6 24 -37 8 -18 -10 -19 -8
-13 11 5 16 -3 31 -34 65 -23 25 -45 45 -49 45 -41 1 -63 50 -22 50 11 0 20 4
20 9 0 14 79 22 101 10 23 -12 69 -5 69 11 0 5 -16 12 -37 16 -32 6 -34 8 -20
19 10 7 17 17 17 24 0 6 9 11 20 11 13 0 20 -7 20 -20 0 -11 5 -20 10 -20 6 0
10 11 10 25 0 31 27 34 59 6z m1355 -27 c9 -24 2 -26 -12 -4 -7 11 -8 20 -3
20 5 0 12 -7 15 -16z m224 -71 c96 -60 137 -87 144 -98 16 -21 7 -27 -30 -21
-53 8 -69 -7 -81 -78 -14 -74 -14 -99 -1 -91 6 4 10 -5 10 -19 0 -26 -19 -38
-21 -13 0 6 -7 -3 -15 -20 -17 -41 -39 -44 -30 -5 28 130 38 219 27 259 -12
42 -54 94 -116 141 l-30 22 43 -20 c24 -12 69 -37 100 -57z m-18 57 c8 -5 12
-11 10 -14 -3 -2 -14 2 -24 10 -22 15 -10 19 14 4z m-136 -26 c9 -8 16 -19 16
-24 0 -5 13 -16 29 -26 18 -11 28 -24 26 -38 0 -11 3 -26 8 -33 16 -21 33
-193 20 -193 -5 0 -8 -13 -5 -30 2 -16 0 -30 -4 -30 -5 0 -10 -27 -10 -60 -1
-48 -6 -65 -23 -81 -11 -11 -21 -28 -21 -38 0 -20 -44 -107 -68 -134 -12 -13
-17 -15 -24 -5 -4 7 -5 21 -2 31 3 10 -1 19 -10 23 -18 7 -22 30 -6 36 5 2 11
22 12 45 2 26 8 43 16 43 6 0 12 5 12 10 0 6 -5 10 -10 10 -17 0 -29 43 -17
58 7 9 1 22 -24 48 l-34 35 35 29 c42 36 47 36 77 8 22 -20 25 -21 40 -5 13
12 14 22 7 39 -13 30 -6 68 12 68 8 0 14 5 14 11 0 6 -7 9 -15 5 -9 -3 -19 3
-25 14 -9 17 -7 20 11 20 21 0 21 1 5 19 -16 17 -16 19 0 25 13 5 14 9 4 21
-7 8 -9 15 -6 15 4 0 4 5 0 12 -5 7 -12 5 -22 -8 -14 -18 -14 -18 -9 5 4 17 1
24 -11 28 -10 2 -25 17 -34 34 -16 28 -16 29 2 29 10 0 26 -7 34 -16z m-1314
-24 c0 -5 -4 -10 -10 -10 -5 0 -10 5 -10 10 0 6 5 10 10 10 6 0 10 -4 10 -10z
m-816 -41 c14 -6 -3 -7 -49 -3 -38 3 -74 10 -80 16 -12 12 97 1 129 -13z
m-342 -35 c70 -22 128 -42 128 -45 0 -14 -276 66 -286 83 -8 12 -9 12 158 -38z
m268 -70 c79 -9 102 -10 163 -12 80 -3 43 -22 -42 -22 -72 0 -213 28 -229 45
-4 4 4 5 18 2 14 -3 54 -9 90 -13z m1928 -56 c36 -47 39 -56 16 -65 -10 -4
-30 8 -57 35 -34 35 -39 43 -28 56 21 25 34 19 69 -26z m507 -46 c-3 -3 -11 0
-18 7 -9 10 -8 11 6 5 10 -3 15 -9 12 -12z m-235 -13 c0 -5 -4 -9 -10 -9 -5 0
-10 7 -10 16 0 8 5 12 10 9 6 -3 10 -10 10 -16z m-1397 -82 c-3 -5 -16 -6 -29
-3 -14 4 -24 2 -24 -4 0 -5 -7 -10 -15 -10 -15 0 -22 50 -9 63 9 9 83 -36 77
-46z m1657 -41 c0 -22 -5 -36 -12 -36 -10 0 -10 -2 0 -9 9 -5 11 -17 7 -34 -4
-15 -11 -25 -15 -22 -16 10 -38 64 -28 67 14 5 -2 38 -18 38 -8 0 -14 7 -14
16 0 13 3 14 14 5 14 -12 28 -2 32 22 1 4 2 10 3 13 0 3 8 -1 16 -10 8 -8 15
-31 15 -50z m-1346 18 c5 -20 12 -25 26 -21 25 6 43 -16 36 -45 -3 -13 -3 -17
0 -11 4 10 11 9 28 -2 13 -9 31 -13 40 -9 9 4 16 1 16 -6 0 -7 12 2 27 19 33
37 43 39 43 7 0 -14 5 -28 10 -31 6 -4 9 -1 8 6 -2 6 3 14 11 17 10 3 12 0 8
-12 -4 -10 -1 -16 8 -16 8 0 15 5 15 10 0 20 27 9 38 -15 9 -19 8 -27 -4 -40
-17 -16 -19 -14 32 -30 8 -3 24 0 35 6 19 10 20 8 14 -35 -5 -33 -4 -46 5 -46
7 0 10 7 6 15 -4 11 1 15 18 15 19 0 22 4 19 24 -3 13 0 27 6 30 14 9 41 -17
41 -39 0 -13 6 -16 24 -11 30 7 36 0 26 -34 -11 -38 3 -49 68 -51 35 -2 52 -6
52 -15 0 -7 -4 -16 -10 -19 -13 -8 -13 -35 0 -35 5 0 12 11 16 24 7 28 17 34
59 32 22 -1 29 -5 27 -18 -3 -17 21 -21 171 -31 31 -2 60 -6 63 -9 7 -8 -26
-39 -36 -33 -4 2 -38 7 -76 10 -64 6 -78 8 -126 21 -10 3 -18 1 -18 -5 0 -5
17 -13 38 -16 20 -4 51 -11 67 -16 17 -4 54 -11 84 -13 30 -3 57 -9 60 -13 15
-22 55 -29 90 -17 30 10 36 17 34 39 -1 14 2 23 8 20 13 -9 11 9 -3 24 -11 11
-10 12 1 6 10 -6 12 -2 6 16 -3 13 -9 31 -11 40 -3 9 2 23 9 31 8 8 18 29 22
46 3 18 11 30 16 26 5 -3 9 8 9 23 0 61 42 69 89 18 17 -19 36 -35 41 -35 6 0
10 -5 10 -12 0 -6 10 -25 23 -42 39 -52 47 -84 47 -174 0 -132 -20 -454 -30
-477 -5 -11 -11 -58 -14 -105 -5 -99 -15 -158 -27 -166 -5 -3 -7 1 -4 8 2 7 6
41 9 76 4 46 2 62 -7 59 -7 -2 -12 -21 -12 -43 0 -21 -6 -50 -14 -64 -8 -14
-16 -38 -17 -55 -1 -16 -6 -43 -10 -59 -6 -24 -4 -28 9 -23 9 3 18 1 21 -6 3
-7 4 2 3 20 -1 18 3 32 8 32 6 1 10 -3 9 -9 -1 -5 -2 -28 -2 -49 -2 -35 -5
-40 -29 -43 -25 -3 -26 -4 -10 -20 9 -9 17 -22 17 -29 0 -10 -3 -10 -12 -1
-19 19 -48 15 -48 -8 0 -11 -4 -20 -9 -20 -12 0 -41 -81 -41 -117 0 -17 -7
-44 -15 -59 -17 -32 -20 -64 -6 -64 5 0 11 -9 14 -21 4 -15 -1 -22 -19 -29
-13 -5 -24 -18 -24 -28 0 -9 -7 -28 -16 -40 -10 -14 -14 -36 -12 -53 3 -16 1
-32 -4 -35 -4 -3 -8 -20 -8 -37 0 -21 -7 -36 -20 -45 -18 -11 -20 -10 -20 10
-1 21 -2 21 -11 5 -6 -9 -12 -25 -14 -35 -2 -9 -8 -30 -14 -45 -13 -34 -7 -48
17 -40 15 5 15 4 -2 -13 -11 -12 -20 -15 -23 -8 -2 6 -10 20 -18 30 -13 17
-14 18 -15 2 0 -10 -4 -18 -10 -18 -5 0 -10 -13 -10 -30 0 -20 5 -30 15 -30
18 0 19 -13 4 -80 -8 -39 -14 -49 -22 -41 -9 9 -9 14 0 19 6 4 9 19 6 34 -5
26 -6 26 -29 11 -13 -8 -24 -22 -24 -29 0 -8 -8 -14 -17 -14 -17 -1 -17 -2 0
-14 13 -10 15 -16 6 -21 -6 -4 -15 -1 -20 6 -12 19 -20 7 -26 -40 -3 -23 -11
-41 -17 -41 -6 0 -2 -7 8 -15 15 -11 16 -15 5 -15 -20 0 -52 -40 -54 -67 0
-12 -6 -28 -12 -34 -9 -9 -11 2 -7 47 4 40 2 55 -4 45 -6 -8 -8 -20 -5 -28 3
-7 -1 -13 -10 -13 -23 0 -31 37 -13 65 13 20 13 25 1 35 -8 7 -15 21 -15 31 0
10 -4 21 -10 24 -13 8 -13 -11 1 -37 9 -18 8 -19 -10 -13 -21 6 -22 4 -4 -42
13 -38 12 -53 -6 -63 -28 -15 -38 -13 -44 10 -12 45 -43 4 -38 -50 1 -17 -7
-33 -24 -48 -32 -28 -58 -28 -70 0 -9 20 -63 44 -74 33 -2 -3 5 -19 17 -35 27
-36 28 -49 3 -26 -11 10 -25 15 -30 11 -16 -9 -13 -25 4 -25 22 0 18 -38 -5
-45 -11 -3 -20 -10 -20 -15 0 -4 -8 -6 -19 -3 -10 3 -22 0 -25 -6 -4 -6 0 -11
8 -11 9 0 16 -4 16 -10 0 -5 -6 -10 -14 -10 -25 0 -46 12 -46 26 0 15 -21 17
-60 4 l-25 -8 25 -2 c14 -1 31 -2 38 -1 6 1 12 -6 12 -16 0 -10 9 -24 20 -31
11 -7 17 -18 14 -27 -4 -8 -1 -15 5 -15 6 0 11 -4 11 -9 0 -5 -9 -7 -20 -4
-11 3 -17 10 -14 15 4 6 -4 3 -17 -6 -42 -27 -102 -44 -126 -35 -27 10 -40 -6
-23 -26 11 -13 6 -15 -29 -15 -32 0 -48 -6 -68 -26 l-26 -26 5 26 c3 14 2 23
-3 21 -4 -3 -11 4 -14 16 -4 12 -12 18 -21 15 -16 -6 -39 30 -25 38 5 4 30 -3
55 -14 46 -19 47 -19 66 0 19 19 27 50 14 50 -3 0 -14 -10 -23 -21 -15 -19
-20 -20 -41 -9 -22 12 -22 14 -7 25 25 18 21 33 -7 28 -28 -6 -68 26 -73 57
-3 21 21 28 32 10 7 -11 119 -9 130 2 3 3 -13 8 -36 12 -48 8 -110 37 -91 43
26 9 33 41 15 69 -16 25 -16 27 0 39 21 15 22 25 2 25 -18 0 -29 -41 -21 -74
4 -16 -1 -32 -15 -50 -21 -26 -59 -36 -59 -15 0 8 -4 8 -14 0 -10 -8 -16 -9
-21 -1 -10 16 -25 12 -25 -9 0 -32 -24 -44 -64 -31 -31 10 -34 14 -24 30 7 10
29 22 50 25 40 7 49 19 22 29 -10 4 -22 -1 -29 -10 -7 -10 -19 -15 -29 -11
-23 9 -20 27 4 27 11 0 20 5 20 11 0 7 -12 10 -30 7 -16 -3 -30 -1 -30 4 0 4
-9 8 -20 8 -11 0 -20 5 -20 11 0 5 -4 7 -10 4 -16 -10 -12 -43 7 -54 21 -11
12 -24 -18 -26 -18 -2 -20 3 -17 41 1 23 0 40 -4 37 -5 -2 -8 3 -8 11 0 8 5
18 10 21 6 3 10 1 10 -4 0 -7 7 -7 20 1 25 16 25 29 0 78 -24 47 -40 52 -35
10 4 -28 2 -30 -26 -30 -51 0 -72 17 -65 53 8 38 -14 149 -32 162 -7 6 -12 17
-10 25 2 8 -3 15 -11 15 -20 0 -26 -54 -6 -61 8 -3 15 -11 15 -16 0 -6 -6 -5
-15 2 -8 6 -18 9 -24 6 -15 -10 -40 4 -35 19 3 7 -5 33 -18 58 -20 37 -27 43
-41 35 -16 -9 -16 -11 4 -27 17 -14 20 -24 15 -44 -3 -15 -13 -27 -21 -27 -18
0 -19 12 -4 27 8 8 6 16 -9 28 -11 10 -32 28 -47 42 -20 18 -30 21 -35 13 -6
-9 -11 -7 -19 9 -11 20 -41 30 -41 12 0 -4 -11 -6 -25 -3 -14 2 -24 10 -22 16
2 6 11 10 20 8 23 -4 29 14 10 29 -9 8 -18 13 -21 11 -3 -1 -7 9 -8 24 -2 20
0 23 10 15 8 -6 21 -9 30 -5 11 4 16 1 16 -10 0 -9 7 -16 15 -16 11 0 15 11
15 41 0 41 0 41 33 34 17 -4 41 -15 52 -24 26 -22 65 -16 65 10 0 18 1 19 25
3 27 -18 23 -39 -6 -31 -35 9 -30 -12 7 -28 45 -18 42 -18 40 1 0 9 5 19 12
21 6 3 12 -2 12 -10 0 -14 3 -14 30 -1 17 9 30 22 30 29 0 20 19 28 35 15 8
-7 15 -7 19 -1 3 5 1 11 -6 13 -9 3 -9 6 0 12 7 4 17 -5 27 -26 10 -21 14 -25
11 -10 -2 13 1 22 8 22 8 0 11 -10 8 -30 -2 -16 -8 -27 -13 -24 -5 3 -12 -2
-15 -10 -8 -21 -22 -20 -20 1 0 10 -7 19 -16 21 -13 2 -18 -3 -18 -17 0 -12 6
-21 13 -22 10 0 10 -2 0 -6 -7 -2 -13 -20 -13 -39 0 -26 4 -34 18 -34 10 0 23
-5 30 -12 9 -9 12 -9 12 0 0 7 -4 12 -10 12 -13 0 4 43 18 48 7 2 12 -7 12
-22 0 -14 5 -26 11 -26 5 0 8 4 5 9 -10 16 6 71 20 71 12 0 13 -15 8 -77 -6
-72 -4 -79 15 -91 20 -12 21 -10 21 38 0 56 12 63 42 25 25 -32 38 -32 39 3
l1 27 7 -25 c6 -23 12 -26 41 -21 14 2 13 38 -2 43 -15 5 -1 28 18 28 8 0 14
-6 14 -13 0 -18 47 -73 55 -65 9 9 -18 48 -32 48 -7 0 -13 3 -13 8 0 4 -4 24
-9 45 l-9 37 42 -1 c22 0 35 -3 29 -6 -21 -8 -16 -53 6 -53 22 0 33 23 26 53
-6 21 -71 57 -103 57 -15 0 -15 10 -1 30 8 11 12 12 16 3 6 -17 53 -17 53 0 0
18 61 70 71 60 4 -4 12 -24 17 -43 l10 -35 1 43 c1 23 6 42 11 42 15 0 12 68
-4 77 -17 10 -31 83 -16 83 5 0 10 -6 11 -12 0 -10 2 -10 6 0 2 6 16 12 29 12
14 0 24 6 24 14 0 15 29 29 50 24 24 -6 20 18 -4 32 l-25 13 19 28 c11 15 20
34 20 43 0 19 11 21 28 4 9 -9 13 -8 18 5 7 19 -25 77 -43 77 -7 0 -13 9 -13
20 0 26 14 25 33 -2 l16 -23 0 25 c1 23 -23 101 -37 124 -3 6 -7 37 -8 68 -2
45 1 58 12 58 8 0 14 4 14 9 0 17 -18 21 -44 11 -21 -7 -26 -6 -26 5 0 8 -4
15 -10 15 -5 0 -10 -5 -10 -11 0 -6 -8 -8 -19 -4 -11 3 -23 0 -27 -7 -6 -9
-10 -4 -14 17 -4 17 -2 36 3 43 7 9 4 17 -12 28 -27 19 -61 55 -61 65 0 4 3
14 6 23 7 17 44 22 44 6 0 -5 7 -10 15 -10 8 0 15 5 15 10 0 6 10 10 23 11 12
0 16 3 10 6 -7 2 -13 9 -13 14 0 4 6 6 14 3 16 -6 31 12 18 20 -5 3 -7 17 -4
31 3 16 -2 33 -13 45 -10 11 -17 36 -17 65 -1 32 -6 49 -16 53 -13 4 -12 7 2
17 14 11 15 17 4 40 -11 23 -10 28 7 37 18 10 18 11 0 24 -9 7 -17 24 -17 38
0 16 -7 26 -20 29 -16 5 -19 11 -13 36 4 20 3 31 -4 31 -6 0 -11 5 -11 10 0 6
7 10 15 10 8 0 15 7 15 15 0 8 -4 15 -10 15 -11 0 -13 33 -4 77 9 45 34 56 83
35 36 -15 41 -20 36 -40 -5 -20 -3 -23 15 -17 12 4 28 1 37 -7 12 -9 17 -10
20 -2 5 15 89 -9 114 -32 10 -9 32 -18 48 -20 16 -2 48 -11 72 -19 24 -9 52
-19 62 -22 9 -3 17 -8 17 -12 0 -4 16 -5 35 -3 51 6 38 24 -28 42 -31 8 -62
21 -69 28 -6 6 -17 12 -24 12 -6 0 -17 7 -24 15 -11 13 -8 15 14 15 14 0 26
-4 26 -10 0 -5 5 -10 10 -10 18 0 10 19 -11 25 -11 4 -19 8 -17 10 3 3 76 -12
156 -32 12 -3 22 -1 22 5 0 12 -24 22 -54 22 -12 0 -26 4 -32 8 -5 5 -40 17
-77 27 -38 10 -90 28 -115 40 -26 12 -63 25 -82 29 -76 14 -202 96 -148 96 6
0 9 2 6 5 -3 3 -17 1 -31 -4 -23 -9 -33 -5 -77 30 -50 40 -57 56 -44 107 8 29
20 28 28 -4z m55 -159 c6 3 11 2 11 -4 0 -5 10 -13 23 -16 44 -13 132 -50 135
-57 2 -5 11 -8 21 -8 9 0 21 -4 26 -9 6 -5 42 -19 80 -31 69 -23 116 -49 66
-37 -14 3 -31 1 -38 -4 -15 -13 -34 -3 -27 14 4 13 -47 37 -77 37 -9 0 -34 9
-56 20 -23 11 -48 17 -56 14 -8 -3 -18 -1 -22 5 -3 6 -17 11 -30 11 -13 0 -30
7 -39 15 -8 8 -19 15 -25 15 -17 0 -60 49 -48 53 7 2 20 -2 29 -10 9 -8 22
-12 27 -8z m-1269 -65 c0 -5 -2 -10 -4 -10 -3 0 -8 5 -11 10 -3 6 -1 10 4 10
6 0 11 -4 11 -10z m746 -85 c-2 -5 -9 -9 -15 -7 -6 1 -11 -3 -11 -10 0 -9 -3
-9 -12 0 -9 9 -8 18 2 38 13 24 15 24 27 8 7 -10 12 -23 9 -29z m1047 38 c-7
-2 -19 -2 -25 0 -7 3 -2 5 12 5 14 0 19 -2 13 -5z m-703 -39 c0 -8 -4 -12 -10
-9 -5 3 -10 10 -10 16 0 5 5 9 10 9 6 0 10 -7 10 -16z m530 -24 c0 -5 -4 -10
-10 -10 -5 0 -10 5 -10 10 0 6 5 10 10 10 6 0 10 -4 10 -10z m-1140 -267 c-1
-28 -3 -34 -10 -22 -8 14 -3 59 6 59 2 0 4 -17 4 -37z m-35 -75 c24 -16 35
-32 37 -52 3 -32 13 -36 94 -49 37 -6 42 -4 49 16 4 14 8 17 12 9 4 -10 11 -8
29 9 13 12 24 28 24 35 0 6 7 17 15 24 12 10 15 9 15 -8 0 -11 10 -26 23 -35
17 -12 19 -18 10 -28 -15 -15 0 -39 24 -39 19 0 73 -41 67 -52 -5 -7 2 -9 46
-13 8 0 20 -4 27 -8 7 -5 16 0 23 12 11 21 42 19 35 -2 -2 -7 -6 -32 -10 -57
-5 -40 -4 -43 8 -26 17 23 57 13 57 -14 0 -19 17 -36 26 -27 2 2 0 17 -6 32
-6 15 -8 31 -4 34 4 3 9 0 11 -6 3 -7 10 -13 17 -13 7 0 10 -13 8 -39 -2 -22
1 -42 8 -46 17 -10 25 2 11 18 -9 11 -8 17 4 27 12 10 15 9 17 -6 0 -11 1 -27
0 -36 -1 -10 3 -17 10 -15 7 1 12 -12 14 -30 1 -20 -3 -33 -10 -33 -8 0 -11
-12 -8 -35 5 -41 22 -37 22 5 0 22 4 28 19 27 12 -1 22 -11 26 -24 3 -14 13
-23 25 -23 26 0 26 -26 0 -33 -11 -3 -20 -12 -20 -21 0 -11 9 -14 37 -12 29 3
42 -1 56 -18 16 -18 17 -21 3 -24 -8 -2 -13 -9 -10 -17 3 -7 1 -16 -5 -20 -16
-10 -13 -45 4 -45 18 0 20 -41 3 -59 -11 -11 -10 -14 0 -18 10 -4 10 -8 0 -20
-11 -14 -9 -15 18 -9 23 5 36 2 55 -14 l24 -21 -42 6 c-51 8 -59 -10 -13 -26
28 -10 43 -39 20 -39 -5 0 -10 5 -10 10 0 6 -9 10 -20 10 -11 0 -20 -6 -20
-14 0 -8 -7 -16 -15 -20 -18 -7 -46 53 -39 82 3 10 -2 24 -10 31 -9 8 -16 24
-16 38 0 18 -8 27 -29 34 -16 6 -37 21 -46 35 -8 13 -20 24 -25 24 -5 0 -25
10 -45 21 -25 15 -33 24 -24 29 15 10 5 39 -18 47 -22 8 -42 33 -43 53 0 9 -8
23 -17 31 -10 9 -34 37 -53 63 -19 26 -54 68 -77 94 -23 26 -43 55 -43 65 0
12 -8 17 -30 17 -20 0 -30 5 -30 15 0 10 -10 15 -34 15 -31 0 -53 19 -48 43 1
4 -3 7 -8 7 -5 0 -10 -7 -10 -15 0 -24 -110 -21 -138 4 -12 10 -22 22 -22 25
0 13 -30 37 -39 32 -12 -8 -55 80 -46 94 8 14 10 13 50 -12z m2333 -273 c-2
-173 -7 -267 -15 -280 -6 -11 -17 -40 -23 -65 -7 -25 -18 -65 -26 -89 -7 -24
-12 -47 -9 -50 2 -4 0 -25 -6 -47 -5 -21 -11 -65 -15 -96 -3 -32 -11 -80 -18
-107 -9 -36 -10 -66 -3 -110 12 -78 3 -124 -33 -161 -29 -29 -58 -42 -44 -18
5 8 2 9 -9 5 -10 -3 -17 -2 -17 3 0 5 -10 9 -22 7 -17 -1 -24 5 -31 31 -6 17
-16 32 -24 32 -8 0 -11 5 -7 11 4 8 9 8 17 0 20 -20 26 -12 15 19 -15 46 -6
160 15 175 17 12 23 35 10 35 -5 0 -8 15 -7 33 3 112 3 110 24 104 33 -8 58
23 69 86 10 58 2 104 -20 118 -7 4 -6 11 3 20 7 8 14 39 15 69 0 30 9 87 19
127 14 56 21 70 30 62 7 -6 17 -8 22 -5 4 2 6 -10 4 -27 -7 -51 -6 -99 2 -142
7 -36 9 -38 21 -21 19 25 30 141 17 182 -7 25 -6 39 4 60 16 31 18 51 5 56 -6
2 -3 41 8 96 10 50 15 92 12 93 -3 1 -15 2 -26 3 -28 2 -30 30 -3 61 21 24 23
25 36 8 10 -14 12 -76 10 -278z m-1498 225 c0 -5 -4 -10 -10 -10 -5 0 -10 5
-10 10 0 6 5 10 10 10 6 0 10 -4 10 -10z m-2366 -57 c-9 -39 -15 -47 -24 -32
-9 13 8 59 22 59 5 0 5 -12 2 -27z m2246 -33 c-20 -13 -33 -13 -25 0 3 6 14
10 23 10 15 0 15 -2 2 -10z m80 -7 c0 -5 -5 -15 -10 -23 -8 -12 -10 -11 -10 8
0 12 5 22 10 22 6 0 10 -3 10 -7z m-90 -59 c0 -9 -11 -2 -30 18 -11 12 -20 26
-20 30 0 5 11 -3 25 -18 14 -15 25 -29 25 -30z m-2258 9 c-5 -24 -6 -25 -12
-8 -8 22 -2 47 10 40 4 -2 5 -17 2 -32z m2358 -13 c-6 -11 -13 -20 -15 -20 -2
0 -3 9 -2 20 1 11 7 20 14 20 11 0 11 -5 3 -20z m55 10 c3 -5 1 -10 -4 -10 -6
0 -11 5 -11 10 0 6 2 10 4 10 3 0 8 -4 11 -10z m-195 -32 c0 -6 -7 -5 -15 2
-8 7 -15 17 -15 22 0 6 7 5 15 -2 8 -7 15 -17 15 -22z m-688 -292 c55 -23 53
-33 -5 -39 -56 -5 -87 10 -87 43 0 33 5 33 92 -4z m132 -55 c3 -5 22 -12 41
-15 20 -4 39 -14 42 -22 3 -7 16 -14 29 -14 13 0 32 -4 42 -10 9 -5 43 -21 75
-35 31 -15 57 -30 57 -35 0 -4 8 -6 18 -3 10 2 24 -3 31 -11 8 -9 20 -16 29
-16 8 0 30 -11 48 -25 18 -14 40 -25 50 -25 27 0 43 -31 44 -85 0 -39 4 -53
20 -63 11 -7 20 -19 20 -27 0 -18 -27 -20 -32 -3 -2 6 -12 9 -21 5 -25 -9 -9
-37 21 -37 24 0 24 -1 8 -13 -15 -11 -16 -16 -4 -42 7 -17 21 -36 30 -43 19
-14 24 -42 8 -42 -5 0 -10 -7 -10 -15 0 -8 -4 -15 -10 -15 -5 0 -10 7 -10 15
0 25 -29 17 -36 -10 -3 -14 -10 -25 -15 -25 -13 0 -11 12 5 33 16 21 10 57
-10 57 -7 0 -17 7 -22 15 -5 10 -15 13 -25 9 -20 -7 -22 -25 -6 -41 9 -9 8
-20 -5 -45 -17 -32 -17 -32 -13 -5 3 17 0 27 -8 27 -7 0 -12 8 -11 18 1 12 -7
18 -26 20 -29 3 -40 -21 -15 -32 9 -5 9 -7 0 -12 -7 -3 -16 -5 -20 -5 -8 1 -9
5 -12 56 -1 35 -48 66 -63 42 -4 -7 -8 6 -8 31 0 27 -4 42 -13 42 -7 0 -23 18
-37 40 -14 22 -32 40 -42 40 -12 0 -18 10 -20 33 -2 27 -7 32 -28 32 -31 0
-82 53 -74 77 3 12 -2 17 -18 20 -18 2 -24 10 -26 37 -2 19 -10 40 -18 48 -16
16 -19 43 -5 43 5 0 13 9 16 20 7 21 20 26 29 11z m819 -76 c4 -8 2 -17 -3
-20 -6 -4 -10 3 -10 14 0 25 6 27 13 6z m-36 -67 c-3 -8 -6 -5 -6 6 -1 11 2
17 5 13 3 -3 4 -12 1 -19z m60 -34 c-3 -3 -12 -4 -19 -1 -8 3 -5 6 6 6 11 1
17 -2 13 -5z m1043 -108 c0 -8 -4 -18 -10 -21 -5 -3 -10 3 -10 14 0 12 5 21
10 21 6 0 10 -6 10 -14z m-1140 -40 c0 -3 -4 -8 -10 -11 -5 -3 -10 -1 -10 4 0
6 5 11 10 11 6 0 10 -2 10 -4z m50 -6 c0 -5 -4 -10 -10 -10 -5 0 -10 5 -10 10
0 6 5 10 10 10 6 0 10 -4 10 -10z m-632 -84 c3 -13 -1 -17 -14 -14 -11 2 -20
11 -22 22 -3 13 1 17 14 14 11 -2 20 -11 22 -22z m1683 -29 c-8 -8 -11 -3 -11
19 1 25 2 27 11 11 8 -14 8 -22 0 -30z m-1752 -38 c-7 -4 -18 -5 -26 -2 -10 4
-11 9 -2 19 9 11 15 12 26 3 11 -9 11 -14 2 -20z m1771 4 c0 -10 -20 -40 -20
-31 0 3 -3 13 -6 22 -4 11 -1 16 10 16 9 0 16 -3 16 -7z m-1700 -18 c0 -3 -12
-17 -27 -30 l-28 -24 28 -1 c15 0 27 -4 27 -9 0 -5 3 -16 6 -25 5 -12 0 -16
-20 -16 -19 0 -29 7 -36 25 -5 14 -14 25 -20 25 -5 0 -10 14 -10 30 0 28 2 30
40 30 22 0 40 -2 40 -5z m1680 -65 c0 -5 -4 -10 -10 -10 -5 0 -10 5 -10 10 0
6 5 10 10 10 6 0 10 -4 10 -10z m-1972 -31 c-2 -6 -8 -10 -13 -10 -5 0 -11 4
-13 10 -2 6 4 11 13 11 9 0 15 -5 13 -11z m46 -30 c-8 -13 -24 -1 -24 18 0 13
3 13 15 3 8 -7 12 -16 9 -21z m1923 -11 c-3 -7 -5 -2 -5 12 0 14 2 19 5 13 2
-7 2 -19 0 -25z m-1397 7 c0 -8 -7 -15 -15 -15 -16 0 -20 12 -8 23 11 12 23 8
23 -8z m-280 -11 c0 -9 -7 -14 -17 -12 -25 5 -28 28 -4 28 12 0 21 -6 21 -16z
m-330 -4 c0 -5 -4 -10 -9 -10 -6 0 -13 5 -16 10 -3 6 1 10 9 10 9 0 16 -4 16
-10z m30 6 c0 -3 -4 -8 -10 -11 -5 -3 -10 -1 -10 4 0 6 5 11 10 11 6 0 10 -2
10 -4z m-71 -20 c17 -20 2 -48 -23 -44 -11 2 -19 8 -16 13 3 6 9 9 13 7 5 -1
6 7 2 18 -7 23 7 27 24 6z m735 5 c8 -13 -4 -42 -15 -35 -12 7 -12 44 0 44 6
0 12 -4 15 -9z m-840 -67 c3 -8 2 -12 -4 -9 -6 3 -10 10 -10 16 0 14 7 11 14
-7z m2003 -26 c-3 -8 -6 -5 -6 6 -1 11 2 17 5 13 3 -3 4 -12 1 -19z m-2127
-20 c0 -10 5 -18 10 -18 6 0 10 -9 10 -20 0 -11 2 -20 5 -20 11 0 55 52 50 61
-4 5 -2 9 4 9 5 0 11 -6 14 -12 3 -10 7 -10 18 -1 11 9 17 7 26 -14 11 -23 10
-25 -7 -20 -16 4 -20 0 -19 -21 0 -24 1 -25 9 -7 8 19 9 19 9 -2 1 -12 -6 -29
-15 -37 -8 -9 -11 -16 -5 -16 6 0 11 -16 11 -35 0 -24 -5 -35 -15 -35 -7 0
-18 -7 -22 -15 -6 -10 -13 -11 -23 -5 -11 7 -11 10 -2 10 7 0 10 5 7 10 -10
16 -25 12 -26 -7 -1 -10 -6 -1 -11 20 -8 28 -14 37 -25 32 -9 -3 -22 3 -29 12
-12 17 -13 16 -14 -4 0 -13 -4 -23 -10 -23 -5 0 -10 11 -10 24 0 14 5 28 10
31 6 3 10 21 10 39 0 26 -5 35 -22 39 -27 8 -38 -1 -18 -13 20 -13 10 -12 -29
1 -26 9 -29 14 -20 25 7 8 20 12 30 9 12 -4 21 -1 25 8 8 23 74 18 74 -5z
m227 -51 c-3 -8 7 -18 24 -26 16 -7 29 -20 30 -29 0 -11 2 -12 6 -4 2 6 11 12
19 12 8 0 14 7 14 15 0 8 5 15 10 15 6 0 10 -9 10 -20 0 -12 7 -20 18 -20 14
0 15 -2 2 -10 -10 -6 -11 -10 -2 -10 7 0 12 -14 12 -37 0 -28 3 -34 10 -23 11
18 25 6 16 -15 -9 -23 -40 -14 -44 13 -5 37 -22 14 -23 -31 0 -38 -1 -39 -10
-18 -5 14 -7 31 -5 38 6 15 -10 18 -19 3 -4 -6 -10 -8 -15 -5 -4 3 -13 -2 -20
-11 -7 -8 -19 -13 -27 -10 -20 8 -16 -8 10 -35 26 -29 34 -84 10 -74 -9 3 -24
-2 -33 -10 -16 -15 -18 -14 -24 9 -3 13 -18 39 -33 56 -22 26 -24 33 -12 41
12 9 11 12 -3 22 -16 10 -16 13 0 39 14 24 14 33 4 60 -16 44 5 78 49 78 22 0
30 -4 26 -13z m233 -67 c0 -5 -4 -10 -10 -10 -5 0 -10 5 -10 10 0 6 5 10 10
10 6 0 10 -4 10 -10z m13 -44 c10 -8 14 -17 9 -20 -5 -3 -8 -18 -6 -33 2 -19
0 -15 -7 10 -6 20 -15 37 -20 37 -5 0 -9 5 -9 10 0 14 11 12 33 -4z m1674 -28
c-3 -8 -6 -5 -6 6 -1 11 2 17 5 13 3 -3 4 -12 1 -19z m-1623 -13 c-4 -8 -8
-15 -10 -15 -2 0 -4 7 -4 15 0 8 4 15 10 15 5 0 7 -7 4 -15z m90 -6 c-6 -11
-24 -2 -24 11 0 5 7 7 15 4 8 -4 12 -10 9 -15z m11 -42 c0 -26 -20 -25 -23 2
-3 16 1 22 10 19 7 -3 13 -12 13 -21z m-337 -19 c0 -30 -1 -31 -9 -10 -5 13
-7 28 -3 33 9 15 11 11 12 -23z m1699 -18 c1 -11 -1 -20 -5 -20 -10 0 -32 37
-25 43 10 11 29 -4 30 -23z m-1522 10 c3 -5 -1 -10 -9 -10 -9 0 -16 5 -16 10
0 6 4 10 9 10 6 0 13 -4 16 -10z m1550 -30 c-4 -12 -9 -19 -12 -17 -3 3 -2 15
2 27 4 12 9 19 12 17 3 -3 2 -15 -2 -27z m-1385 -30 c0 -11 -4 -20 -10 -20 -5
0 -10 9 -10 20 0 11 5 20 10 20 6 0 10 -9 10 -20z m-40 6 c0 -3 -4 -8 -10 -11
-5 -3 -10 -1 -10 4 0 6 5 11 10 11 6 0 10 -2 10 -4z m104 -42 c3 -9 2 -23 -3
-31 -6 -12 -9 -8 -13 16 -5 32 5 42 16 15z m-44 -46 c0 -10 -4 -18 -10 -18 -5
0 -10 15 -10 33 0 24 3 28 10 17 5 -8 10 -23 10 -32z m60 -38 c0 -11 -2 -20
-4 -20 -2 0 -6 9 -9 20 -3 11 -1 20 4 20 5 0 9 -9 9 -20z m1040 -10 c0 -5 -2
-10 -4 -10 -3 0 -8 5 -11 10 -3 6 -1 10 4 10 6 0 11 -4 11 -10z m24 -56 c-33
-17 -34 -17 -34 0 0 17 18 25 43 18 15 -4 14 -7 -9 -18z m-99 -4 c3 -5 1 -10
-4 -10 -6 0 -11 5 -11 10 0 6 2 10 4 10 3 0 8 -4 11 -10z m-105 -52 c0 -19 -2
-20 -10 -8 -5 8 -10 13 -11 10 -9 -49 -13 -57 -24 -41 -3 6 0 11 7 11 10 0 10
2 -1 9 -19 12 -6 41 19 41 14 0 20 -7 20 -22z m9 -287 c145 0 262 -3 260 -6
-7 -6 -910 -10 -1244 -5 l-270 5 305 5 c168 3 391 4 495 4 105 -1 309 -2 454
-3z m-2632 -7 c-3 -3 -12 -4 -19 -1 -8 3 -5 6 6 6 11 1 17 -2 13 -5z m686 -1
c-13 -2 -33 -2 -45 0 -13 2 -3 4 22 4 25 0 35 -2 23 -4z m85 0 c-10 -2 -28 -2
-40 0 -13 2 -5 4 17 4 22 1 32 -1 23 -4z m75 0 c-7 -2 -19 -2 -25 0 -7 3 -2 5
12 5 14 0 19 -2 13 -5z m80 0 c-13 -2 -33 -2 -45 0 -13 2 -3 4 22 4 25 0 35
-2 23 -4z m310 0 c-51 -2 -135 -2 -185 0 -51 1 -10 3 92 3 102 0 143 -2 93 -3z
m-2201 -228 c8 -17 19 -25 37 -25 15 0 37 -7 49 -16 21 -14 22 -22 22 -154 0
-113 -3 -142 -16 -154 -13 -13 -45 -16 -193 -16 -124 0 -181 4 -189 12 -8 8
-12 56 -12 152 0 157 7 176 65 176 24 0 35 6 43 25 11 24 16 25 97 25 81 0 86
-1 97 -25z m5316 -10 c2 -2 -47 -89 -109 -195 -61 -105 -115 -188 -119 -183
-4 4 -17 53 -30 108 l-23 100 -78 81 c-44 44 -79 83 -79 87 0 3 26 7 58 9 64
3 375 -2 380 -7z m-1230 -73 c3 -16 -2 -22 -17 -22 -24 0 -33 13 -25 35 9 23
38 14 42 -13z m-3200 -37 c-2 -5 -19 -10 -38 -10 -31 0 -35 -3 -38 -27 -3 -26
-1 -28 32 -28 20 0 36 -4 36 -10 0 -5 -16 -10 -35 -10 -32 0 -35 -2 -35 -30 0
-28 2 -30 39 -30 22 0 43 -4 46 -10 4 -6 -17 -10 -54 -10 l-61 0 0 90 0 91 55
-3 c31 -2 54 -7 53 -13z m314 0 c0 -5 -5 -11 -11 -13 -6 -2 -11 4 -11 13 0 9
5 15 11 13 6 -2 11 -8 11 -13z m-182 -54 c16 -31 13 -111 -4 -111 -11 0 -16
15 -18 53 -3 44 -6 52 -23 52 -17 0 -20 -8 -23 -52 -2 -38 -7 -53 -18 -53 -11
0 -14 15 -14 65 l0 65 45 0 c34 0 47 -5 55 -19z m60 -27 c14 -50 22 -48 40 9
10 33 30 51 30 28 0 -23 -44 -121 -55 -121 -10 0 -45 90 -45 118 0 29 19 8 30
-34z m125 -19 c0 -37 -5 -60 -13 -63 -9 -3 -12 14 -12 63 0 49 3 66 13 62 8
-2 12 -24 12 -62z m123 53 c7 -7 12 -36 12 -66 l0 -53 -47 3 c-42 3 -48 6 -51
27 -4 29 20 51 55 51 13 0 23 5 23 10 0 17 -31 24 -50 12 -22 -13 -34 -4 -19
15 14 16 61 17 77 1z m112 3 c0 -5 -9 -11 -20 -14 -17 -4 -20 -14 -20 -57 0
-37 -4 -50 -12 -48 -13 5 -23 89 -14 114 6 15 66 20 66 5z m258 -58 c2 -37 -1
-63 -7 -63 -5 0 -11 24 -13 53 -3 48 -5 52 -28 52 -23 0 -25 -4 -28 -52 -4
-63 -22 -71 -22 -10 0 51 -11 70 -36 65 -15 -2 -20 -14 -22 -56 -4 -74 -22
-65 -22 13 l0 64 88 -2 87 -2 3 -62z m136 45 c27 -38 20 -48 -30 -48 -38 0
-45 -3 -42 -17 3 -14 13 -18 41 -17 41 1 49 -12 15 -25 -30 -11 -55 -3 -73 22
-32 45 -5 107 45 107 18 0 34 -8 44 -22z m136 3 c16 -31 13 -111 -5 -111 -12
0 -15 13 -15 56 0 52 -1 55 -22 52 -20 -3 -23 -10 -26 -55 -2 -38 -7 -53 -18
-53 -11 0 -14 15 -14 65 l0 65 45 0 c34 0 47 -5 55 -19z m114 13 c9 -3 16 -12
16 -20 0 -16 -16 -19 -25 -4 -9 15 -45 12 -45 -4 0 -7 15 -17 33 -22 25 -8 33
-16 35 -37 3 -21 -2 -29 -19 -36 -28 -10 -54 -4 -70 15 -15 18 -3 32 13 16 16
-16 61 -16 56 1 -2 6 -19 18 -36 26 -30 14 -43 46 -25 64 8 9 46 9 67 1z m134
-6 c5 -7 12 -37 14 -66 l5 -53 -51 3 c-45 3 -51 6 -54 26 -5 31 15 52 49 52
21 0 27 4 23 15 -7 18 -35 20 -52 3 -17 -17 -28 -2 -12 17 15 18 64 20 78 3z
m152 -67 c0 -51 -4 -82 -12 -88 -21 -16 -54 -21 -72 -11 -27 15 -18 27 18 21
25 -4 35 -1 39 11 5 13 -1 16 -28 16 -38 0 -55 20 -55 65 0 49 16 65 65 65
l45 0 0 -79z m130 60 c20 -39 13 -51 -31 -51 -33 0 -40 -3 -37 -17 3 -13 13
-18 36 -16 44 2 37 -21 -7 -25 -54 -6 -81 56 -45 106 20 28 69 30 84 3z m216
7 c3 -5 8 -34 11 -64 5 -45 3 -54 -11 -54 -13 0 -16 11 -16 55 0 52 -1 55 -25
55 -14 0 -26 -6 -27 -12 0 -7 -2 -24 -3 -38 -1 -14 -3 -33 -3 -42 -4 -40 -21
-14 -24 35 -3 48 -5 52 -28 52 -22 0 -25 -5 -27 -35 -1 -19 -2 -43 -2 -52 -1
-10 -5 -18 -11 -18 -6 0 -10 28 -10 64 l0 65 85 -1 c47 0 88 -5 91 -10z m1372
-20 c-4 -27 -33 -36 -42 -13 -8 22 1 35 25 35 15 0 20 -6 17 -22z m0 -102 c6
-29 -15 -43 -35 -24 -14 14 -14 20 -3 33 16 19 34 15 38 -9z m-633 -317 c5 -5
-459 -9 -1245 -8 -690 0 -1244 4 -1230 8 14 4 513 8 1110 10 596 1 1085 3
1086 4 7 7 271 -6 279 -14z m-902 -676 c-7 -2 -19 -2 -25 0 -7 3 -2 5 12 5 14
0 19 -2 13 -5z m-1493 -182 c0 -72 -4 -132 -8 -135 -10 -6 -224 116 -226 129
-1 5 39 33 88 62 50 29 94 57 100 63 5 5 18 10 28 10 16 0 18 -11 18 -129z
m3179 115 c8 -9 11 -52 9 -127 l-3 -114 -119 -3 c-89 -2 -121 1 -128 10 -13
21 -10 222 4 236 18 18 222 16 237 -2z m-1633 -23 c27 -17 54 -68 54 -99 0
-31 -33 -85 -61 -99 -87 -46 -192 27 -175 120 17 88 108 127 182 78z m-230
-22 c-9 -16 -17 -49 -18 -73 l-1 -43 -4 39 c-4 36 23 123 34 112 3 -2 -3 -18
-11 -35z m352 -71 l-1 -45 -6 50 c-4 28 -12 60 -19 72 -7 12 -12 25 -12 30 1
4 9 -8 20 -27 12 -21 19 -53 18 -80z m-336 -107 c6 -7 6 -13 1 -13 -11 0 -33
44 -32 63 0 7 5 1 10 -12 5 -14 15 -31 21 -38z m318 17 c-7 -16 -16 -30 -20
-30 -4 0 0 15 9 34 20 41 29 38 11 -4z m-103 -92 c-7 -4 -37 -8 -67 -8 -30 0
-60 4 -67 8 -6 4 24 7 67 7 43 0 73 -3 67 -7z"/>
<path d="M2935 7330 c-3 -5 -1 -10 4 -10 6 0 11 5 11 10 0 6 -2 10 -4 10 -3 0
-8 -4 -11 -10z"/>
<path d="M4240 6015 c0 -8 5 -15 10 -15 6 0 10 7 10 15 0 8 -4 15 -10 15 -5 0
-10 -7 -10 -15z"/>
<path d="M4518 5953 c7 -3 16 -2 19 1 4 3 -2 6 -13 5 -11 0 -14 -3 -6 -6z"/>
<path d="M4008 5913 c6 -2 18 -2 25 0 6 3 1 5 -13 5 -14 0 -19 -2 -12 -5z"/>
<path d="M4380 5750 c24 -21 40 -18 40 6 0 9 -11 14 -32 14 l-31 0 23 -20z"/>
<path d="M4940 5690 c0 -5 5 -10 10 -10 6 0 10 5 10 10 0 6 -4 10 -10 10 -5 0
-10 -4 -10 -10z"/>
<path d="M4814 5633 c-3 -10 -10 -26 -15 -35 -12 -24 -11 -37 2 -15 5 9 19 17
30 17 15 0 20 6 17 22 -4 28 -26 35 -34 11z"/>
<path d="M4758 5593 c7 -3 16 -2 19 1 4 3 -2 6 -13 5 -11 0 -14 -3 -6 -6z"/>
<path d="M4735 5570 c3 -5 11 -10 16 -10 6 0 7 5 4 10 -3 6 -11 10 -16 10 -6
0 -7 -4 -4 -10z"/>
<path d="M4900 5500 c-13 -9 -13 -10 0 -10 8 0 22 5 30 10 13 9 13 10 0 10 -8
0 -22 -5 -30 -10z"/>
<path d="M3370 5410 c0 -5 7 -10 16 -10 8 0 12 5 9 10 -3 6 -10 10 -16 10 -5
0 -9 -4 -9 -10z"/>
<path d="M3320 5290 c0 -5 5 -10 11 -10 5 0 7 5 4 10 -3 6 -8 10 -11 10 -2 0
-4 -4 -4 -10z"/>
<path d="M3570 5291 c0 -5 7 -11 14 -14 10 -4 13 -1 9 9 -6 15 -23 19 -23 5z"/>
<path d="M3425 5270 c3 -5 13 -10 21 -10 8 0 14 5 14 10 0 6 -9 10 -21 10 -11
0 -17 -4 -14 -10z"/>
<path d="M3683 4905 c-3 -9 -3 -18 0 -21 9 -9 27 6 27 22 0 19 -19 18 -27 -1z"/>
<path d="M3662 4837 c-9 -11 -10 -17 -2 -22 15 -9 23 -1 18 21 -3 15 -4 16
-16 1z"/>
<path d="M5030 5296 c0 -9 5 -16 11 -16 5 0 7 -4 4 -10 -3 -5 -1 -10 5 -10 15
0 8 42 -7 48 -7 2 -13 -3 -13 -12z"/>
<path d="M5090 5301 c0 -10 19 -25 25 -20 1 2 -3 10 -11 17 -8 7 -14 8 -14 3z"/>
<path d="M4900 5046 c0 -2 7 -9 15 -16 9 -7 15 -8 15 -2 0 5 -7 12 -15 16 -8
3 -15 4 -15 2z"/>
<path d="M4858 4883 c7 -3 16 -2 19 1 4 3 -2 6 -13 5 -11 0 -14 -3 -6 -6z"/>
<path d="M4810 4730 c0 -5 5 -10 11 -10 5 0 7 5 4 10 -3 6 -8 10 -11 10 -2 0
-4 -4 -4 -10z"/>
<path d="M4060 4810 c0 -19 44 -40 57 -26 4 3 -3 6 -15 6 -12 0 -21 3 -21 8 3
18 -2 32 -11 32 -5 0 -10 -9 -10 -20z"/>
<path d="M3950 4614 c0 -31 23 -28 28 4 2 15 -2 22 -12 22 -11 0 -16 -9 -16
-26z"/>
<path d="M3920 4592 c0 -5 -15 -14 -34 -22 -29 -11 -33 -16 -26 -34 9 -23 43
-24 78 -2 9 5 17 -2 25 -23 6 -17 17 -31 24 -31 7 0 13 -4 13 -10 0 -14 32
-12 54 5 18 13 14 41 -5 30 -5 -4 -12 1 -15 9 -7 19 -34 21 -35 4 0 -7 -5 -1
-11 15 -6 16 -17 27 -29 27 -12 0 -19 7 -19 20 0 11 -4 20 -10 20 -5 0 -10 -4
-10 -8z"/>
<path d="M3868 4473 c7 -3 16 -2 19 1 4 3 -2 6 -13 5 -11 0 -14 -3 -6 -6z"/>
<path d="M3900 4460 c0 -5 5 -10 10 -10 6 0 10 5 10 10 0 6 -4 10 -10 10 -5 0
-10 -4 -10 -10z"/>
<path d="M4160 4434 c0 -8 5 -12 10 -9 6 4 8 11 5 16 -9 14 -15 11 -15 -7z"/>
<path d="M5071 4034 c0 -11 3 -14 6 -6 3 7 2 16 -1 19 -3 4 -6 -2 -5 -13z"/>
<path d="M3840 3935 c0 -9 9 -15 21 -15 18 0 19 2 9 15 -7 8 -16 15 -21 15 -5
0 -9 -7 -9 -15z"/>
<path d="M3968 3848 c-6 -18 3 -58 13 -58 5 0 9 5 9 11 0 5 4 8 9 5 10 -6 32
39 24 48 -11 11 -51 6 -55 -6z"/>
<path d="M4606 3795 c-29 -45 -6 -84 28 -49 18 18 18 65 0 71 -6 2 -19 -8 -28
-22z"/>
<path d="M4025 3730 c3 -5 8 -10 11 -10 2 0 4 5 4 10 0 6 -5 10 -11 10 -5 0
-7 -4 -4 -10z"/>
<path d="M4050 3670 c0 -5 7 -10 15 -10 8 0 15 5 15 10 0 6 -7 10 -15 10 -8 0
-15 -4 -15 -10z"/>
<path d="M3997 3483 c-4 -3 -7 -11 -7 -17 0 -6 5 -5 12 2 6 6 9 14 7 17 -3 3
-9 2 -12 -2z"/>
<path d="M3915 3359 c-11 -16 -1 -19 13 -3 7 8 8 14 3 14 -5 0 -13 -5 -16 -11z"/>
<path d="M3870 3290 c0 -5 5 -10 10 -10 6 0 10 5 10 10 0 6 -4 10 -10 10 -5 0
-10 -4 -10 -10z"/>
<path d="M4825 3290 c-3 -5 -1 -10 4 -10 6 0 11 5 11 10 0 6 -2 10 -4 10 -3 0
-8 -4 -11 -10z"/>
<path d="M4618 3283 c7 -3 16 -2 19 1 4 3 -2 6 -13 5 -11 0 -14 -3 -6 -6z"/>
<path d="M3857 3174 c-10 -10 -9 -82 2 -88 11 -7 23 76 12 87 -4 4 -10 4 -14
1z"/>
<path d="M3806 3072 c-8 -14 4 -72 16 -72 16 0 19 26 4 54 -7 15 -17 23 -20
18z"/>
<path d="M4650 3060 c20 -13 33 -13 25 0 -3 6 -14 10 -23 10 -15 0 -15 -2 -2
-10z"/>
<path d="M3290 3030 c0 -5 7 -10 15 -10 8 0 15 5 15 10 0 6 -7 10 -15 10 -8 0
-15 -4 -15 -10z"/>
<path d="M4194 3019 c-7 -12 15 -31 28 -23 9 6 -1 34 -12 34 -5 0 -12 -5 -16
-11z"/>
<path d="M3672 2900 c0 -14 2 -19 5 -12 2 6 2 18 0 25 -3 6 -5 1 -5 -13z"/>
<path d="M3380 2880 c0 -5 9 -10 20 -10 11 0 20 5 20 10 0 6 -9 10 -20 10 -11
0 -20 -4 -20 -10z"/>
<path d="M3597 2865 c-4 -8 -3 -16 1 -19 13 -8 35 11 28 23 -10 15 -23 14 -29
-4z"/>
<path d="M3354 2839 c-3 -6 1 -18 10 -27 12 -12 22 -14 43 -6 39 14 43 35 4
28 -20 -4 -31 -2 -31 5 0 14 -17 14 -26 0z"/>
<path d="M3894 2815 c-9 -14 -25 -25 -35 -25 -23 0 -25 -23 -3 -44 16 -17 89
-22 98 -7 3 5 -1 14 -9 21 -11 9 -12 17 -5 30 14 25 13 28 -10 40 -16 9 -22 6
-36 -15z"/>
<path d="M4032 2824 c3 -13 11 -18 26 -17 13 2 21 -2 19 -10 -1 -7 10 -13 26
-15 15 -2 27 0 27 5 -1 13 -44 41 -75 49 -23 6 -26 4 -23 -12z"/>
<path d="M3780 2782 c0 -26 4 -41 10 -37 13 8 13 45 0 65 -7 11 -10 3 -10 -28z"/>
<path d="M4154 2804 c3 -8 6 -18 6 -20 0 -2 5 -4 10 -4 16 0 11 27 -6 34 -12
5 -15 2 -10 -10z"/>
<path d="M3633 2743 c-3 -10 -8 -21 -10 -25 -1 -3 6 -4 17 -1 11 3 20 14 20
24 0 24 -19 25 -27 2z"/>
<path d="M3576 2713 c4 -21 10 -45 15 -54 6 -11 3 -21 -7 -29 -15 -13 -15 -33
0 -30 5 1 13 -4 18 -12 5 -8 6 -4 2 13 -3 15 -1 30 5 33 7 5 11 -7 12 -33 2
-64 3 -66 23 -69 16 -3 18 0 12 19 -4 13 -12 49 -18 79 -6 30 -16 60 -23 65
-7 6 -15 20 -19 33 -12 37 -28 25 -20 -15z"/>
<path d="M4171 2704 c6 -8 24 -14 40 -14 18 0 29 5 29 14 0 9 -13 13 -40 13
-33 0 -38 -2 -29 -13z"/>
<path d="M3664 2699 c-3 -6 -1 -16 5 -22 8 -8 11 -5 11 11 0 24 -5 28 -16 11z"/>
<path d="M4305 2686 c5 -19 -10 -46 -26 -46 -5 0 -9 7 -9 15 0 8 -5 15 -11 15
-6 0 -9 -12 -7 -27 3 -31 26 -38 44 -14 9 11 12 8 17 -18 4 -18 11 -30 17 -26
12 7 2 61 -17 95 -8 14 -12 17 -8 6z"/>
<path d="M3700 2635 c0 -8 7 -15 15 -15 8 0 15 4 15 9 0 5 -7 11 -15 15 -9 3
-15 0 -15 -9z"/>
<path d="M4270 2561 c0 -12 5 -21 10 -21 6 0 10 6 10 14 0 8 -4 18 -10 21 -5
3 -10 -3 -10 -14z"/>
<path d="M4130 2490 c0 -5 5 -10 10 -10 6 0 10 5 10 10 0 6 -4 10 -10 10 -5 0
-10 -4 -10 -10z"/>
<path d="M3873 2367 c2 -7 21 -13 41 -15 28 -2 37 0 34 9 -2 7 -21 14 -42 16
-25 1 -36 -2 -33 -10z"/>
<path d="M4004 2339 c-3 -6 -19 -9 -35 -5 -31 6 -42 -3 -29 -23 9 -16 83 -8
88 9 2 5 11 10 20 11 14 0 13 2 -3 9 -27 12 -33 12 -41 -1z"/>
<path d="M5167 3401 c-31 -20 -26 -31 14 -31 30 0 45 23 25 39 -8 7 -20 5 -39
-8z"/>
<path d="M3190 3540 c0 -11 7 -20 15 -20 8 0 15 6 15 14 0 8 -7 16 -15 20 -10
4 -15 -1 -15 -14z"/>
<path d="M3465 3450 c-3 -5 -1 -10 4 -10 6 0 11 5 11 10 0 6 -2 10 -4 10 -3 0
-8 -4 -11 -10z"/>
<path d="M3370 3391 c0 -5 7 -14 15 -21 13 -10 15 -9 15 9 0 12 -6 21 -15 21
-8 0 -15 -4 -15 -9z"/>
<path d="M3492 3348 c-17 -17 -15 -35 4 -42 21 -8 25 -4 28 28 3 28 -12 34
-32 14z"/>
<path d="M3585 3320 c3 -5 8 -10 11 -10 2 0 4 5 4 10 0 6 -5 10 -11 10 -5 0
-7 -4 -4 -10z"/>
<path d="M2680 2890 c0 -5 5 -10 10 -10 6 0 10 5 10 10 0 6 -4 10 -10 10 -5 0
-10 -4 -10 -10z"/>
<path d="M2850 2920 c0 -5 5 -10 10 -10 6 0 10 5 10 10 0 6 -4 10 -10 10 -5 0
-10 -4 -10 -10z"/>
<path d="M497 1790 c-30 -24 -50 -78 -42 -113 4 -14 20 -38 36 -53 24 -23 39
-29 75 -29 39 0 50 5 75 33 42 47 41 108 -2 151 -38 38 -101 43 -142 11z m131
-36 c26 -30 28 -61 5 -94 -23 -34 -33 -40 -68 -40 -43 0 -73 25 -81 65 -16 87
84 135 144 69z"/>
<path d="M5600 1860 c0 -3 24 -29 53 -58 l53 -53 92 52 c50 28 94 55 98 60 4
6 -49 9 -145 8 -83 -2 -151 -5 -151 -9z"/>
<path d="M5820 1783 c-52 -31 -96 -56 -97 -57 -2 -2 14 -75 28 -130 l10 -38
81 137 c44 75 78 138 76 140 -1 2 -46 -22 -98 -52z"/>
<path d="M1924 1659 c-3 -6 -2 -15 4 -21 15 -15 46 -5 50 15 3 12 -3 17 -22
17 -14 0 -28 -5 -32 -11z"/>
<path d="M2427 1714 c-15 -15 -6 -24 24 -24 20 0 29 4 27 13 -5 14 -40 21 -51
11z"/>
<path d="M2815 1660 c-9 -15 3 -30 25 -30 15 0 30 18 30 36 0 9 -49 3 -55 -6z"/>
<path d="M2952 1708 c-26 -26 -10 -78 24 -78 25 0 39 30 32 67 -4 22 -38 29
-56 11z"/>
<path d="M3097 1713 c-15 -14 -6 -23 23 -23 22 0 28 4 24 15 -6 15 -35 20 -47
8z"/>
<path d="M4000 7380 c0 -5 12 -10 28 -9 24 0 25 1 7 9 -27 12 -35 12 -35 0z"/>
<path d="M2560 7049 c0 -5 5 -9 10 -9 6 0 10 -6 10 -13 0 -7 10 -21 21 -31 27
-23 41 -6 26 34 -8 20 -17 27 -39 28 -15 0 -28 -4 -28 -9z"/>
<path d="M92 6808 c5 -15 37 -18 41 -3 1 6 -9 12 -22 13 -16 3 -22 -1 -19 -10z"/>
<path d="M766 6594 c-4 -9 -4 -19 -1 -22 2 -3 7 3 11 12 4 9 4 19 1 22 -2 3
-7 -3 -11 -12z"/>
<path d="M5570 6164 c1 -16 29 -60 29 -44 0 8 -6 24 -14 34 -8 11 -15 16 -15
10z"/>
<path d="M5600 6085 c0 -8 4 -15 10 -15 5 0 7 7 4 15 -4 8 -8 15 -10 15 -2 0
-4 -7 -4 -15z"/>
<path d="M1820 5219 c0 -5 5 -7 10 -4 6 3 10 8 10 11 0 2 -4 4 -10 4 -5 0 -10
-5 -10 -11z"/>
<path d="M1497 4513 c-4 -3 -7 -11 -7 -17 0 -6 5 -5 12 2 6 6 9 14 7 17 -3 3
-9 2 -12 -2z"/>
</g>
</svg>
