<?xml version="1.0" standalone="no"?>
<!DOCTYPE svg PUBLIC "-//W3C//DTD SVG 20010904//EN"
 "http://www.w3.org/TR/2001/REC-SVG-20010904/DTD/svg10.dtd">
<svg version="1.0" xmlns="http://www.w3.org/2000/svg"
 width="778.000000pt" height="1280.000000pt" viewBox="0 0 778.000000 1280.000000"
 preserveAspectRatio="xMidYMid meet">

<g transform="translate(0.000000,1280.000000) scale(0.100000,-0.100000)"
fill="#000000" stroke="none">
<path d="M90 12785 c-25 -30 94 -59 141 -34 17 9 21 7 26 -10 7 -27 19 -27 26
-1 3 11 10 20 15 20 6 0 14 -9 17 -20 3 -11 10 -20 15 -20 5 0 7 7 4 15 -4 9
0 15 10 15 9 0 16 -7 16 -15 0 -8 3 -15 6 -15 12 0 34 29 34 45 0 11 7 15 23
13 27 -4 30 -33 2 -33 -30 0 -33 -48 -3 -66 28 -18 133 -24 143 -10 3 6 18 11
31 11 19 0 29 8 37 30 12 32 28 43 52 34 23 -9 18 -26 -7 -22 -18 2 -24 -2
-26 -23 -3 -22 3 -28 37 -41 29 -12 42 -13 51 -4 9 8 14 8 17 -1 8 -22 32 -14
39 12 3 14 10 25 15 25 6 0 5 8 -1 19 -16 31 9 38 31 10 16 -21 23 -20 21 3
-1 3 5 12 13 18 12 10 15 9 15 -4 0 -10 8 -16 21 -16 17 0 20 4 15 23 -3 12
-6 31 -6 41 0 19 0 19 -14 1 -13 -18 -13 -18 -24 1 -10 17 -11 17 -12 2 0 -10
-7 -18 -15 -18 -8 0 -15 7 -15 15 0 10 -11 15 -35 15 -24 0 -35 -5 -35 -15 0
-8 -5 -15 -11 -15 -6 0 -9 7 -5 15 5 13 -27 15 -249 15 -175 0 -256 -3 -261
-11 -4 -7 -21 -9 -42 -5 -20 3 -41 1 -48 -4 -8 -7 -15 -5 -24 5 -16 19 -24 19
-40 0z m550 1 c0 -8 -51 -13 -56 -5 -3 5 9 9 25 9 17 0 31 -2 31 -4z m84 -42
c3 -8 2 -12 -4 -9 -6 3 -10 10 -10 16 0 14 7 11 14 -7z m46 -4 c0 -5 -4 -10
-10 -10 -5 0 -10 5 -10 10 0 6 5 10 10 10 6 0 10 -4 10 -10z m-200 -38 c0 -26
-11 -34 -27 -21 -10 9 -10 15 -2 25 16 19 29 17 29 -4z m157 -14 c-3 -7 -5 -2
-5 12 0 14 2 19 5 13 2 -7 2 -19 0 -25z m-212 2 c3 -5 -1 -10 -9 -10 -8 0 -18
5 -21 10 -3 6 1 10 9 10 8 0 18 -4 21 -10z"/>
<path d="M946 12778 c-8 -32 -7 -38 4 -38 6 0 10 6 10 14 0 7 9 16 20 19 28 7
25 27 -4 27 -16 0 -26 -7 -30 -22z"/>
<path d="M1014 12774 c5 -18 2 -24 -10 -24 -12 0 -15 -6 -10 -25 5 -20 3 -25
-13 -25 -27 0 -35 -67 -9 -76 10 -3 18 -13 18 -23 0 -10 9 -26 20 -36 26 -23
48 -6 46 35 -2 38 -10 45 -52 41 -18 -1 -34 2 -34 7 0 16 36 42 58 42 36 0 50
-24 46 -81 l-3 -51 29 4 c25 4 28 2 19 -14 -10 -18 -16 -21 -58 -22 -24 -1
-51 -30 -39 -42 4 -3 14 1 23 9 11 11 25 14 46 10 21 -4 35 0 49 12 20 18 55
14 48 -7 -3 -9 -24 -25 -46 -34 -6 -3 32 -74 40 -74 5 0 6 17 2 38 -5 33 -3
39 20 51 28 15 51 6 26 -9 -10 -7 -11 -10 -2 -10 6 0 12 -4 12 -10 0 -5 -9
-10 -20 -10 -34 0 -22 -15 15 -17 33 -3 49 11 23 19 -19 7 1 28 27 28 31 0 43
-20 16 -27 -27 -7 -27 -19 -1 -26 29 -7 25 -27 -6 -27 -21 0 -25 -3 -19 -17 4
-10 10 -28 13 -41 3 -17 10 -22 23 -19 11 3 16 0 12 -8 -5 -16 34 -58 46 -50
15 9 31 -19 20 -35 -8 -11 -12 -12 -16 -2 -2 6 -11 12 -19 12 -18 0 -18 -8 0
-25 16 -16 56 -9 56 10 0 7 7 15 15 19 8 3 15 12 15 21 0 19 9 19 34 0 25 -19
46 -19 46 0 0 9 -9 15 -22 15 -17 0 -19 3 -10 12 20 20 142 21 164 1 27 -24
23 -53 -7 -53 -14 0 -25 4 -25 10 0 5 -13 7 -32 3 -26 -5 -30 -4 -25 10 4 11
1 17 -8 17 -9 0 -12 -6 -8 -16 4 -10 -1 -17 -16 -21 -11 -3 -21 -11 -21 -19 0
-19 -20 -28 -33 -15 -14 14 -47 15 -47 1 0 -6 4 -9 8 -8 11 4 82 -35 82 -44 0
-10 -33 3 -42 16 -5 8 -13 7 -27 -1 -15 -10 -21 -10 -24 0 -4 9 -7 9 -18 0
-11 -11 -10 -13 2 -13 24 0 52 -37 46 -60 -3 -13 0 -20 8 -20 11 0 11 -7 4
-32 -9 -33 -29 -61 -29 -41 0 6 -14 16 -30 23 -17 7 -37 21 -44 32 -9 12 -16
16 -21 9 -10 -17 -28 -13 -21 5 5 12 1 14 -17 8 -30 -9 -32 -11 -19 -26 16
-21 -7 -33 -70 -36 -48 -3 -58 -1 -67 17 -11 20 2 41 14 21 3 -5 13 -10 21
-10 11 0 14 8 10 32 -6 39 -20 48 -59 37 -35 -10 -47 -20 -30 -26 10 -3 9 -8
-2 -20 -12 -12 -19 -12 -30 -3 -8 6 -24 9 -35 5 -15 -5 -26 -1 -35 12 -12 15
-17 16 -34 5 -18 -10 -21 -10 -21 4 0 11 -6 14 -20 9 -11 -4 -20 -2 -20 4 0 6
-7 11 -15 11 -13 0 -14 -4 -5 -20 10 -18 8 -20 -29 -20 -32 0 -44 5 -57 25
-18 27 -39 33 -47 13 -4 -10 -7 -10 -18 0 -12 12 -7 20 31 53 l45 40 -57 -7
c-50 -5 -58 -4 -58 10 0 9 5 16 12 16 6 0 9 2 6 5 -10 10 -36 -6 -41 -26 -3
-11 -14 -19 -25 -19 -11 0 -28 -8 -37 -17 -13 -12 -21 -14 -34 -6 -25 16 -118
0 -135 -23 -13 -17 -18 -18 -48 -6 -50 20 -61 19 -75 -8 l-13 -25 0 28 c0 20
-5 27 -19 27 -11 0 -21 4 -23 10 -2 6 -29 5 -77 -4 -41 -8 -80 -12 -86 -9 -7
2 -16 -1 -20 -6 -3 -6 -11 -9 -16 -6 -17 11 -9 32 16 43 34 16 32 32 -4 32
-23 0 -30 -5 -33 -22 -2 -13 -13 -27 -25 -33 l-23 -10 0 -1287 c0 -1019 3
-1288 12 -1292 11 -5 11 -7 0 -12 -17 -8 -17 -124 1 -124 8 0 8 -3 -2 -9 -21
-14 -5 -41 25 -41 19 0 25 -4 20 -15 -4 -12 3 -15 29 -15 19 0 38 0 42 1 3 0
10 -6 15 -15 11 -20 28 -21 28 -1 0 17 74 69 78 55 7 -20 28 -10 47 22 12 22
20 28 23 18 3 -8 0 -16 -7 -18 -14 -5 -15 -52 -1 -52 6 0 10 -9 10 -20 0 -25
41 -28 60 -5 10 12 15 13 21 4 6 -10 11 -10 23 0 9 7 27 11 40 9 17 -4 23 -1
19 9 -6 15 23 18 32 3 9 -14 42 -12 48 3 4 9 7 9 18 -1 11 -10 17 -8 31 10 9
13 20 19 24 15 4 -4 3 -12 -4 -19 -17 -17 11 -38 50 -38 25 0 39 8 57 30 13
17 27 30 31 30 15 0 21 -33 8 -42 -10 -6 -10 -8 2 -7 18 0 59 17 46 18 -10 1
23 41 34 41 3 0 5 -14 4 -31 -2 -35 16 -47 49 -31 18 9 19 11 5 11 -27 1 -22
21 5 21 13 0 28 5 35 12 9 9 15 9 24 0 15 -15 58 -16 58 -2 0 6 -4 10 -10 10
-5 0 -10 5 -10 10 0 6 11 8 25 4 18 -4 25 -2 25 9 0 18 21 27 49 20 14 -3 23
0 27 11 8 20 43 21 50 1 9 -22 27 -18 21 5 -4 17 0 20 31 20 21 0 46 7 56 15
11 8 28 15 38 15 10 0 18 7 18 15 0 8 8 15 19 15 11 0 25 13 35 33 l16 32 1
-35 c1 -22 3 -27 6 -15 7 29 43 65 65 65 23 0 23 29 1 46 -16 12 -16 13 -1 14
9 0 18 -5 20 -11 5 -16 48 -1 48 17 0 8 7 14 15 14 9 0 15 9 15 25 0 15 6 25
14 25 8 0 13 8 12 17 0 10 9 19 24 23 17 4 25 13 24 28 0 20 1 20 34 6 45 -19
58 -18 41 3 -12 15 -12 16 4 10 15 -5 16 -4 8 10 -7 14 -3 21 20 35 16 10 37
18 45 18 10 0 14 6 10 15 -6 17 19 21 29 5 3 -5 13 -10 22 -10 12 0 14 7 9 34
-4 19 -2 37 3 41 6 3 8 12 4 20 -3 10 1 15 12 15 12 0 15 -5 10 -21 -6 -19 -5
-20 7 -8 8 7 13 20 11 29 -2 8 10 30 27 49 16 18 30 40 30 47 0 8 6 14 14 14
7 0 25 11 40 25 31 28 30 28 73 16 24 -7 35 -6 44 5 9 11 7 14 -15 14 -28 0
-35 17 -10 27 8 3 14 15 13 27 -2 35 0 39 16 26 22 -18 31 -4 15 25 -9 17 -22
25 -39 25 -22 0 -26 4 -26 30 0 25 3 28 23 23 12 -3 22 -1 22 6 0 6 -6 8 -14
5 -7 -3 -16 1 -19 9 -7 18 27 52 42 42 7 -4 10 17 9 64 -2 64 8 104 19 74 7
-20 22 -15 17 5 -6 25 16 48 53 56 24 6 34 3 42 -11 6 -11 11 -13 11 -5 0 8 7
11 19 7 44 -13 65 21 40 67 -7 14 -8 23 -1 30 7 7 13 -4 17 -35 8 -53 38 -73
62 -41 16 22 16 26 -2 50 -13 18 -14 17 -15 -18 0 -21 -4 -38 -9 -38 -5 0 -8
33 -6 73 2 57 6 73 19 75 9 2 14 7 11 12 -3 5 -1 28 4 52 7 27 7 44 1 46 -15
5 -12 32 5 48 9 9 15 33 15 57 0 28 -3 37 -9 28 -5 -7 -14 -10 -21 -6 -9 6
-10 9 0 15 8 5 10 18 5 41 -8 36 -9 35 -30 -26 -6 -17 -9 -14 -21 20 -10 26
-11 41 -4 43 14 5 13 32 -2 33 -7 1 -20 2 -28 3 -8 0 -16 9 -18 19 -4 18 13
24 23 7 4 -7 14 -6 28 2 21 11 21 11 2 19 -11 4 -32 8 -47 8 -24 1 -28 5 -28
29 0 32 16 52 42 52 28 0 24 61 -5 88 -20 19 -26 20 -42 8 -19 -13 -55 -11
-55 5 0 4 10 15 23 24 22 17 21 17 -17 10 -21 -3 -45 -13 -54 -21 -18 -18 -36
-13 -41 11 -2 14 2 17 20 12 17 -4 29 1 46 21 21 23 25 25 36 12 14 -17 52
-40 67 -40 5 0 10 11 10 25 0 22 -3 25 -24 19 -34 -8 -41 11 -11 30 29 19 32
38 10 56 -12 10 -19 10 -27 2 -18 -18 -25 -15 -31 16 -4 21 -12 27 -32 28 -33
2 -42 11 -27 26 9 9 7 17 -11 36 -21 23 -21 24 -4 37 17 12 17 14 -4 28 -11 9
-18 20 -14 26 5 10 -14 16 -37 12 -5 0 -8 8 -8 20 0 18 -4 20 -30 14 -19 -4
-30 -3 -30 4 0 6 5 11 10 11 17 0 11 18 -7 23 -11 3 -7 5 10 6 43 2 30 37 -18
49 -16 5 -30 13 -32 19 -4 11 47 36 63 31 5 -2 9 1 9 7 0 5 -8 10 -17 10 -26
2 -32 13 -18 30 8 10 9 15 1 15 -6 0 -11 5 -11 11 0 6 7 8 15 5 10 -4 20 3 27
19 9 19 14 22 25 14 10 -9 13 -7 13 11 0 21 4 19 38 -18 22 -23 44 -42 50 -42
7 0 9 -11 6 -30 -6 -26 -4 -30 15 -30 11 0 22 -4 22 -10 1 -5 2 -13 3 -17 1
-9 44 -53 50 -53 3 0 7 14 11 30 9 42 20 37 32 -12 l11 -43 1 48 c1 27 6 47
12 47 8 0 10 -13 6 -38 -11 -63 3 -94 49 -107 36 -10 39 -14 41 -47 1 -21 -3
-40 -9 -44 -7 -5 -9 0 -6 14 4 12 2 25 -3 28 -5 3 -9 -13 -9 -35 0 -38 11 -53
24 -32 3 4 24 8 46 8 39 0 40 -1 40 -34 0 -41 26 -75 41 -52 5 8 9 17 9 22 0
4 8 2 19 -4 10 -7 16 -19 14 -28 -4 -18 27 -94 50 -124 8 -10 21 -15 30 -11
12 4 14 1 10 -15 -3 -13 4 -28 22 -45 23 -22 24 -25 9 -34 -15 -8 -15 -13 -3
-41 8 -17 17 -31 20 -31 3 0 14 -18 25 -40 10 -22 24 -40 30 -40 7 0 15 -12
18 -26 4 -15 17 -35 29 -46 15 -13 17 -18 7 -17 -35 3 -44 -1 -32 -13 7 -7 12
-19 12 -28 0 -11 8 -16 23 -16 19 1 23 -5 28 -44 5 -38 6 -40 7 -12 1 18 6 31
12 27 5 -3 7 -12 4 -20 -4 -9 4 -15 23 -18 27 -4 27 -5 6 -12 -28 -9 -29 -17
-4 -32 13 -8 17 -19 14 -37 -3 -14 -1 -26 4 -26 5 0 9 -10 9 -22 -1 -17 5 -24
22 -26 25 -4 30 -27 7 -36 -8 -3 -15 -1 -15 3 0 5 -9 7 -21 4 -18 -5 -21 -2
-19 23 3 47 1 59 -9 49 -16 -17 -17 -69 -1 -82 13 -11 12 -14 -7 -19 -32 -9
-28 -28 9 -42 22 -8 35 -8 44 -1 9 7 14 5 19 -10 7 -24 -14 -61 -32 -54 -9 4
-13 -6 -13 -36 0 -23 5 -41 10 -41 6 0 10 11 10 25 0 18 5 25 19 25 11 0 23
-4 26 -10 3 -5 14 -10 24 -10 23 0 45 -50 36 -79 -5 -17 -2 -21 15 -21 13 0
24 8 27 20 8 30 23 24 23 -10 0 -23 -5 -30 -19 -30 -11 0 -23 -4 -26 -10 -3
-6 4 -10 17 -10 18 0 20 -2 8 -10 -12 -8 -13 -13 -3 -29 6 -10 9 -22 5 -25 -3
-4 -5 -27 -3 -51 2 -42 -9 -59 -24 -35 -11 17 -24 11 -31 -15 -3 -14 -10 -25
-16 -25 -5 0 -6 -5 -2 -11 5 -8 9 -7 14 1 6 10 15 6 34 -15 16 -17 31 -25 41
-21 13 5 14 2 4 -16 -6 -12 -12 -49 -13 -82 -1 -49 -4 -60 -16 -58 -10 2 -6
-5 9 -22 24 -25 24 -26 6 -46 -12 -13 -14 -20 -6 -20 9 0 11 -11 6 -37 -5 -32
-2 -40 15 -51 17 -10 25 -10 36 -1 7 6 11 16 8 21 -4 6 -10 5 -15 -3 -12 -20
-21 -5 -26 46 -4 27 -2 45 5 45 5 0 12 9 15 20 7 26 39 26 62 0 17 -19 17 -20
-1 -20 -26 -1 -58 -26 -45 -35 6 -3 11 -1 11 4 0 6 5 11 10 11 6 0 10 -8 10
-17 0 -14 2 -15 9 -4 5 8 16 11 31 6 18 -6 20 -12 15 -33 -8 -34 -13 -38 -27
-24 -8 8 -14 7 -25 -3 -7 -8 -13 -18 -12 -22 1 -4 1 -25 0 -45 -1 -32 -5 -38
-34 -47 -19 -6 -42 -11 -53 -10 -54 5 -72 -11 -34 -31 14 -8 26 -8 40 0 17 9
20 8 20 -9 0 -12 8 -21 23 -24 20 -4 20 -4 2 -6 -13 0 -25 -12 -32 -30 -9 -24
-15 -28 -39 -24 -27 4 -28 3 -10 -11 10 -8 15 -20 11 -26 -5 -8 -11 -7 -23 2
-14 11 -15 10 -8 -12 4 -14 8 -44 9 -67 0 -24 4 -43 9 -43 4 0 8 -18 8 -40 0
-22 -4 -40 -10 -40 -5 0 -10 -10 -10 -22 0 -21 0 -21 -14 -2 -8 10 -10 21 -5
22 5 2 9 29 9 59 l0 55 -25 -16 c-13 -9 -31 -16 -40 -16 -20 0 -19 -23 5 -70
19 -38 27 -90 14 -90 -4 0 -13 8 -20 18 -13 16 -13 16 -14 -3 -1 -32 -20 4
-20 38 0 22 -4 27 -25 27 -25 0 -33 -14 -15 -25 6 -4 19 -24 30 -46 13 -25 27
-39 40 -39 17 0 19 -5 15 -45 -2 -25 -7 -54 -10 -65 -5 -15 -2 -20 11 -20 24
0 13 -9 -17 -13 -13 -2 -22 -8 -20 -13 2 -5 6 -15 8 -22 3 -7 13 -10 24 -7 23
8 38 -20 20 -38 -8 -8 -11 -8 -11 2 0 8 -6 11 -15 7 -8 -3 -15 -1 -15 4 0 6
-4 10 -9 10 -6 0 -6 -12 0 -32 5 -18 9 -34 9 -35 0 -2 -10 -3 -21 -3 -16 0
-20 5 -16 19 2 10 1 25 -3 32 -7 10 -11 10 -24 0 -14 -12 -16 -7 -16 48 0 35
-4 60 -9 57 -5 -3 -7 -15 -4 -25 3 -10 0 -22 -6 -25 -6 -4 -11 1 -11 11 0 11
-7 28 -15 39 -18 24 -19 40 -1 25 8 -7 17 -8 20 -3 3 5 -4 16 -15 25 -42 36
-71 -20 -44 -86 4 -10 2 -24 -6 -33 -7 -9 -9 -18 -3 -22 12 -9 32 -51 37 -77
2 -11 9 -19 16 -17 7 1 29 -2 48 -9 31 -10 37 -9 54 10 20 21 35 29 25 12 -3
-5 1 -12 10 -15 12 -5 14 -14 9 -37 -7 -31 -7 -31 27 -27 31 3 34 1 30 -18 -2
-12 1 -31 7 -43 8 -14 8 -21 1 -21 -5 0 -10 7 -10 15 0 11 -11 15 -40 15 -29
0 -40 -4 -40 -15 0 -8 -4 -15 -10 -15 -5 0 -7 -12 -4 -27 6 -35 -11 -65 -25
-44 -8 12 -12 12 -25 -2 -16 -16 -22 -82 -8 -90 4 -2 1 -2 -5 -1 -9 2 -13 -10
-13 -36 0 -43 -14 -54 -23 -18 -5 17 -9 19 -20 10 -8 -7 -17 -9 -20 -5 -4 3
-7 -2 -7 -11 0 -14 -5 -17 -20 -12 -11 3 -29 9 -40 12 -16 5 -20 2 -19 -12 5
-45 -1 -73 -14 -68 -7 2 -23 -6 -37 -18 -15 -15 -25 -18 -28 -10 -5 17 -33 15
-46 -4 -10 -13 -19 -8 -62 36 -37 37 -60 52 -87 57 l-38 6 3 -39 c1 -22 7 -42
12 -46 8 -5 7 -11 -1 -19 -13 -13 -36 -2 -30 15 4 9 -17 12 -65 7 -5 -1 -8
-10 -8 -21 0 -17 -3 -18 -25 -8 -14 6 -25 15 -25 20 0 4 -7 8 -15 8 -10 0 -15
-10 -15 -30 0 -26 4 -30 28 -30 43 0 82 -22 82 -47 0 -31 -10 -53 -25 -53 -7
0 -16 -7 -19 -16 -7 -19 -26 -9 -26 16 0 10 -7 21 -16 24 -22 9 -24 8 -24 -11
0 -15 -2 -16 -10 -3 -14 21 -12 67 3 73 8 4 9 8 1 14 -6 4 -13 16 -17 26 -8
21 -33 22 -41 2 -3 -8 -9 -15 -13 -14 -23 4 -30 -3 -26 -25 4 -17 -1 -27 -16
-35 -12 -7 -21 -20 -21 -31 0 -27 -17 -34 -23 -10 -3 13 -14 20 -31 20 -18 0
-24 4 -20 15 4 10 0 15 -13 15 -18 0 -71 46 -65 56 8 14 -1 24 -23 24 -14 0
-29 8 -35 20 -6 11 -21 20 -35 20 -27 0 -45 -20 -18 -20 45 -1 73 -54 38 -74
-11 -6 -23 -15 -26 -19 -8 -10 -31 42 -24 54 17 26 -28 28 -64 2 -2 -2 8 -14
24 -28 15 -15 26 -27 24 -29 -23 -20 -49 -22 -102 -9 -52 13 -60 13 -82 -1
-19 -13 -30 -14 -45 -6 -11 6 -20 15 -20 20 0 12 -65 24 -80 15 -18 -11 7 -33
34 -28 19 4 25 -1 34 -27 9 -25 9 -32 -4 -37 -8 -3 -18 -3 -21 1 -4 3 -1 6 7
6 10 0 10 3 0 15 -16 19 -70 20 -70 1 0 -8 -15 -16 -36 -19 -63 -10 -90 16
-31 31 22 6 32 14 32 28 0 11 -6 18 -14 16 -25 -5 -61 8 -61 22 0 23 -29 27
-40 6 -8 -15 -6 -19 13 -23 15 -3 12 -5 -11 -6 -20 0 -31 3 -27 9 7 11 -23 2
-42 -13 -9 -6 -17 -6 -25 1 -7 5 -22 12 -33 14 -17 3 -15 6 12 18 l32 14 -27
18 c-18 12 -30 14 -38 7 -7 -6 -23 -9 -36 -7 -47 5 -118 -14 -133 -36 -11 -15
-27 -21 -58 -22 -23 -1 -52 -5 -64 -9 -19 -6 -23 -4 -23 14 0 12 6 21 15 21 8
0 15 4 15 9 0 5 12 9 28 9 15 0 33 0 40 1 15 1 16 41 1 41 -7 0 -18 8 -25 18
-13 16 -15 16 -28 0 -7 -10 -21 -18 -30 -18 -9 0 -16 -4 -16 -9 0 -5 -29 -9
-65 -9 -58 0 -65 2 -65 19 0 12 -7 19 -20 19 -11 0 -20 5 -20 10 0 6 -11 8
-24 6 -13 -2 -44 2 -67 11 -29 9 -45 11 -47 4 -2 -6 -13 -4 -28 6 l-25 16 21
22 c27 28 25 38 -4 33 -31 -6 -56 32 -37 56 7 8 11 23 9 33 -3 13 -8 8 -18
-18 -10 -28 -19 -36 -37 -36 -12 0 -23 4 -23 9 0 5 -19 9 -42 7 -57 -2 -98 15
-98 41 0 21 -14 27 -25 11 -6 -11 -51 -8 -62 3 -4 4 -1 11 7 17 13 7 13 10 1
18 -7 5 -22 6 -34 3 -17 -4 -19 -2 -13 21 6 26 -6 37 -19 17 -9 -15 -35 -12
-35 4 0 28 -62 36 -86 11 -21 -20 -30 -19 -54 7 l-20 22 0 -257 c0 -160 4
-257 10 -257 6 0 6 -9 0 -25 -6 -16 -10 -1371 -10 -3715 l0 -3690 26 0 c30 0
108 12 259 40 55 11 141 24 190 30 92 10 402 67 510 93 110 26 125 28 119 12
-4 -8 -10 -12 -16 -9 -5 3 -12 -4 -15 -16 -4 -13 -11 -19 -20 -15 -11 4 -13 1
-9 -11 5 -13 1 -15 -25 -12 -17 3 -48 -1 -68 -8 -20 -7 -55 -13 -78 -14 -23 0
-43 -4 -45 -9 -1 -5 -16 -13 -32 -17 -21 -5 -27 -4 -22 5 4 6 1 11 -8 11 -8 0
-16 -6 -19 -12 -3 -10 -7 -10 -19 0 -13 10 -16 9 -21 -8 -3 -14 -10 -18 -22
-14 -10 4 -14 13 -10 22 5 14 4 14 -12 0 -21 -19 -53 -26 -70 -15 -7 4 -18 -1
-26 -13 -8 -12 -20 -18 -30 -15 -8 4 -18 2 -22 -4 -3 -6 -15 -11 -26 -11 -11
0 -18 -4 -15 -9 4 -5 -2 -7 -13 -4 -10 3 -22 0 -25 -6 -4 -6 -26 -11 -49 -11
-31 0 -38 3 -27 10 11 7 5 10 -22 10 -28 0 -38 -4 -38 -16 0 -8 -4 -13 -9 -10
-4 3 -16 -1 -26 -8 -14 -10 -26 -11 -48 -3 -21 7 -25 12 -16 18 19 11 7 19
-19 13 -12 -4 -24 -14 -27 -24 -5 -16 -26 -21 -98 -22 -15 0 -27 -4 -27 -9 0
-5 -7 -9 -15 -9 -12 0 -15 -18 -15 -104 0 -91 2 -105 17 -110 40 -14 207 -256
188 -274 -7 -7 -135 -8 -135 -1 0 9 -42 17 -58 11 -9 -3 -12 -58 -12 -213 l0
-209 35 0 c19 0 35 5 35 11 0 5 5 7 10 4 6 -3 10 1 10 9 0 9 9 16 20 16 10 0
24 9 30 20 10 18 78 45 89 35 11 -11 7 -51 -7 -72 l-14 -23 276 0 c181 0 276
4 276 10 0 6 -12 28 -26 50 -14 21 -23 43 -20 48 3 5 -1 15 -9 22 -20 17 -20
44 1 36 9 -3 28 -6 43 -6 19 0 32 -8 44 -30 10 -16 23 -30 28 -30 6 0 3 7 -5
16 -20 19 -20 34 -1 34 39 0 200 -66 208 -86 3 -6 -14 -15 -37 -21 -36 -10
-39 -10 -22 2 15 11 17 17 7 29 -6 8 -21 12 -31 9 -14 -4 -20 0 -20 11 0 9 -7
16 -16 16 -8 0 -13 -4 -10 -9 3 -5 -1 -12 -10 -15 -8 -3 -12 -2 -9 4 3 6 -1
10 -10 10 -12 0 -15 -5 -11 -17 4 -9 1 -20 -6 -24 -9 -6 -9 -13 2 -33 13 -25
17 -26 106 -26 51 0 96 4 99 10 3 5 1 18 -5 29 -21 41 17 35 121 -20 26 -13
57 -19 108 -19 76 0 73 -2 83 64 3 19 4 19 21 2 9 -10 17 -28 17 -42 l0 -24
171 0 c133 0 170 3 166 13 -3 6 -13 32 -22 57 -9 25 -26 64 -37 88 -10 24 -22
58 -25 75 -4 18 -19 58 -35 89 -15 31 -28 62 -28 67 0 6 -5 11 -11 11 -6 0 -8
7 -5 16 7 18 -17 57 -29 46 -4 -4 -6 0 -3 8 3 8 -3 30 -13 49 -10 19 -16 38
-12 44 3 5 0 13 -6 17 -7 4 -13 18 -14 31 -1 13 -7 30 -14 37 -7 7 -15 29 -19
50 -4 20 -15 48 -24 62 -10 14 -21 41 -25 60 -4 19 -14 47 -21 62 -8 15 -14
36 -14 48 0 11 -6 31 -14 43 -8 12 -29 67 -46 122 -18 55 -36 109 -40 120 -5
11 -21 61 -35 110 -15 50 -35 113 -45 140 -18 49 -37 105 -105 315 -32 98
-145 428 -201 585 -14 39 -37 104 -51 145 -14 41 -29 80 -34 85 -4 6 -15 33
-24 60 -16 51 -20 61 -49 127 -9 20 -16 42 -16 50 0 8 -4 18 -9 24 -5 5 -23
45 -41 89 -18 44 -39 95 -47 113 -21 47 -40 121 -42 162 -1 19 -6 39 -11 44
-15 15 -12 29 5 23 8 -4 17 -2 20 3 4 6 15 10 26 10 10 0 19 5 19 10 0 17 20
11 63 -18 23 -16 49 -32 57 -36 8 -3 38 -21 67 -39 132 -82 195 -116 288 -156
55 -24 127 -56 160 -71 33 -15 78 -33 100 -40 22 -7 45 -16 50 -20 24 -18 116
-40 190 -45 44 -4 127 -13 185 -22 137 -20 297 -13 455 22 295 64 385 93 580
192 148 74 267 139 282 152 7 6 16 11 21 11 12 0 285 193 353 250 71 59 221
210 284 285 27 33 81 96 121 140 39 44 94 115 122 157 28 42 63 89 78 105 33
35 147 207 181 273 20 38 28 46 37 37 22 -23 37 -73 35 -123 -2 -66 6 -93 56
-200 46 -96 61 -116 76 -93 7 11 9 10 9 -3 0 -23 16 -23 29 -1 7 13 4 20 -12
28 -29 14 -35 95 -7 95 17 0 60 47 60 65 0 4 8 14 17 21 25 17 11 27 -21 14
-33 -12 -76 -3 -76 16 0 8 -4 14 -8 14 -11 0 -56 80 -45 80 4 0 0 7 -11 15
-14 10 -17 21 -12 41 7 25 6 26 -9 14 -15 -12 -16 -11 -9 14 5 21 1 32 -20 51
-32 30 -33 51 -3 89 l24 29 29 -32 c16 -18 31 -46 34 -63 3 -17 11 -33 19 -36
15 -5 12 47 -9 158 -6 30 -13 80 -15 112 -5 49 -2 60 20 86 28 34 49 121 60
251 4 46 12 96 18 110 10 24 18 93 33 281 3 41 0 127 -6 190 -7 63 -11 132
-11 153 1 21 -4 57 -10 80 -11 40 -22 107 -35 225 -4 30 -1 124 6 210 10 129
9 158 -2 166 -14 12 -31 44 -47 87 -11 31 -49 45 -58 22 -3 -9 0 -25 7 -37 7
-11 14 -46 15 -76 2 -30 7 -56 13 -58 16 -5 2 -42 -17 -42 -13 0 -13 -2 -2 -9
7 -5 10 -14 7 -20 -4 -6 -2 -11 3 -11 6 0 11 -3 10 -7 -2 -14 13 -53 20 -53 4
0 8 -6 9 -12 1 -7 5 -30 8 -50 5 -30 3 -39 -10 -44 -14 -5 -14 -8 -2 -18 18
-14 29 -136 13 -136 -7 0 -6 -4 2 -9 12 -8 12 -12 2 -25 -11 -14 -11 -16 5
-16 18 -1 18 -1 0 -15 -12 -9 -15 -15 -7 -15 10 0 11 -3 2 -14 -9 -11 -9 -15
1 -19 10 -4 10 -7 -1 -15 -11 -8 -10 -12 5 -20 18 -10 18 -11 -5 -20 l-25 -9
25 -7 c22 -7 23 -8 5 -15 -18 -7 -18 -8 -2 -14 13 -5 15 -11 9 -20 -5 -6 -9
-26 -8 -44 2 -22 -2 -33 -14 -36 -13 -4 -13 -5 2 -6 12 -1 15 -5 11 -13 -13
-21 -13 -58 -1 -58 8 -1 6 -5 -3 -13 -12 -10 -15 -37 -14 -135 1 -117 -21
-311 -47 -406 -6 -22 -12 -45 -13 -51 -1 -5 -5 -15 -9 -21 -3 -6 -9 -26 -11
-45 -17 -124 -140 -426 -255 -624 -21 -35 -162 -243 -183 -270 -5 -5 -34 -44
-65 -85 -50 -67 -77 -98 -150 -176 -12 -13 -26 -30 -30 -37 -13 -22 -106 -128
-132 -151 -13 -12 -38 -35 -56 -52 -53 -52 -158 -138 -187 -153 -16 -8 -28
-18 -28 -23 0 -4 -7 -8 -15 -8 -8 0 -15 -4 -15 -10 0 -5 -7 -10 -15 -10 -8 0
-15 -4 -15 -8 0 -10 -85 -68 -150 -102 -25 -13 -47 -26 -50 -29 -10 -12 -146
-75 -164 -77 -11 -1 -25 -9 -31 -18 -7 -9 -21 -16 -33 -16 -11 0 -22 -4 -24
-10 -1 -5 -12 -11 -24 -13 -12 -1 -33 -10 -47 -20 -15 -9 -33 -17 -41 -17 -8
0 -18 -5 -21 -11 -4 -6 -13 -8 -21 -5 -8 3 -14 1 -14 -3 0 -5 -34 -17 -75 -27
-41 -10 -75 -20 -75 -24 0 -3 -8 -6 -17 -6 -21 -1 -141 -24 -163 -32 -20 -6
-35 -9 -99 -16 -30 -3 -58 -11 -62 -17 -5 -8 -9 -8 -14 1 -6 9 -10 9 -16 -1
-8 -12 -10 -12 -18 0 -5 7 -11 9 -14 4 -7 -11 -122 -11 -133 0 -4 4 -13 2 -21
-4 -10 -9 -13 -8 -13 1 0 7 -7 10 -15 7 -8 -4 -17 -3 -19 2 -3 4 -20 8 -38 9
-42 3 -60 6 -73 14 -5 3 -23 4 -40 2 -29 -3 -78 8 -120 26 -11 5 -38 11 -60
13 -22 2 -46 7 -53 11 -8 4 -16 6 -19 3 -3 -3 -17 -1 -32 5 -24 10 -68 19
-160 34 -19 2 -49 11 -65 19 -17 7 -49 19 -71 26 -22 7 -53 20 -70 30 -16 10
-47 28 -67 39 -21 11 -38 25 -38 31 0 6 -4 8 -9 4 -5 -3 -16 2 -24 10 -9 8
-18 15 -21 15 -3 0 -15 9 -26 20 -11 11 -27 20 -35 20 -8 0 -15 9 -15 19 0 11
-9 21 -22 25 -16 4 -34 30 -60 84 -21 43 -38 83 -38 89 0 6 -10 13 -21 16 -14
4 -20 11 -16 21 7 18 -18 40 -37 33 -7 -3 -26 7 -41 23 l-27 28 28 18 c16 10
31 19 33 21 3 2 -4 9 -14 17 -10 7 -15 18 -11 24 10 17 26 15 26 -3 0 -22 46
-38 71 -25 23 13 24 7 3 -15 -13 -12 -14 -19 -5 -28 6 -6 11 -30 11 -54 0 -34
3 -41 15 -37 11 5 15 -1 15 -20 0 -33 13 -33 30 -1 10 19 17 22 31 15 25 -14
29 -13 29 11 0 14 5 19 18 17 11 -3 16 -12 14 -27 -2 -18 2 -21 18 -16 15 5
29 -3 54 -28 18 -19 44 -38 57 -42 38 -10 119 -49 119 -57 0 -3 13 -9 29 -13
16 -3 32 -13 35 -21 3 -8 12 -14 20 -14 8 0 27 -5 43 -12 15 -6 30 -12 33 -13
3 -1 19 -7 35 -14 107 -46 157 -59 250 -67 39 -4 77 -10 85 -14 16 -8 62 -6
79 4 5 3 16 0 23 -8 17 -16 110 -6 116 13 2 7 16 9 38 5 21 -4 40 -2 49 6 9 8
30 11 55 7 41 -5 80 0 80 12 -1 19 -22 29 -82 35 -53 5 -69 3 -82 -10 -15 -14
-16 -14 -16 1 0 11 -5 15 -15 12 -8 -4 -17 -2 -20 3 -4 6 -18 10 -33 10 -15 0
-39 7 -54 14 -17 9 -41 13 -63 9 -20 -3 -35 -1 -35 4 0 5 -7 10 -15 10 -8 0
-15 -5 -15 -11 0 -6 -4 -6 -11 1 -6 6 -18 9 -25 6 -8 -3 -14 0 -14 6 0 6 -19
11 -44 11 -37 0 -43 3 -40 17 4 14 -2 18 -27 20 -18 1 -36 8 -40 14 -4 6 -12
8 -18 5 -6 -4 -19 1 -29 12 -9 10 -36 25 -60 32 -24 8 -51 24 -61 36 -13 16
-25 21 -40 17 -14 -4 -21 -1 -21 10 0 8 -8 18 -17 21 -42 16 -63 32 -63 48 0
10 -7 18 -15 18 -20 0 -19 19 2 27 15 6 15 7 -3 14 -14 5 -8 8 21 8 22 1 72
-11 110 -25 148 -55 282 -101 305 -106 220 -50 271 -58 395 -58 102 0 146 4
200 20 39 11 95 28 125 36 30 9 78 22 105 30 28 8 67 19 88 25 67 17 269 118
367 184 136 91 231 179 425 395 50 56 204 251 272 345 90 125 176 282 277 507
28 63 103 298 126 393 11 50 25 106 30 125 33 126 46 512 22 685 -21 146 -59
326 -81 383 -12 29 -30 94 -42 145 -11 51 -27 121 -35 157 -9 36 -22 99 -29
140 -8 41 -19 91 -24 110 -12 36 -41 195 -41 219 0 10 8 12 29 8 l29 -6 7 72
c4 40 6 135 5 212 -2 77 -4 290 -4 473 -1 284 2 334 14 342 41 26 41 21 36
-237 -4 -215 -9 -766 -7 -860 1 -38 30 -52 67 -32 19 10 27 10 36 1 14 -14 54
-16 62 -3 6 10 56 -9 56 -21 0 -4 24 -10 54 -13 64 -8 108 12 99 46 -4 14 -1
18 9 14 18 -7 91 18 96 33 2 8 -8 12 -28 12 -21 0 -30 4 -28 13 7 18 53 20 68
3 7 -9 21 -16 31 -16 11 0 19 -6 19 -14 0 -7 9 -16 20 -19 12 -3 20 -14 20
-25 0 -16 17 -32 36 -32 10 0 3 29 -10 39 -8 7 -12 22 -9 34 11 52 14 53 41
20 15 -17 39 -34 54 -38 24 -6 29 -3 38 20 15 39 12 85 -5 91 -8 4 -15 18 -15
34 0 16 -6 35 -12 42 -20 21 -38 56 -38 73 0 8 -8 15 -19 15 -26 0 -32 32 -15
87 8 27 13 56 10 65 -2 10 0 20 4 23 22 14 -5 195 -32 211 -7 4 -6 9 3 14 23
15 39 -1 39 -41 0 -21 5 -39 11 -39 16 0 0 241 -20 293 -7 17 -7 27 -1 27 6 0
10 20 10 45 0 41 21 102 40 115 16 11 28 47 23 71 -3 16 1 30 11 38 16 14 22
51 8 51 -16 0 -32 -25 -32 -51 0 -26 -22 -45 -41 -34 -5 3 -22 -4 -38 -16 -25
-18 -33 -20 -46 -9 -13 10 -15 9 -15 -8 0 -11 -7 -28 -16 -37 -13 -13 -15 -28
-9 -80 5 -53 4 -66 -9 -71 -26 -10 -65 27 -66 64 0 17 -4 32 -10 32 -5 0 -12
11 -16 25 -3 14 -11 25 -16 25 -6 0 -7 -7 -4 -16 17 -45 18 -64 2 -64 -13 0
-16 11 -16 54 0 63 -14 106 -33 106 -16 0 -32 71 -18 80 5 3 9 23 9 45 0 22 1
55 2 73 2 19 -2 37 -9 42 -9 5 -5 13 15 29 14 11 31 21 35 21 5 0 9 7 9 15 0
8 5 15 10 15 6 0 10 25 10 55 0 49 -3 57 -22 64 -29 11 -36 -5 -12 -24 18 -13
18 -14 2 -15 -10 0 -18 -7 -18 -15 0 -8 -6 -15 -12 -15 -7 -1 -2 -10 12 -22
16 -14 21 -22 13 -25 -7 -3 -13 -11 -13 -19 0 -11 -4 -13 -17 -6 -11 7 -27 5
-50 -7 -32 -16 -43 -31 -23 -31 6 0 10 -10 10 -21 0 -17 -3 -19 -14 -10 -14
12 -46 5 -46 -10 0 -5 -6 -9 -14 -9 -8 0 -16 -4 -18 -10 -5 -16 -111 -39 -171
-37 -32 1 -57 4 -57 7 0 3 -17 14 -37 25 -21 11 -42 26 -46 33 -5 7 -18 17
-29 21 -17 6 -21 16 -20 52 0 98 -2 94 43 97 23 1 46 -2 53 -7 22 -18 51 11
51 52 0 20 -3 37 -7 37 -5 0 -8 15 -8 34 0 35 15 46 68 46 23 0 26 4 36 53 4
16 13 27 22 27 14 0 14 3 4 15 -7 8 -21 15 -31 15 -11 0 -19 7 -19 15 0 19
-19 19 -44 0 -11 -8 -30 -12 -46 -8 -20 4 -34 -1 -50 -17 -12 -12 -34 -24 -48
-26 -15 -3 -32 -6 -38 -9 -13 -4 -21 28 -16 62 3 19 34 35 69 34 5 0 15 7 24
15 9 8 18 12 21 9 3 -3 8 8 11 25 4 16 13 30 21 30 18 0 32 70 16 80 -17 10
37 47 99 67 28 9 51 20 51 25 0 4 9 8 19 8 22 0 51 35 51 63 0 10 6 28 14 40
17 25 24 77 13 94 -11 17 -17 104 -7 98 5 -3 6 10 3 30 -3 22 -1 41 8 51 8 10
9 18 2 22 -6 4 -10 27 -10 51 0 31 -5 46 -17 53 -13 7 -16 17 -11 38 3 16 2
31 -4 35 -6 3 -11 16 -11 28 0 18 -2 19 -10 7 -8 -13 -10 -13 -10 1 0 22 -67
65 -114 74 -22 4 -35 10 -28 14 7 4 0 11 -18 18 -24 9 -32 8 -37 -2 -10 -17
-63 -31 -63 -16 0 6 -7 8 -15 5 -8 -4 -15 -1 -15 5 0 6 -9 11 -21 11 -23 0
-79 30 -79 42 0 4 6 8 13 8 8 0 9 3 1 8 -6 4 -10 30 -10 57 1 38 7 56 24 73
23 23 42 22 42 -4 0 -8 9 -14 20 -14 13 0 20 7 20 19 0 12 11 23 28 29 17 7
21 11 10 11 -10 1 -18 7 -18 15 0 9 7 12 20 9 16 -4 20 0 20 22 0 23 2 25 15
15 8 -6 19 -9 24 -6 14 9 81 -25 81 -41 0 -7 8 -13 17 -13 9 0 13 -3 10 -7 -4
-4 7 -13 24 -20 17 -7 28 -17 24 -23 -4 -6 1 -18 11 -25 14 -11 15 -14 5 -15
-12 0 -12 -3 -3 -12 7 -7 12 -20 12 -29 0 -9 7 -22 15 -29 8 -7 15 -21 15 -31
0 -10 6 -22 13 -26 22 -14 79 -139 81 -179 1 -22 6 -47 10 -56 4 -10 6 -56 3
-103 -5 -93 -1 -125 17 -125 7 0 10 -20 9 -58 -5 -110 -16 -141 -64 -183 -21
-18 -39 -39 -39 -46 0 -7 -5 -13 -11 -13 -6 0 -2 -16 10 -36 12 -19 19 -39 16
-44 -7 -12 22 -39 51 -46 18 -5 31 -1 45 14 10 12 19 25 19 30 0 5 9 19 20 32
l20 23 9 -24 c8 -23 9 -22 19 14 6 21 8 45 5 53 -9 23 23 61 56 66 21 3 31 0
31 -9 0 -8 -11 -13 -27 -13 -21 0 -24 -3 -14 -9 20 -13 24 -44 5 -37 -10 4
-14 -2 -13 -22 0 -15 3 -22 5 -15 3 7 12 9 20 6 10 -4 17 2 21 16 7 26 12 26
236 6 182 -16 573 -39 622 -37 38 2 505 -27 525 -33 8 -2 65 -7 125 -10 256
-15 706 -48 905 -66 69 -6 157 -13 195 -14 93 -3 185 -23 192 -42 4 -9 -2 -59
-11 -112 -18 -98 -27 -148 -71 -396 -29 -165 -27 -157 -60 -355 -14 -85 -34
-200 -45 -255 -11 -55 -31 -167 -45 -250 -15 -82 -39 -222 -56 -310 -16 -88
-32 -173 -35 -190 -3 -16 -16 -88 -29 -160 -38 -207 -56 -315 -65 -385 -9 -62
-19 -119 -54 -295 -15 -74 -15 -81 0 -92 24 -18 32 -9 39 45 5 39 36 232 49
307 2 11 20 101 40 200 43 218 49 249 76 395 11 63 25 135 30 160 5 25 14 77
20 115 6 39 15 93 20 120 25 131 60 336 65 390 4 33 10 69 15 80 12 30 43 197
111 610 33 204 64 374 69 379 17 17 206 10 425 -15 124 -14 125 -14 125 20 0
20 -6 31 -17 35 -10 2 -129 13 -265 22 l-247 18 4 26 c2 14 11 72 20 130 9 58
22 139 30 180 7 41 19 109 25 150 6 41 16 91 20 110 5 19 14 69 20 110 12 82
19 120 50 285 11 61 25 133 30 160 14 75 28 159 45 270 9 55 25 147 36 205 11
58 33 186 49 285 16 99 47 281 70 405 22 124 50 279 60 345 11 66 24 149 30
185 5 36 17 104 25 151 13 74 22 380 11 368 -2 -2 -16 -76 -30 -164 -15 -88
-40 -236 -56 -330 -16 -93 -38 -231 -50 -305 -11 -74 -25 -157 -30 -185 -5
-27 -14 -75 -20 -105 -6 -30 -18 -98 -25 -150 -21 -138 -41 -249 -53 -295 -6
-22 -16 -87 -22 -145 -7 -58 -16 -114 -20 -125 -16 -36 -27 -154 -16 -165 6
-6 4 -15 -6 -27 -9 -10 -26 -82 -42 -168 -55 -314 -77 -443 -92 -530 -8 -49
-26 -153 -39 -230 -14 -77 -32 -185 -40 -240 -9 -55 -21 -124 -28 -154 l-12
-53 -50 6 c-27 4 -113 11 -190 16 -77 5 -187 14 -245 19 -155 15 -355 30 -850
66 -107 8 -231 17 -275 20 -44 3 -98 8 -120 11 -22 2 -107 9 -190 14 -139 9
-318 24 -620 50 -146 13 -246 21 -262 23 -16 1 -17 32 -1 60 7 14 12 74 13
159 1 76 5 141 9 145 4 5 14 0 21 -10 22 -31 85 -32 85 -1 0 8 9 14 20 14 21
0 24 9 22 70 -1 19 1 29 4 22 3 -7 17 -17 31 -23 13 -5 21 -13 18 -19 -3 -5 1
-10 9 -10 9 0 16 -4 16 -10 0 -5 9 -10 20 -10 16 0 19 5 14 24 -3 13 1 37 9
52 8 16 15 53 15 83 1 56 8 74 21 53 4 -7 15 -10 24 -7 21 9 57 -12 58 -33 0
-12 3 -11 9 6 6 13 16 22 24 20 8 -2 27 11 43 27 15 17 40 36 56 43 17 7 27
19 27 32 0 11 22 43 50 72 43 44 51 49 65 38 14 -12 18 -11 25 0 10 16 97 15
117 -2 7 -6 29 -7 50 -4 29 5 34 4 23 -4 -11 -9 -7 -10 20 -4 39 8 45 8 78 0
34 -8 42 -15 43 -39 0 -12 3 -16 6 -9 2 6 13 12 24 12 15 0 17 5 13 28 -5 23
-1 30 20 42 14 7 26 19 26 27 0 19 28 16 39 -5 5 -9 12 -35 16 -56 6 -31 5
-38 -6 -34 -8 3 -13 13 -13 22 1 9 -3 16 -10 16 -14 0 -10 -75 6 -107 8 -17 8
-26 -2 -38 -7 -8 -8 -15 -3 -15 5 0 16 11 23 25 15 28 30 33 30 10 0 -17 16
-20 25 -5 3 6 1 10 -4 10 -7 0 -7 7 1 20 7 11 23 20 35 20 17 0 22 -7 25 -31
3 -27 5 -29 21 -17 20 15 14 48 -9 48 -8 0 -14 10 -14 24 0 16 -7 26 -21 29
-12 3 -18 10 -14 16 3 6 1 11 -4 11 -6 0 -11 5 -11 10 0 6 11 10 25 10 16 0
25 6 25 15 0 18 -4 18 -48 6 -25 -8 -32 -7 -32 5 0 8 10 14 24 14 14 0 28 5
31 10 9 15 41 12 55 -5 9 -11 10 -18 1 -29 -9 -11 -6 -15 16 -19 29 -6 41 6
55 51 5 18 2 25 -18 32 -28 11 -28 10 -10 44 l13 26 36 -28 c23 -17 36 -36 37
-50 0 -30 22 -24 30 8 10 42 36 36 31 -7 -1 -7 3 -13 9 -13 5 0 10 -11 10 -24
0 -20 -4 -22 -26 -18 -19 3 -26 0 -31 -16 -4 -15 -16 -23 -42 -28 -51 -8 -65
-13 -57 -21 4 -4 19 -7 34 -8 32 0 32 -19 -1 -20 -12 0 -21 -6 -20 -12 2 -7
-3 -13 -10 -13 -11 0 -12 -11 -5 -57 10 -65 14 -73 35 -73 8 0 24 -11 35 -25
13 -16 29 -25 48 -25 22 0 30 -5 33 -22 2 -13 5 4 6 38 0 33 6 65 13 72 9 9 8
12 -4 12 -17 0 -38 72 -38 130 0 34 12 37 58 14 25 -12 32 -22 32 -45 0 -18 4
-28 10 -24 6 4 10 -6 11 -22 3 -124 10 -163 28 -163 9 0 23 67 23 108 0 18 3
20 14 11 10 -8 14 -8 14 0 0 21 20 11 40 -21 15 -25 17 -35 7 -47 -9 -10 -9
-15 -1 -18 7 -2 10 -12 7 -21 -5 -21 67 -72 100 -71 22 0 22 0 0 9 -30 12 -29
43 2 66 28 21 32 34 11 34 -8 0 -16 7 -20 15 -3 8 -12 12 -21 9 -10 -4 -15 0
-15 14 0 12 9 22 23 26 22 6 22 7 3 21 -11 8 -28 15 -38 15 -23 0 -24 27 0 33
16 4 16 5 0 6 -12 1 -18 9 -18 25 0 13 -6 26 -14 29 -8 3 -14 14 -13 25 1 23
-23 82 -34 82 -4 0 -11 10 -15 23 -3 12 -13 30 -22 40 -14 15 -13 17 6 17 15
0 19 5 15 20 -3 11 -9 20 -14 20 -5 0 -9 8 -9 18 0 41 -54 58 -65 21 -4 -12
-3 -24 2 -28 12 -8 33 -104 25 -112 -4 -3 -28 -4 -54 -1 l-48 4 0 44 c0 31 -4
44 -14 44 -8 0 -20 15 -26 34 -11 35 -40 69 -40 47 0 -6 -9 -11 -20 -11 -13 0
-20 7 -20 20 0 13 -7 20 -20 20 -13 0 -20 7 -20 20 0 11 -4 20 -10 20 -5 0
-10 13 -10 29 0 16 -5 31 -12 33 -8 3 -5 12 10 28 12 13 22 29 22 34 0 6 12
19 25 29 22 16 26 16 31 3 3 -9 12 -16 20 -16 8 0 11 -6 7 -16 -3 -8 4 -25 15
-37 12 -12 27 -40 34 -62 10 -28 19 -39 30 -37 10 1 23 -6 30 -18 7 -11 20
-20 30 -20 9 0 19 -4 23 -10 7 -11 35 -2 35 11 0 5 -8 9 -18 9 -9 0 -23 9 -30
21 -11 17 -11 23 0 36 10 13 10 17 1 20 -7 3 -13 20 -13 38 0 28 -5 35 -30 44
-22 7 -30 16 -30 35 0 15 -6 26 -16 28 -11 2 -18 16 -20 44 -3 37 0 44 41 84
25 24 45 50 45 58 0 7 6 12 13 11 25 -3 38 1 32 11 -3 6 3 22 14 36 11 14 22
39 26 57 4 18 20 93 36 167 17 74 32 176 35 225 3 50 12 110 20 134 8 24 17
75 19 115 3 39 11 109 20 156 16 89 19 234 9 338 -7 66 -23 75 -25 14 -1 -36
-1 -37 -8 -7 -9 40 -2 75 14 69 15 -6 22 53 30 239 l5 127 -44 0 -44 0 -6 -82
c-4 -46 -7 -114 -9 -153 -4 -121 -21 -76 -20 56 1 69 -1 137 -4 152 l-5 27
-956 -2 -956 -3 -7 -34 c-8 -40 -2 -61 17 -61 19 0 18 -19 -3 -43 -13 -15 -15
-21 -6 -24 14 -5 19 -133 6 -133 -15 0 -34 -53 -23 -64 16 -16 12 -24 -12 -29
-23 -4 -23 -4 1 -6 19 -1 21 -4 12 -15 -9 -11 -9 -20 -2 -35 16 -30 14 -33
-18 -26 -26 5 -29 4 -24 -14 3 -11 -2 -34 -10 -50 -15 -29 -14 -31 4 -31 25 0
25 -17 0 -25 -14 -4 -22 -19 -27 -51 -7 -46 -12 -52 -31 -33 -20 20 -28 -37
-9 -66 9 -13 12 -26 7 -30 -6 -3 -10 -13 -9 -23 0 -9 -3 -61 -7 -114 -4 -53
-4 -113 -1 -132 6 -31 11 -36 34 -36 l27 -1 -27 -20 c-17 -13 -25 -26 -21 -36
6 -14 8 -14 19 2 12 16 14 16 29 1 15 -15 15 -17 1 -32 -20 -19 -20 -31 -1
-50 13 -13 12 -18 -13 -39 -22 -20 -24 -24 -9 -25 24 0 21 -27 -4 -40 -20 -11
-20 -12 -2 -25 10 -9 13 -14 6 -15 -18 0 -16 -25 3 -41 13 -11 17 -10 25 4 14
25 27 21 22 -7 -4 -17 1 -27 16 -36 16 -8 21 -8 19 1 -2 6 3 14 11 17 10 3 12
0 8 -10 -3 -9 -2 -32 3 -52 4 -21 4 -36 -1 -36 -5 0 -9 4 -9 9 0 5 -7 12 -15
15 -13 5 -15 0 -9 -29 12 -67 11 -70 -23 -71 -28 -1 -33 3 -33 21 0 13 -7 28
-15 35 -13 11 -15 8 -15 -13 0 -14 -3 -32 -6 -40 -3 -8 8 -28 26 -46 23 -23
32 -42 34 -72 2 -23 7 -44 12 -48 15 -10 44 -59 44 -73 0 -7 9 -19 20 -26 27
-17 25 -27 -5 -27 -19 0 -25 5 -25 23 0 15 -6 22 -20 22 -13 0 -20 7 -20 20 0
11 -7 20 -15 20 -8 0 -15 7 -15 15 0 9 -6 12 -15 9 -8 -4 -15 -13 -15 -21 0
-8 -5 -11 -10 -8 -6 4 -8 10 -5 15 10 17 -14 20 -29 4 -15 -14 -16 -14 -17 3
-1 10 0 28 1 41 1 17 -4 22 -21 22 -19 0 -21 4 -16 38 4 20 9 407 13 860 l7
822 -30 0 c-29 0 -30 -2 -36 -57 -3 -32 -3 -99 0 -150 3 -51 1 -168 -6 -260
-12 -176 -19 -507 -22 -950 0 -185 -4 -265 -12 -271 -7 -5 -33 -12 -59 -14
-53 -6 -63 9 -31 44 15 17 15 18 -4 18 -24 0 -32 22 -37 98 -2 38 1 52 11 52
7 0 13 -11 13 -27 1 -25 2 -26 11 -10 8 13 7 22 -1 32 -9 11 -8 19 3 35 15 21
12 120 -3 130 -5 3 -10 16 -13 30 -3 16 -5 10 -6 -17 -1 -53 -16 -56 -26 -5
l-8 37 -11 -32 c-12 -35 -26 -53 -26 -34 0 7 -5 9 -11 5 -8 -4 -7 -9 2 -15 11
-6 9 -13 -9 -29 -12 -11 -22 -27 -22 -35 0 -7 -8 -16 -17 -18 -15 -4 -15 -6 5
-12 12 -4 22 -11 22 -15 0 -16 -26 -16 -58 -1 -32 15 -33 18 -29 68 3 42 1 50
-11 45 -12 -4 -14 2 -9 32 4 28 0 48 -16 79 -11 23 -25 44 -29 45 -4 2 -8 21
-8 43 0 21 -5 39 -11 39 -5 0 -8 4 -4 9 3 5 1 12 -5 16 -6 4 -3 16 10 32 24
31 25 51 3 83 -12 17 -13 25 -5 28 18 6 15 32 -4 32 -8 0 -12 4 -9 10 3 5 1
20 -6 32 -9 16 -9 23 0 26 16 5 14 22 -3 22 -7 0 -16 11 -18 25 -3 13 -1 22 3
19 5 -3 9 4 9 15 0 11 -5 23 -11 26 -6 4 -8 13 -5 21 8 21 -4 44 -24 44 -10 0
-20 9 -23 20 -5 20 8 29 15 9 2 -7 11 -7 28 0 14 5 20 10 13 10 -16 1 -58 41
-66 63 -3 9 -1 19 6 21 8 3 6 11 -7 25 -20 24 -45 19 -25 -4 6 -8 9 -17 6 -20
-7 -7 -47 56 -47 74 0 9 5 10 19 2 27 -14 41 -13 35 4 -3 8 -17 17 -30 20 -14
4 -22 11 -18 17 3 6 -3 17 -15 25 -12 9 -19 19 -16 23 2 5 0 22 -5 40 -6 21
-5 31 2 31 7 0 7 5 -1 14 -6 7 -8 27 -5 45 6 27 2 35 -35 67 -41 36 -54 74
-26 74 8 0 15 7 15 15 0 8 -4 15 -9 15 -5 0 -12 9 -16 19 -3 11 -15 23 -26 26
-25 8 -25 25 1 25 11 0 20 -4 20 -10 0 -5 7 -10 16 -10 9 0 14 7 12 18 -3 16
-57 17 -936 20 -619 1 -932 -1 -932 -8 0 -5 -5 -10 -11 -10 -5 0 -7 5 -4 10 4
7 -50 10 -165 9 l-172 -1 6 -24z m281 -24 c3 -5 1 -10 -4 -10 -6 0 -11 5 -11
10 0 6 2 10 4 10 3 0 8 -4 11 -10z m95 1 c0 -5 -7 -11 -15 -15 -15 -5 -20 5
-8 17 9 10 23 9 23 -2z m3840 -22 c0 -5 -4 -9 -10 -9 -5 0 -10 7 -10 16 0 8 5
12 10 9 6 -3 10 -10 10 -16z m-1045 1 c3 -5 -1 -10 -9 -10 -9 0 -16 5 -16 10
0 6 4 10 9 10 6 0 13 -4 16 -10z m856 5 c26 -4 36 -11 33 -20 -8 -21 16 -28
35 -11 21 19 64 8 74 -18 7 -19 96 -23 113 -6 8 8 20 -1 39 -27 16 -21 35 -42
42 -46 8 -5 11 -17 8 -28 -10 -31 19 -23 31 9 15 40 7 52 -34 52 -62 0 -21 22
52 27 55 5 66 3 66 -10 0 -8 -6 -17 -12 -20 -25 -8 1 -19 29 -12 15 4 22 10
16 12 -7 3 -13 13 -13 24 0 22 26 25 65 7 19 -8 31 -8 51 1 31 14 50 5 33 -15
-6 -8 -7 -14 -3 -14 5 0 20 14 34 30 22 27 31 30 79 30 30 0 69 5 88 12 18 6
35 9 38 6 4 -3 1 -23 -5 -45 -6 -21 -17 -110 -25 -198 -8 -88 -20 -189 -26
-225 -35 -213 -41 -230 -79 -230 -16 0 -30 -7 -34 -15 -3 -8 -17 -15 -31 -15
-15 0 -24 4 -20 9 9 16 -30 31 -85 33 -28 1 -54 6 -57 11 -2 4 -10 4 -16 -1
-21 -16 -126 -23 -150 -10 -14 7 -86 13 -195 15 -378 6 -414 11 -428 58 -4 11
-13 28 -22 38 -8 9 -11 17 -6 17 5 0 2 6 -7 13 -9 7 -24 35 -33 62 -10 28 -28
73 -41 100 -13 28 -25 61 -27 75 -2 14 -9 24 -15 23 -7 -2 -10 4 -7 12 4 10 0
15 -15 15 -24 0 -27 -10 -9 -28 9 -9 5 -12 -21 -12 -18 0 -41 5 -52 10 -12 7
-19 7 -19 1 0 -6 -7 -8 -15 -5 -8 4 -15 1 -15 -6 0 -8 9 -10 25 -6 14 4 25 2
25 -4 0 -10 -21 -14 -47 -11 -28 4 -13 -56 23 -94 48 -51 56 -74 61 -177 4
-98 11 -88 -78 -103 -65 -10 -64 -13 -61 364 2 184 5 338 7 341 5 8 592 12
636 5z m79 -5 c0 -5 -4 -10 -10 -10 -5 0 -10 5 -10 10 0 6 5 10 10 10 6 0 10
-4 10 -10z m-3705 -39 c7 -12 -12 -24 -25 -16 -11 7 -4 25 10 25 5 0 11 -4 15
-9z m-120 -32 c-4 -13 -2 -19 9 -19 9 0 16 -4 16 -10 0 -5 -4 -10 -10 -10 -5
0 -13 -1 -17 -2 -9 -4 -24 53 -17 64 10 15 25 -3 19 -23z m-155 -9 c0 -5 -4
-10 -10 -10 -5 0 -10 5 -10 10 0 6 5 10 10 10 6 0 10 -4 10 -10z m363 -7 c-18
-7 -16 -33 2 -33 8 0 15 4 15 10 0 5 7 7 15 4 8 -4 15 -1 15 5 0 6 5 11 10 11
6 0 10 -9 10 -21 0 -15 -4 -19 -16 -15 -8 3 -24 1 -35 -5 -16 -8 -19 -17 -14
-40 5 -21 2 -31 -9 -35 -9 -3 -16 -12 -16 -19 0 -8 -5 -17 -11 -21 -8 -5 -9 6
-4 37 6 41 6 43 -8 24 -9 -11 -19 -17 -23 -13 -4 4 -1 14 5 22 10 12 8 13 -11
9 -13 -4 -26 -11 -30 -17 -4 -6 -10 -7 -14 -3 -4 4 2 17 14 30 12 13 22 29 22
35 0 7 9 12 21 12 11 0 27 7 35 15 9 8 21 15 27 14 9 0 8 -2 0 -6z m-90 -10
c-7 -2 -19 -2 -25 0 -7 3 -2 5 12 5 14 0 19 -2 13 -5z m-303 -33 c0 -5 -4 -10
-10 -10 -5 0 -10 5 -10 10 0 6 5 10 10 10 6 0 10 -4 10 -10z m189 -36 c14 3
20 3 14 0 -7 -3 -13 -14 -13 -25 0 -10 -4 -19 -10 -19 -5 0 -10 -8 -10 -17 0
-14 -3 -14 -12 -5 -10 10 -10 15 2 22 13 9 13 11 0 20 -9 6 -18 6 -24 0 -18
-18 -46 -11 -46 11 0 16 4 19 19 14 14 -4 21 0 27 17 l7 23 10 -23 c8 -18 16
-22 36 -18z m251 2 c0 -2 -7 -9 -15 -16 -12 -10 -15 -10 -15 4 0 9 7 16 15 16
8 0 15 -2 15 -4z m-174 -86 c8 0 14 5 14 10 0 6 7 10 15 10 8 0 15 -4 15 -10
0 -5 -6 -10 -14 -10 -8 0 -16 -4 -18 -9 -6 -16 -42 -17 -43 -1 -2 21 8 37 13
22 2 -7 10 -12 18 -12z m213 6 c10 -12 8 -13 -8 -9 -12 3 -18 9 -15 14 7 12
10 11 23 -5z m4500 -90 c-9 -8 -10 -5 -5 14 3 14 7 36 8 50 1 14 3 8 5 -14 3
-22 -1 -43 -8 -50z m-4339 64 c0 -5 -4 -10 -10 -10 -5 0 -10 5 -10 10 0 6 5
10 10 10 6 0 10 -4 10 -10z m128 -43 c3 -13 -4 -17 -27 -17 -34 0 -40 14 -13
29 22 13 36 9 40 -12z m42 -4 c0 -24 -16 -48 -23 -36 -5 7 -3 32 2 51 4 11 21
-2 21 -15z m45 -23 c3 -5 12 -7 20 -3 9 3 15 -1 15 -8 0 -9 -12 -14 -34 -14
-38 0 -51 8 -41 24 8 14 32 14 40 1z m-455 -45 c-16 -19 -30 -19 -30 -1 0 8 8
16 18 18 24 6 27 1 12 -17z m391 -30 c13 8 87 -63 92 -89 4 -17 5 -16 6 6 0
14 7 28 13 30 9 3 8 9 -5 22 -9 10 -17 23 -17 29 0 8 3 8 8 2 4 -5 14 -10 22
-10 15 0 22 -55 8 -65 -13 -10 -14 -103 0 -107 8 -3 12 6 12 27 0 17 7 38 16
47 8 9 13 22 10 29 -3 7 -1 16 4 19 6 4 10 -4 10 -17 -1 -27 -25 -132 -35
-147 -4 -7 7 -11 31 -11 l37 0 -23 -25 c-30 -32 -62 -29 -70 5 -4 17 -12 24
-26 23 -10 -1 -13 0 -6 3 6 3 12 15 12 26 0 16 -3 18 -14 9 -11 -9 -16 -9 -22
0 -4 7 1 18 11 26 15 10 15 13 4 13 -26 0 -53 -26 -46 -44 4 -10 1 -16 -8 -16
-8 0 -15 4 -15 9 0 5 -7 16 -15 24 -18 19 -3 80 25 100 13 9 16 17 9 27 -5 8
-9 11 -9 5 0 -15 -60 -12 -69 4 -6 9 -1 29 12 55 22 40 22 41 25 13 2 -15 8
-25 13 -22z m-328 8 c-7 -2 -19 -2 -25 0 -7 3 -2 5 12 5 14 0 19 -2 13 -5z
m256 -19 c-9 -11 -8 -18 1 -29 10 -13 11 -18 1 -28 -10 -9 -14 -8 -22 6 -6 9
-16 17 -24 17 -8 0 -19 -8 -24 -17 -9 -15 -10 -13 -11 12 0 41 15 64 23 35 6
-24 31 -23 33 1 2 26 4 28 19 23 12 -5 13 -10 4 -20z m-79 6 c0 -5 -6 -10 -14
-10 -8 0 -18 5 -21 10 -3 6 3 10 14 10 12 0 21 -4 21 -10z m387 -46 c-7 -7
-37 7 -37 18 0 5 4 7 9 3 5 -3 13 0 18 7 5 10 8 8 11 -5 2 -10 2 -21 -1 -23z
m-257 -38 c0 -8 -4 -18 -10 -21 -5 -3 -10 3 -10 14 0 12 5 21 10 21 6 0 10 -6
10 -14z m280 -26 c0 -39 -1 -40 -35 -40 -28 0 -35 4 -35 20 0 11 7 20 15 20 8
0 15 9 15 20 0 13 7 20 20 20 17 0 20 -7 20 -40z m-391 16 c13 -15 5 -62 -11
-72 -5 -4 -15 -1 -21 5 -8 8 -6 11 6 11 9 0 17 5 17 10 0 15 -48 12 -53 -2 -3
-10 -9 -10 -23 -2 -28 16 -23 37 8 38 15 1 33 7 40 14 16 16 23 15 37 -2z
m441 -26 c0 -32 -14 -40 -24 -14 -10 27 -7 44 9 44 10 0 15 -10 15 -30z m50 4
c0 -8 -4 -14 -10 -14 -5 0 -10 9 -10 21 0 11 5 17 10 14 6 -3 10 -13 10 -21z
m-638 -25 c-2 -13 -8 -25 -13 -27 -5 -2 -9 -13 -9 -23 0 -11 -4 -18 -10 -14
-5 3 -7 12 -4 19 3 7 -2 19 -11 26 -22 18 -19 38 8 43 35 7 42 2 39 -24z m265
-66 c14 -27 -1 -31 -31 -8 -23 17 -36 5 -36 -32 0 -14 -6 -23 -15 -23 -20 0
-19 48 0 74 8 11 15 34 15 50 l0 31 28 -35 c15 -19 32 -45 39 -57z m2241 61
c-9 -9 -21 -13 -27 -9 -16 10 -3 25 22 25 20 0 20 -1 5 -16z m-3428 -4 c0 -5
-5 -10 -11 -10 -5 0 -7 5 -4 10 3 6 8 10 11 10 2 0 4 -4 4 -10z m1010 -30 c0
-6 -11 -10 -25 -10 -27 0 -28 1 -19 24 5 12 10 13 25 5 10 -5 19 -14 19 -19z
m-60 -10 c0 -12 -28 -25 -36 -17 -9 9 6 27 22 27 8 0 14 -5 14 -10z m590 -4
c0 -7 7 -19 15 -26 8 -7 15 -21 15 -32 0 -15 5 -18 20 -13 25 8 26 -10 3 -33
-12 -12 -18 -13 -21 -4 -2 6 -9 12 -16 12 -7 0 -12 14 -12 35 0 44 -8 51 -39
37 -22 -10 -25 -9 -25 7 0 24 9 31 37 31 13 0 23 -6 23 -14z m1874 -40 c-9
-22 -21 -20 -29 5 -5 14 -2 25 6 30 17 10 32 -13 23 -35z m1943 -3 c-3 -10 -5
-4 -5 12 0 17 2 24 5 18 2 -7 2 -21 0 -30z m-4381 0 c-10 -10 -19 5 -10 18 6
11 8 11 12 0 2 -7 1 -15 -2 -18z m634 -3 c0 -5 -2 -10 -4 -10 -3 0 -8 5 -11
10 -3 6 -1 10 4 10 6 0 11 -4 11 -10z m-325 -20 c3 -4 -11 -11 -30 -14 -33 -7
-49 -25 -22 -27 10 0 10 -2 0 -6 -7 -2 -13 -14 -14 -26 0 -12 -3 -16 -6 -9 -8
20 -21 14 -28 -15 -7 -33 -55 -74 -55 -48 0 8 7 15 16 15 13 0 15 6 10 30 -8
37 -15 91 -9 68 7 -29 33 -21 40 13 4 20 10 28 19 25 8 -3 14 -2 14 3 0 9 58
2 65 -9z m-283 -20 c3 -18 0 -31 -9 -34 -7 -3 -13 1 -13 8 0 8 -5 16 -12 18
-9 3 -8 9 2 21 21 23 27 21 32 -13z m58 20 c0 -5 -4 -10 -10 -10 -5 0 -10 5
-10 10 0 6 5 10 10 10 6 0 10 -4 10 -10z m644 -25 c-7 -18 -54 -16 -54 2 0 8
12 13 30 13 22 0 28 -4 24 -15z m-69 -14 c-3 -5 5 -12 17 -14 20 -4 19 -4 -4
-6 -19 -1 -28 4 -28 14 0 8 5 15 11 15 5 0 8 -4 4 -9z m-1200 -12 c10 -15 2
-19 -23 -12 -12 3 -19 9 -16 14 7 12 31 11 39 -2z m478 -9 c-3 -12 -8 -19 -11
-16 -5 6 5 36 12 36 2 0 2 -9 -1 -20z m817 10 c-8 -5 -19 -10 -25 -10 -5 0 -3
5 5 10 8 5 20 10 25 10 6 0 3 -5 -5 -10z m-1370 -15 c10 -12 10 -15 -4 -15 -9
0 -16 7 -16 15 0 8 2 15 4 15 2 0 9 -7 16 -15z m440 -4 c0 -28 -17 -35 -29
-12 -15 27 -14 31 9 31 13 0 20 -7 20 -19z m158 7 c-6 -18 -28 -21 -28 -4 0 9
7 16 16 16 9 0 14 -5 12 -12z m134 -60 c-2 -5 -7 -8 -13 -8 -11 0 -12 63 -1
74 7 8 21 -53 14 -66z m233 51 c0 -17 -43 -25 -58 -10 -8 8 -5 11 11 11 12 0
22 5 22 11 0 6 6 9 13 7 6 -3 12 -11 12 -19z m4022 -11 c-3 -7 -5 -2 -5 12 0
14 2 19 5 13 2 -7 2 -19 0 -25z m-4299 -5 c20 -52 23 -71 12 -78 -5 -3 -10 2
-10 11 0 10 -9 27 -20 39 -12 13 -18 29 -14 38 9 25 20 21 32 -10z m-158 7 c0
-5 -2 -10 -4 -10 -3 0 -8 5 -11 10 -3 6 -1 10 4 10 6 0 11 -4 11 -10z m878
-12 c-3 -7 -11 -13 -18 -13 -7 0 -15 6 -17 13 -3 7 4 12 17 12 13 0 20 -5 18
-12z m-773 -28 c3 -5 -1 -10 -9 -10 -9 0 -16 5 -16 10 0 6 4 10 9 10 6 0 13
-4 16 -10z m-74 -10 c5 0 9 -7 9 -15 0 -15 10 -19 42 -16 12 2 16 -3 13 -12
-7 -17 -65 -10 -65 9 0 7 -10 20 -22 30 -17 12 -18 15 -5 10 10 -3 23 -6 28
-6z m359 -15 c0 -8 -4 -15 -9 -15 -5 0 -11 7 -15 15 -3 9 0 15 9 15 8 0 15 -7
15 -15z m-174 -24 c-2 -34 -16 -55 -16 -23 0 11 -3 27 -6 36 -4 10 -1 16 9 16
10 0 14 -9 13 -29z m674 -11 c0 -22 5 -30 17 -30 13 0 14 -3 5 -12 -9 -9 -17
-5 -37 16 -26 28 -30 38 -18 49 16 17 33 5 33 -23z m-560 -25 c0 -12 -28 -4
-34 11 -12 31 -6 38 14 16 11 -12 20 -24 20 -27z m-25 -27 c21 -9 35 -28 20
-28 -12 0 -55 24 -55 32 0 11 4 10 35 -4z m-131 -4 c9 -3 16 -12 16 -20 0 -7
10 -20 22 -28 22 -15 22 -16 2 -16 -21 0 -84 46 -84 61 0 10 22 12 44 3z m109
-61 c-7 -2 -19 -2 -25 0 -7 3 -2 5 12 5 14 0 19 -2 13 -5z m141 -25 c-1 -18
-3 -35 -3 -37 -1 -2 -8 2 -16 9 -22 18 -20 60 4 60 15 0 18 -6 15 -32z m3425
-28 c41 -45 55 -49 73 -21 12 19 12 19 26 0 14 -20 130 -81 165 -86 12 -2 21
6 28 27 14 38 32 40 23 3 -14 -63 -25 -99 -33 -112 -14 -22 -165 -26 -242 -7
-35 9 -66 20 -69 24 -3 4 -31 7 -63 8 -63 1 -83 15 -66 46 8 15 5 20 -16 28
-15 6 -31 10 -36 10 -5 0 -9 3 -9 7 0 11 43 53 55 53 25 0 65 26 65 43 0 12 8
17 31 17 24 0 40 -10 68 -40z m-2879 -7 c0 -20 -24 -11 -28 10 -2 12 1 15 12
11 9 -3 16 -13 16 -21z m-455 -13 c8 -25 -13 -56 -28 -41 -11 11 -1 61 13 61
5 0 12 -9 15 -20z m-128 -22 c-3 -8 -6 -5 -6 6 -1 11 2 17 5 13 3 -3 4 -12 1
-19z m657 -13 c6 -18 -2 -45 -15 -45 -5 0 -9 14 -9 30 0 32 14 40 24 15z
m1501 5 c3 -5 -1 -10 -9 -10 -9 0 -16 5 -16 10 0 6 4 10 9 10 6 0 13 -4 16
-10z m-2125 -25 c0 -17 -5 -25 -17 -24 -11 0 -13 3 -5 6 6 2 12 13 12 24 0 10
2 19 5 19 3 0 5 -11 5 -25z m3190 5 c0 -5 -9 -10 -21 -10 -11 0 -17 5 -14 10
3 6 13 10 21 10 8 0 14 -4 14 -10z m-93 -26 c-3 -3 -12 -4 -19 -1 -8 3 -5 6 6
6 11 1 17 -2 13 -5z m-3139 -16 c-6 -18 -28 -21 -28 -4 0 9 7 16 16 16 9 0 14
-5 12 -12z m79 6 c-3 -3 -12 -4 -19 -1 -8 3 -5 6 6 6 11 1 17 -2 13 -5z m-2
-43 c45 -16 44 -27 -2 -27 -20 0 -38 -5 -41 -12 -6 -19 -22 -14 -22 6 0 24 24
75 28 59 1 -7 18 -19 37 -26z m159 -23 c-10 -33 -14 -35 -30 -14 -11 16 -11
21 -1 28 24 15 39 9 31 -14z m-59 -18 c-3 -5 -12 -10 -20 -10 -8 0 -17 5 -20
10 -4 6 5 10 20 10 15 0 24 -4 20 -10z m-100 -10 c3 -5 -1 -10 -10 -10 -9 0
-13 5 -10 10 3 6 8 10 10 10 2 0 7 -4 10 -10z m33 -51 c18 -6 29 -15 26 -20
-4 -6 -10 -6 -18 0 -6 5 -33 8 -59 7 -26 -2 -47 0 -47 4 0 20 53 25 98 9z m82
2 c0 -6 -4 -13 -10 -16 -5 -3 -10 1 -10 9 0 9 5 16 10 16 6 0 10 -4 10 -9z
m-80 -41 c0 -5 -4 -10 -10 -10 -5 0 -10 5 -10 10 0 6 5 10 10 10 6 0 10 -4 10
-10z m130 -40 c0 -5 -12 -10 -27 -9 -25 0 -26 1 -8 9 27 12 35 12 35 0z m145
-40 c-3 -5 -13 -10 -21 -10 -8 0 -14 5 -14 10 0 6 9 10 21 10 11 0 17 -4 14
-10z m1250 -23 c7 -8 16 -35 20 -60 7 -43 6 -47 -14 -47 -14 0 -21 6 -21 19 0
10 -7 24 -15 31 -8 7 -15 22 -15 35 0 36 20 46 45 22z m-1348 -23 c-3 -3 -12
-4 -19 -1 -8 3 -5 6 6 6 11 1 17 -2 13 -5z m688 -194 c3 -5 -1 -10 -10 -10 -9
0 -13 5 -10 10 3 6 8 10 10 10 2 0 7 -4 10 -10z m979 -5 c-4 -8 -10 -12 -15
-9 -11 6 -2 24 11 24 5 0 7 -7 4 -15z m46 -51 c0 -13 0 -27 0 -31 0 -5 -11 -8
-25 -8 -27 -1 -32 14 -13 33 9 9 9 12 0 12 -23 0 -12 15 13 16 20 2 25 -3 25
-22z m-60 -3 c0 -18 -18 -21 -30 -6 -10 13 -9 15 9 15 11 0 21 -4 21 -9z m-42
-42 c3 -18 -25 -52 -51 -62 -28 -10 -32 18 -7 53 23 32 52 37 58 9z m-108 -93
c0 -8 4 -16 9 -18 5 -1 3 -12 -6 -23 -15 -20 -15 -20 -9 1 5 15 2 24 -9 28
-19 7 -20 26 0 26 8 0 15 -6 15 -14z m-665 -6 c3 -5 1 -10 -4 -10 -6 0 -11 5
-11 10 0 6 2 10 4 10 3 0 8 -4 11 -10z m1145 -16 c0 -9 8 -29 17 -45 17 -28
14 -47 -6 -34 -6 3 -11 16 -11 29 0 12 -5 27 -12 34 -7 7 -8 12 -2 12 5 0 2 5
-6 10 -13 8 -12 10 3 10 9 0 17 -7 17 -16z m-580 -4 c0 -5 -4 -10 -10 -10 -5
0 -10 5 -10 10 0 6 5 10 10 10 6 0 10 -4 10 -10z m8 -54 c-26 -13 -71 -9 -62
6 3 5 17 7 29 4 13 -3 27 -1 30 4 4 6 11 7 17 4 5 -3 -1 -12 -14 -18z m-2788
4 c0 -5 -7 -10 -16 -10 -8 0 -12 5 -9 10 3 6 10 10 16 10 5 0 9 -4 9 -10z
m-106 -25 c-4 -8 -8 -15 -10 -15 -2 0 -4 7 -4 15 0 8 4 15 10 15 5 0 7 -7 4
-15z m2266 -31 c0 -14 -3 -14 -15 -4 -8 7 -15 14 -15 16 0 2 7 4 15 4 8 0 15
-7 15 -16z m1260 2 c0 -3 -4 -8 -10 -11 -5 -3 -10 -1 -10 4 0 6 5 11 10 11 6
0 10 -2 10 -4z m-1213 -12 c-3 -3 -12 -4 -19 -1 -8 3 -5 6 6 6 11 1 17 -2 13
-5z m533 -10 c0 -10 -28 -34 -39 -34 -11 0 -15 22 -6 31 6 7 45 9 45 3z m-500
-14 c0 -5 -4 -10 -10 -10 -5 0 -10 5 -10 10 0 6 5 10 10 10 6 0 10 -4 10 -10z
m415 -31 c8 -13 -24 -51 -37 -43 -5 3 -8 21 -6 39 2 29 5 32 19 24 10 -5 21
-14 24 -20z m-366 -16 c45 -26 47 -43 6 -43 -26 0 -33 3 -29 15 4 8 -1 17 -10
21 -17 7 -22 24 -7 24 5 0 23 -8 40 -17z m-822 -39 c-3 -3 -12 -4 -19 -1 -8 3
-5 6 6 6 11 1 17 -2 13 -5z m1196 -1 c-7 -2 -13 -11 -13 -19 0 -12 -3 -12 -14
-2 -12 11 -11 14 3 20 9 4 21 7 26 7 6 -1 4 -3 -2 -6z m1993 -143 c8 0 14 -4
14 -10 0 -15 -17 -12 -40 7 -23 20 -26 39 -7 46 7 2 13 -6 15 -20 2 -12 10
-23 18 -23z m-99 -92 c-3 -7 -5 -2 -5 12 0 14 2 19 5 13 2 -7 2 -19 0 -25z
m-2217 -47 c0 -6 -4 -13 -10 -16 -5 -3 -10 1 -10 9 0 9 5 16 10 16 6 0 10 -4
10 -9z m-1150 -31 c0 -5 -5 -10 -11 -10 -5 0 -7 5 -4 10 3 6 8 10 11 10 2 0 4
-4 4 -10z m3550 -6 c0 -2 -7 -4 -15 -4 -8 0 -15 4 -15 10 0 5 7 7 15 4 8 -4
15 -8 15 -10z m-3525 -14 c3 -5 1 -10 -4 -10 -6 0 -11 5 -11 10 0 6 2 10 4 10
3 0 8 -4 11 -10z m65 -10 c0 -5 -4 -10 -9 -10 -6 0 -13 5 -16 10 -3 6 1 10 9
10 9 0 16 -4 16 -10z m-70 -62 c12 -8 11 -8 -3 -4 -10 3 -34 6 -53 6 -19 0
-34 5 -34 10 0 12 66 3 90 -12z m3774 6 c9 -24 7 -28 -9 -14 -17 14 -20 30 -6
30 5 0 12 -7 15 -16z m-2639 -64 c3 -6 -1 -7 -9 -4 -18 7 -21 14 -7 14 6 0 13
-4 16 -10z m2645 -10 c0 -5 -5 -10 -11 -10 -5 0 -7 5 -4 10 3 6 8 10 11 10 2
0 4 -4 4 -10z m-2663 -72 c-2 -13 -4 -3 -4 22 0 25 2 35 4 23 2 -13 2 -33 0
-45z m106 -4 l32 -8 -30 -6 c-41 -9 -45 -5 -43 43 1 36 2 37 5 10 3 -26 10
-33 36 -39z m1051 -170 c3 -8 2 -12 -4 -9 -6 3 -10 10 -10 16 0 14 7 11 14 -7z
m-657 -129 c15 -19 33 -35 40 -35 17 0 34 -69 23 -91 -15 -26 -12 -47 6 -51
14 -3 13 -7 -6 -28 l-21 -25 6 29 c5 23 3 27 -9 23 -11 -5 -16 0 -16 13 0 25
-16 26 -29 3 -9 -16 -12 -16 -21 -3 -5 8 -10 23 -10 33 0 10 -5 28 -11 39 -6
12 -11 41 -11 65 2 74 17 81 59 28z m672 -22 c1 -7 -9 -13 -21 -13 -17 0 -19
3 -10 12 7 7 12 21 13 33 0 20 0 20 9 0 5 -11 9 -26 9 -32z m-1152 -89 c-3 -3
-12 -4 -19 -1 -8 3 -5 6 6 6 11 1 17 -2 13 -5z m-7 -65 c0 -11 -4 -19 -10 -19
-5 0 -10 6 -10 14 0 8 -3 23 -7 33 -6 16 -5 16 10 4 9 -7 17 -22 17 -32z
m1130 -4 c0 -8 -4 -15 -10 -15 -5 0 -10 7 -10 15 0 8 5 15 10 15 6 0 10 -7 10
-15z m-4227 -80 c-8 -22 -22 -18 -16 5 3 11 9 17 14 15 4 -3 6 -12 2 -20z
m-57 -32 c-10 -10 -19 5 -10 18 6 11 8 11 12 0 2 -7 1 -15 -2 -18z m3044 8 c0
-20 -13 -41 -21 -35 -15 9 -10 44 6 44 8 0 15 -4 15 -9z m618 -26 c-6 -14 -15
-25 -20 -25 -4 0 -8 11 -8 25 0 18 5 25 20 25 17 0 18 -3 8 -25z m-3611 -25
c3 -11 14 -20 24 -20 25 0 24 -17 -2 -31 -17 -9 -24 -7 -39 9 -13 14 -27 18
-47 15 -27 -5 -27 -5 -8 10 11 8 23 13 26 11 4 -2 9 3 13 11 8 21 27 19 33 -5z
m3063 -61 c0 -21 -16 -26 -23 -6 -6 17 3 38 14 31 5 -3 9 -14 9 -25z m-2843
-11 c-3 -8 -6 -5 -6 6 -1 11 2 17 5 13 3 -3 4 -12 1 -19z m50 0 c-3 -8 -6 -5
-6 6 -1 11 2 17 5 13 3 -3 4 -12 1 -19z m2772 -260 c1 -5 -6 -8 -14 -8 -16 0
-19 9 -8 36 6 16 7 16 14 -2 4 -10 8 -22 8 -26z m-9 -58 c0 -5 -7 -10 -15 -10
-8 0 -15 5 -15 10 0 6 7 10 15 10 8 0 15 -4 15 -10z m-65 -20 c3 -5 1 -10 -4
-10 -6 0 -11 5 -11 10 0 6 2 10 4 10 3 0 8 -4 11 -10z m752 -72 c-3 -7 -5 -2
-5 12 0 14 2 19 5 13 2 -7 2 -19 0 -25z m-3601 -180 c5 -7 3 -8 -6 -3 -7 4
-16 2 -21 -6 -4 -7 -11 -10 -16 -6 -4 5 -1 12 7 17 20 13 27 12 36 -2z m221
-74 c-3 -3 -12 -4 -19 -1 -8 3 -5 6 6 6 11 1 17 -2 13 -5z m3699 -110 c-5 -14
-47 -20 -59 -8 -3 3 9 26 26 51 l32 45 3 -37 c2 -20 1 -43 -2 -51z m-1136 62
c0 -8 6 -16 13 -19 7 -2 8 -8 3 -13 -5 -5 -11 -4 -13 4 -3 6 -13 12 -24 12
-19 0 -25 11 -12 23 12 12 33 7 33 -7z m-47 -67 c22 -20 22 -21 3 -35 -11 -8
-26 -14 -34 -14 -10 0 -12 -7 -8 -26 10 -38 30 -54 67 -54 24 0 30 -3 22 -11
-27 -27 -122 31 -123 74 0 9 -4 17 -10 17 -16 0 -12 18 12 45 26 30 42 31 71
4z m57 -29 c0 -11 -4 -20 -10 -20 -5 0 -10 9 -10 20 0 11 5 20 10 20 6 0 10
-9 10 -20z m1153 -20 c7 0 8 -3 1 -10 -6 -6 -18 -8 -27 -4 -18 7 -23 24 -7 24
6 0 11 8 11 18 1 11 3 9 6 -5 2 -13 9 -23 16 -23z m-1113 10 c0 -5 -7 -10 -15
-10 -8 0 -15 5 -15 10 0 6 7 10 15 10 8 0 15 -4 15 -10z m-270 -72 c-1 -34 -3
-39 -11 -26 -8 15 -3 68 7 68 2 0 4 -19 4 -42z m1190 8 c0 -13 -6 -27 -12 -30
-7 -4 -3 -4 9 -2 15 3 20 0 16 -10 -3 -8 -9 -14 -13 -14 -4 0 -11 -7 -14 -15
-4 -11 3 -19 20 -25 15 -6 22 -15 18 -21 -5 -8 -9 -8 -14 1 -5 8 -9 5 -13 -9
-3 -12 -13 -21 -22 -21 -14 0 -16 9 -13 60 1 33 0 60 -4 60 -3 0 -1 11 5 25
15 32 37 32 37 1z m563 7 c9 -9 -13 -34 -24 -27 -14 8 -11 34 4 34 8 0 17 -3
20 -7z m-452 -43 c5 0 9 -4 9 -10 0 -5 -7 -10 -15 -10 -11 0 -15 10 -14 33 1
23 3 26 6 10 2 -13 9 -23 14 -23z m-1466 20 c3 -5 17 -10 31 -10 26 0 32 -18
12 -38 -20 -20 -38 -14 -38 14 0 25 -2 26 -42 21 -43 -5 -43 -5 -13 9 37 16
42 17 50 4z m1829 -6 c16 -6 23 -64 8 -64 -15 0 -32 24 -32 47 0 25 1 26 24
17z m-1975 -31 c-1 -22 -2 -23 -6 -8 -3 11 -10 23 -17 27 -7 5 -5 8 7 8 12 0
17 -7 16 -27z m433 -3 c13 0 18 -7 17 -27 l0 -28 -16 23 c-8 12 -22 22 -29 22
-8 0 -14 8 -14 17 0 13 3 14 12 5 7 -7 20 -12 30 -12z m1318 0 c0 -5 -2 -10
-4 -10 -3 0 -8 5 -11 10 -3 6 -1 10 4 10 6 0 11 -4 11 -10z m-1697 -6 c3 -3 3
-13 0 -21 -5 -12 -7 -12 -14 -1 -15 23 -4 40 14 22z m1595 -38 c0 -23 6 -34
44 -76 19 -21 14 -30 -17 -30 -33 0 -47 23 -40 63 6 30 4 36 -14 42 -28 9 -27
25 3 25 18 0 24 -5 24 -24z m-2443 4 c3 -5 1 -10 -4 -10 -6 0 -11 5 -11 10 0
6 2 10 4 10 3 0 8 -4 11 -10z m942 -42 c-2 -13 -4 -5 -4 17 -1 22 1 32 4 23 2
-10 2 -28 0 -40z m103 42 c0 -5 -4 -10 -9 -10 -5 0 -11 -12 -13 -27 -2 -22 -8
-28 -28 -28 -20 0 -25 5 -25 25 0 20 6 26 28 28 15 2 27 8 27 13 0 5 5 9 10 9
6 0 10 -4 10 -10z m-986 -23 c11 -8 15 -19 10 -30 -9 -24 -26 -21 -53 7 -17
18 -19 25 -9 29 22 9 33 8 52 -6z m776 3 c0 -5 -4 -10 -10 -10 -5 0 -10 5 -10
10 0 6 5 10 10 10 6 0 10 -4 10 -10z m70 -27 c0 -5 -4 -14 -9 -21 -7 -11 -9
-11 -14 1 -3 8 -3 18 0 21 9 8 23 7 23 -1z m-193 -84 c-11 -15 -17 -17 -23 -8
-4 7 -2 15 4 17 7 2 12 13 12 25 1 20 2 20 11 4 7 -12 6 -23 -4 -38z m260 8
c-6 -20 -27 -19 -27 2 0 14 5 19 15 14 9 -3 14 -10 12 -16z m1303 -13 c0 -13
5 -24 10 -24 6 0 10 10 10 23 1 21 1 21 18 -5 9 -16 24 -28 33 -28 24 0 33
-29 11 -36 -9 -3 -25 -9 -34 -14 -13 -8 -18 -4 -21 18 -2 15 -3 10 -2 -10 3
-34 0 -38 -19 -38 -22 0 -23 4 -24 75 0 44 3 73 9 70 5 -4 9 -17 9 -31z m140
-20 c0 -8 -4 -14 -10 -14 -5 0 -10 9 -10 21 0 11 5 17 10 14 6 -3 10 -13 10
-21z m-1615 -3 c3 -5 1 -12 -5 -16 -5 -3 -10 1 -10 9 0 18 6 21 15 7z m163
-11 c15 -1 15 -2 -1 -11 -22 -13 -44 2 -31 22 6 10 9 10 12 1 2 -7 11 -12 20
-12z m1742 1 c0 -5 9 -13 20 -16 28 -9 25 -40 -6 -54 -15 -6 -28 -10 -29 -9
-1 2 -5 22 -9 46 -5 34 -3 42 9 42 8 0 15 -4 15 -9z m45 -171 c-3 -5 -10 -10
-16 -10 -5 0 -9 5 -9 10 0 6 7 10 16 10 8 0 12 -4 9 -10z m37 -160 c-6 -15
-11 -19 -16 -12 -4 7 -1 18 6 26 17 19 20 14 10 -14z m-510 -432 c-13 -13 -26
8 -17 30 6 16 7 16 17 -1 7 -13 7 -22 0 -29z m-3372 -3702 c0 -24 -28 -39 -57
-30 -26 7 -27 8 -5 11 12 3 22 11 22 19 0 8 9 14 20 14 11 0 20 -6 20 -14z
m-25 -94 c-8 -2 -15 -9 -16 -15 -1 -7 -4 -1 -8 13 -11 35 -4 42 20 22 16 -14
17 -18 4 -20z m225 -32 c0 -5 -2 -10 -4 -10 -3 0 -8 5 -11 10 -3 6 -1 10 4 10
6 0 11 -4 11 -10z m5 -49 c3 -5 1 -12 -5 -16 -5 -3 -10 1 -10 9 0 18 6 21 15
7z m-246 -666 c29 -58 51 -110 49 -116 -3 -10 -73 90 -102 148 -17 34 -21 73
-8 73 5 0 32 -47 61 -105z m569 -1899 c-1 -24 -5 -33 -15 -29 -7 3 -13 -2 -13
-12 0 -9 -4 -13 -10 -10 -5 3 -10 -1 -10 -10 0 -8 -7 -18 -15 -21 -8 -3 -17
-14 -20 -23 -3 -10 -16 -24 -29 -30 -13 -7 -29 -23 -35 -35 -18 -34 -35 -60
-48 -71 -13 -10 -26 -125 -15 -125 13 0 140 88 179 124 52 48 83 70 89 63 12
-12 -80 -147 -100 -147 -6 0 -24 -14 -40 -31 -17 -16 -36 -27 -43 -24 -8 2
-11 0 -8 -5 3 -6 -2 -13 -12 -16 -10 -3 -26 -10 -35 -15 -10 -5 -24 -9 -32 -9
-8 0 -21 -7 -30 -15 -8 -9 -18 -16 -20 -16 -17 0 -82 -33 -92 -47 -8 -11 -13
-12 -19 -3 -4 8 1 25 14 42 11 15 21 33 21 38 0 9 81 172 90 181 3 3 23 27 45
55 22 27 48 58 57 67 9 9 40 49 68 88 58 78 80 89 78 36z m-178 -966 c13 0 13
-1 0 -10 -20 -13 -67 -13 -75 0 -4 6 1 7 11 3 13 -5 15 -3 9 7 -6 10 -2 12 16
7 13 -4 31 -7 39 -7z m80 -44 c0 -3 -4 -8 -10 -11 -5 -3 -10 -1 -10 4 0 6 5
11 10 11 6 0 10 -2 10 -4z"/>
<path d="M5442 12630 c0 -14 2 -19 5 -12 2 6 2 18 0 25 -3 6 -5 1 -5 -13z"/>
<path d="M5580 12620 c0 -5 5 -10 10 -10 6 0 10 5 10 10 0 6 -4 10 -10 10 -5
0 -10 -4 -10 -10z"/>
<path d="M5320 12605 c0 -8 5 -15 10 -15 6 0 10 7 10 15 0 8 -4 15 -10 15 -5
0 -10 -7 -10 -15z"/>
<path d="M5390 12470 c0 -5 5 -10 10 -10 6 0 10 5 10 10 0 6 -4 10 -10 10 -5
0 -10 -4 -10 -10z"/>
<path d="M1940 12175 c0 -8 5 -15 10 -15 6 0 10 7 10 15 0 8 -4 15 -10 15 -5
0 -10 -7 -10 -15z"/>
<path d="M5436 11584 c-9 -24 -7 -28 9 -14 17 14 20 30 6 30 -5 0 -12 -7 -15
-16z"/>
<path d="M92 12731 c-10 -6 -9 -10 7 -14 14 -3 21 0 21 9 0 16 -9 18 -28 5z"/>
<path d="M880 12672 c0 -39 19 -69 28 -44 2 7 10 12 18 12 19 0 3 40 -24 58
-21 14 -22 13 -22 -26z"/>
<path d="M111 12664 c0 -11 3 -14 6 -6 3 7 2 16 -1 19 -3 4 -6 -2 -5 -13z"/>
<path d="M715 12630 c-17 -7 -17 -9 -2 -9 9 -1 20 -1 24 -2 4 0 9 4 11 10 4
13 -5 13 -33 1z"/>
<path d="M503 12601 c-26 -21 -30 -41 -9 -41 19 0 67 40 61 51 -9 14 -28 10
-52 -10z"/>
<path d="M902 12578 c-14 -14 -17 -15 -58 -17 -15 0 -23 -5 -19 -11 4 -6 15
-8 26 -5 10 4 19 2 19 -4 0 -23 59 18 60 42 0 11 -15 8 -28 -5z"/>
<path d="M960 12540 c0 -5 4 -10 9 -10 6 0 13 5 16 10 3 6 -1 10 -9 10 -9 0
-16 -4 -16 -10z"/>
<path d="M968 12483 c6 -2 18 -2 25 0 6 3 1 5 -13 5 -14 0 -19 -2 -12 -5z"/>
<path d="M436 12441 c-4 -7 -5 -15 -2 -18 9 -9 19 4 14 18 -4 11 -6 11 -12 0z"/>
<path d="M1065 12391 c-7 -12 12 -24 25 -16 11 7 4 25 -10 25 -5 0 -11 -4 -15
-9z"/>
<path d="M1193 12380 c-8 -12 -9 -21 -3 -25 6 -3 10 1 10 9 0 9 6 16 14 16 8
0 18 5 21 10 3 6 -2 10 -12 10 -10 0 -24 -9 -30 -20z"/>
<path d="M1211 12337 c-21 -21 -13 -56 15 -63 30 -8 40 0 48 42 6 29 5 31 -22
32 -16 0 -34 -4 -41 -11z"/>
<path d="M1140 12321 c0 -5 -3 -16 -6 -25 -4 -12 0 -16 15 -16 16 0 20 6 19
25 -2 23 -28 37 -28 16z"/>
<path d="M1585 12280 c-3 -5 -1 -10 4 -10 6 0 11 5 11 10 0 6 -2 10 -4 10 -3
0 -8 -4 -11 -10z"/>
<path d="M1111 12264 c0 -11 3 -14 6 -6 3 7 2 16 -1 19 -3 4 -6 -2 -5 -13z"/>
<path d="M627 12254 c-6 -10 9 -42 16 -34 3 3 1 14 -3 24 -3 11 -9 15 -13 10z"/>
<path d="M0 12224 c0 -8 5 -12 10 -9 6 3 10 10 10 16 0 5 -4 9 -10 9 -5 0 -10
-7 -10 -16z"/>
<path d="M590 12224 c0 -17 22 -14 28 4 2 7 -3 12 -12 12 -9 0 -16 -7 -16 -16z"/>
<path d="M1210 12090 c-13 -8 -12 -10 3 -10 9 0 17 5 17 10 0 12 -1 12 -20 0z"/>
<path d="M2208 11943 c7 -3 16 -2 19 1 4 3 -2 6 -13 5 -11 0 -14 -3 -6 -6z"/>
<path d="M3505 11840 c3 -5 11 -10 16 -10 6 0 7 5 4 10 -3 6 -11 10 -16 10 -6
0 -7 -4 -4 -10z"/>
<path d="M2140 11825 c-10 -12 -10 -15 4 -15 9 0 16 7 16 15 0 8 -2 15 -4 15
-2 0 -9 -7 -16 -15z"/>
<path d="M2305 11821 c-3 -5 -1 -12 5 -16 5 -3 10 1 10 9 0 18 -6 21 -15 7z"/>
<path d="M2197 11804 c-4 -4 -7 -14 -7 -23 0 -11 3 -12 11 -4 6 6 10 16 7 23
-2 6 -7 8 -11 4z"/>
<path d="M2240 11780 c0 -5 7 -10 15 -10 8 0 15 5 15 10 0 6 -7 10 -15 10 -8
0 -15 -4 -15 -10z"/>
<path d="M3535 11720 c10 -11 20 -20 23 -20 3 0 -3 9 -13 20 -10 11 -20 20
-23 20 -3 0 3 -9 13 -20z"/>
<path d="M2378 11603 c7 -3 16 -2 19 1 4 3 -2 6 -13 5 -11 0 -14 -3 -6 -6z"/>
<path d="M2440 11580 c0 -11 5 -20 10 -20 6 0 10 9 10 20 0 11 -4 20 -10 20
-5 0 -10 -9 -10 -20z"/>
<path d="M2481 11534 c0 -11 3 -14 6 -6 3 7 2 16 -1 19 -3 4 -6 -2 -5 -13z"/>
<path d="M2602 11524 c-17 -19 -7 -64 14 -64 19 0 28 24 20 55 -7 29 -15 31
-34 9z"/>
<path d="M3715 11530 c4 -6 11 -8 16 -5 14 9 11 15 -7 15 -8 0 -12 -5 -9 -10z"/>
<path d="M2500 11484 c0 -17 22 -14 28 4 2 7 -3 12 -12 12 -9 0 -16 -7 -16
-16z"/>
<path d="M2385 11480 c-3 -5 -1 -10 4 -10 6 0 11 5 11 10 0 6 -2 10 -4 10 -3
0 -8 -4 -11 -10z"/>
<path d="M3585 11470 c3 -5 8 -10 11 -10 2 0 4 5 4 10 0 6 -5 10 -11 10 -5 0
-7 -4 -4 -10z"/>
<path d="M2421 11403 c-1 -34 3 -43 15 -43 12 0 14 3 6 13 -6 6 -12 26 -15 42
-3 24 -4 22 -6 -12z"/>
<path d="M4080 11349 c0 -5 5 -7 10 -4 6 3 10 8 10 11 0 2 -4 4 -10 4 -5 0
-10 -5 -10 -11z"/>
<path d="M4040 11309 c0 -11 5 -17 10 -14 6 3 10 13 10 21 0 8 -4 14 -10 14
-5 0 -10 -9 -10 -21z"/>
<path d="M2365 11260 c-4 -6 3 -10 14 -10 25 0 27 6 6 13 -8 4 -17 2 -20 -3z"/>
<path d="M2783 11203 c-15 -5 -18 -33 -4 -33 5 0 11 9 14 20 3 11 4 20 4 19
-1 0 -8 -3 -14 -6z"/>
<path d="M2465 11160 c-6 -9 17 -40 29 -40 11 0 6 21 -8 36 -9 9 -17 10 -21 4z"/>
<path d="M5991 11065 c-1 -25 15 -52 26 -42 4 5 2 11 -4 15 -6 4 -13 16 -16
27 l-5 20 -1 -20z"/>
<path d="M2512 11029 c2 -6 8 -10 13 -10 5 0 11 4 13 10 2 6 -4 11 -13 11 -9
0 -15 -5 -13 -11z"/>
<path d="M2552 10864 c-7 -8 -10 -19 -6 -26 5 -7 10 -3 16 12 10 28 7 33 -10
14z"/>
<path d="M2840 10865 c-21 -26 18 -32 43 -6 l21 21 -26 0 c-14 0 -31 -7 -38
-15z"/>
<path d="M2790 10809 c0 -5 11 -9 25 -9 14 0 25 -4 25 -10 0 -5 5 -10 11 -10
6 0 9 6 7 12 -5 14 -68 30 -68 17z"/>
<path d="M6152 10795 c0 -16 2 -22 5 -12 2 9 2 23 0 30 -3 6 -5 -1 -5 -18z"/>
<path d="M2480 10794 c0 -8 5 -12 10 -9 6 4 8 11 5 16 -9 14 -15 11 -15 -7z"/>
<path d="M2895 10771 c-3 -5 -1 -12 5 -16 5 -3 10 1 10 9 0 18 -6 21 -15 7z"/>
<path d="M6000 10736 c0 -9 5 -16 10 -16 6 0 10 4 10 9 0 6 -4 13 -10 16 -5 3
-10 -1 -10 -9z"/>
<path d="M6151 10735 c-1 -27 10 -65 19 -65 4 0 8 11 8 25 0 14 -4 25 -9 25
-4 0 -10 8 -12 18 -4 14 -5 14 -6 -3z"/>
<path d="M2515 10730 c-3 -5 -1 -10 4 -10 6 0 11 5 11 10 0 6 -2 10 -4 10 -3
0 -8 -4 -11 -10z"/>
<path d="M2940 10731 c0 -5 7 -12 16 -15 14 -5 15 -4 4 9 -14 17 -20 19 -20 6z"/>
<path d="M2492 10675 c-15 -33 -15 -35 3 -35 10 0 15 10 15 30 0 37 -3 37 -18
5z"/>
<path d="M2900 10660 c0 -11 5 -20 10 -20 6 0 10 9 10 20 0 11 -4 20 -10 20
-5 0 -10 -9 -10 -20z"/>
<path d="M6142 10629 c2 -6 8 -10 13 -10 5 0 11 4 13 10 2 6 -4 11 -13 11 -9
0 -15 -5 -13 -11z"/>
<path d="M2481 10604 c0 -11 3 -14 6 -6 3 7 2 16 -1 19 -3 4 -6 -2 -5 -13z"/>
<path d="M6200 10610 c0 -5 5 -10 10 -10 6 0 10 5 10 10 0 6 -4 10 -10 10 -5
0 -10 -4 -10 -10z"/>
<path d="M2240 10595 c0 -9 5 -15 11 -13 6 2 11 8 11 13 0 5 -5 11 -11 13 -6
2 -11 -4 -11 -13z"/>
<path d="M3055 10579 c-4 -6 -5 -11 -4 -12 2 -1 19 -10 37 -20 33 -19 40 -11
22 24 -12 20 -45 26 -55 8z"/>
<path d="M3040 10496 c0 -9 5 -16 10 -16 6 0 10 4 10 9 0 6 -4 13 -10 16 -5 3
-10 -1 -10 -9z"/>
<path d="M6160 10498 c0 -25 12 -58 22 -58 13 0 4 63 -10 68 -7 2 -12 -2 -12
-10z"/>
<path d="M3120 10469 c0 -5 5 -7 10 -4 6 3 10 8 10 11 0 2 -4 4 -10 4 -5 0
-10 -5 -10 -11z"/>
<path d="M3052 10458 c-17 -17 -15 -58 3 -58 8 0 15 -8 15 -17 0 -10 3 -28 6
-40 5 -17 2 -23 -10 -23 -10 0 -16 9 -16 23 -1 21 -1 21 -15 3 -13 -17 -12
-20 11 -33 15 -7 27 -13 28 -13 2 0 13 24 27 53 13 28 30 57 38 63 12 10 11
13 -7 23 -23 12 -26 9 -23 -21 2 -11 -5 -18 -14 -18 -11 0 -15 6 -11 18 9 26
-15 57 -32 40z"/>
<path d="M6255 10430 c14 -28 14 -30 -2 -30 -17 -1 -17 -1 0 -11 23 -13 13
-29 -19 -29 l-25 0 23 -22 c35 -34 60 -78 54 -93 -3 -8 -1 -17 5 -21 5 -3 7
-14 4 -23 -3 -12 3 -22 20 -31 14 -7 25 -18 25 -23 0 -5 10 3 21 18 24 30 14
47 -22 38 -14 -4 -19 0 -19 16 0 24 3 25 29 10 13 -9 23 -9 37 -1 18 11 18 11
-3 12 -42 0 -96 79 -56 81 10 0 13 3 6 6 -7 2 -13 11 -13 18 0 7 -8 16 -17 20
-17 6 -17 7 1 21 19 14 19 14 -2 14 -15 0 -22 6 -22 18 0 19 -18 42 -32 42 -5
0 -2 -13 7 -30z"/>
<path d="M6552 10440 c0 -14 2 -19 5 -12 2 6 2 18 0 25 -3 6 -5 1 -5 -13z"/>
<path d="M2235 10432 c3 -8 5 -16 5 -18 0 -3 9 0 20 6 28 15 25 28 -5 26 -17
-1 -23 -6 -20 -14z"/>
<path d="M6541 10393 c7 -10 15 -20 16 -22 2 -2 3 3 3 11 0 9 -7 19 -16 22
-15 6 -15 4 -3 -11z"/>
<path d="M2186 10392 c-2 -4 -1 -14 5 -22 7 -12 9 -10 9 8 0 23 -5 28 -14 14z"/>
<path d="M3130 10390 c0 -5 4 -10 9 -10 6 0 13 5 16 10 3 6 -1 10 -9 10 -9 0
-16 -4 -16 -10z"/>
<path d="M5500 10353 c0 -5 5 -15 10 -23 8 -12 10 -11 10 8 0 12 -4 22 -10 22
-5 0 -10 -3 -10 -7z"/>
<path d="M2190 10330 c0 -5 5 -10 11 -10 5 0 7 5 4 10 -3 6 -8 10 -11 10 -2 0
-4 -4 -4 -10z"/>
<path d="M5384 10323 c2 -9 8 -19 14 -21 14 -4 15 0 6 22 -8 21 -23 20 -20 -1z"/>
<path d="M6490 10330 c0 -5 5 -10 10 -10 6 0 10 5 10 10 0 6 -4 10 -10 10 -5
0 -10 -4 -10 -10z"/>
<path d="M5440 10284 c0 -22 2 -25 15 -14 12 10 13 16 4 26 -16 20 -19 18 -19
-12z"/>
<path d="M6243 10265 c0 -22 2 -30 4 -17 2 12 2 30 0 40 -3 9 -5 -1 -4 -23z"/>
<path d="M3121 10224 c0 -11 3 -14 6 -6 3 7 2 16 -1 19 -3 4 -6 -2 -5 -13z"/>
<path d="M3150 10205 c0 -17 -8 -29 -24 -36 -16 -8 -22 -17 -19 -27 5 -13 8
-12 20 4 12 17 14 17 26 0 11 -16 13 -11 13 33 0 28 -3 51 -8 51 -4 0 -8 -11
-8 -25z"/>
<path d="M4881 10214 c0 -11 3 -14 6 -6 3 7 2 16 -1 19 -3 4 -6 -2 -5 -13z"/>
<path d="M6270 10150 c0 -5 4 -10 9 -10 6 0 13 5 16 10 3 6 -1 10 -9 10 -9 0
-16 -4 -16 -10z"/>
<path d="M1991 10044 c0 -11 3 -14 6 -6 3 7 2 16 -1 19 -3 4 -6 -2 -5 -13z"/>
<path d="M2721 9990 c0 -25 40 -47 74 -40 29 6 29 6 -12 14 -24 4 -47 15 -53
24 -8 14 -9 14 -9 2z"/>
<path d="M3117 9993 c-9 -14 3 -73 14 -73 10 0 10 24 0 60 -4 15 -10 20 -14
13z"/>
<path d="M3060 9930 c0 -16 5 -30 11 -30 6 0 9 6 6 14 -3 8 1 17 9 20 18 7 9
26 -12 26 -9 0 -14 -11 -14 -30z"/>
<path d="M3055 9839 c-10 -30 18 -57 39 -39 20 16 21 40 1 40 -8 0 -15 5 -15
10 0 18 -19 10 -25 -11z"/>
<path d="M3165 9850 c-18 -8 -17 -9 8 -9 15 -1 27 4 27 9 0 12 -8 12 -35 0z"/>
<path d="M1680 9790 c0 -5 9 -10 20 -10 11 0 20 5 20 10 0 6 -9 10 -20 10 -11
0 -20 -4 -20 -10z"/>
<path d="M3040 9744 c0 -8 5 -12 10 -9 6 3 10 10 10 16 0 5 -4 9 -10 9 -5 0
-10 -7 -10 -16z"/>
<path d="M3106 9738 c-9 -34 -7 -58 4 -58 6 0 10 7 10 15 0 9 7 27 16 40 15
24 15 25 -4 25 -12 0 -22 -9 -26 -22z"/>
<path d="M4060 9550 c0 -5 5 -10 10 -10 6 0 10 5 10 10 0 6 -4 10 -10 10 -5 0
-10 -4 -10 -10z"/>
<path d="M4314 9445 c9 -32 10 -97 2 -122 -4 -14 -3 -23 3 -23 11 0 41 96 41
134 0 27 -15 35 -23 14 -4 -10 -8 -9 -17 2 -9 12 -10 12 -6 -5z m31 -25 c3 -5
1 -10 -4 -10 -6 0 -11 5 -11 10 0 6 2 10 4 10 3 0 8 -4 11 -10z"/>
<path d="M2800 9404 c0 -40 11 -54 41 -54 17 0 8 35 -16 65 l-25 30 0 -41z"/>
<path d="M228 9363 c7 -3 16 -2 19 1 4 3 -2 6 -13 5 -11 0 -14 -3 -6 -6z"/>
<path d="M560 9351 c0 -12 29 -35 36 -28 11 10 -5 37 -21 37 -8 0 -15 -4 -15
-9z"/>
<path d="M2960 9322 c0 -5 7 -16 16 -23 14 -12 16 -11 13 5 -4 20 -29 35 -29
18z"/>
<path d="M4305 9270 c3 -5 8 -10 11 -10 2 0 4 5 4 10 0 6 -5 10 -11 10 -5 0
-7 -4 -4 -10z"/>
<path d="M4297 9232 c-18 -20 -22 -42 -9 -42 11 0 37 48 30 55 -3 3 -12 -3
-21 -13z"/>
<path d="M2791 9214 c0 -11 3 -14 6 -6 3 7 2 16 -1 19 -3 4 -6 -2 -5 -13z"/>
<path d="M2699 9098 c8 -20 35 -27 50 -12 8 8 -22 34 -40 34 -15 0 -17 -4 -10
-22z"/>
<path d="M4290 9030 c0 -5 7 -7 15 -4 8 4 15 8 15 10 0 2 -7 4 -15 4 -8 0 -15
-4 -15 -10z"/>
<path d="M2920 8941 c0 -11 9 -23 20 -26 11 -3 20 -11 20 -16 0 -11 25 -39 34
-39 16 0 2 24 -34 60 -32 32 -40 36 -40 21z"/>
<path d="M80 8931 c0 -12 5 -21 10 -21 6 0 10 6 10 14 0 8 -4 18 -10 21 -5 3
-10 -3 -10 -14z"/>
<path d="M3858 8943 c-10 -2 -18 -12 -18 -20 0 -31 60 -57 75 -33 6 10 -23 61
-34 59 -3 -1 -14 -3 -23 -6z"/>
<path d="M282 8878 c-15 -15 -16 -31 -1 -26 6 2 10 7 9 12 -1 5 4 13 12 17 7
5 8 9 3 9 -6 0 -16 -5 -23 -12z"/>
<path d="M2630 8799 c0 -11 4 -18 10 -14 5 3 7 12 3 20 -7 21 -13 19 -13 -6z"/>
<path d="M2787 8813 c-3 -5 -1 -17 4 -28 7 -17 8 -17 8 8 1 27 -4 34 -12 20z"/>
<path d="M2600 8759 c0 -11 5 -17 10 -14 6 3 10 13 10 21 0 8 -4 14 -10 14 -5
0 -10 -9 -10 -21z"/>
<path d="M2827 8764 c-4 -4 -7 -16 -7 -26 0 -20 -16 -24 -23 -5 -3 6 -6 8 -6
2 0 -5 3 -17 9 -25 8 -12 13 -12 40 1 32 15 32 15 13 37 -10 13 -22 20 -26 16z"/>
<path d="M2545 8730 c-3 -5 -1 -10 4 -10 6 0 11 5 11 10 0 6 -2 10 -4 10 -3 0
-8 -4 -11 -10z"/>
<path d="M2698 8723 c7 -3 16 -2 19 1 4 3 -2 6 -13 5 -11 0 -14 -3 -6 -6z"/>
<path d="M2252 8700 c-11 -18 -9 -27 14 -66 l27 -46 14 32 c15 37 18 94 4 85
-5 -3 -12 -1 -16 5 -10 16 -29 12 -43 -10z"/>
<path d="M4520 8650 c0 -5 5 -10 11 -10 5 0 7 5 4 10 -3 6 -8 10 -11 10 -2 0
-4 -4 -4 -10z"/>
<path d="M640 8630 c0 -5 5 -10 10 -10 6 0 10 5 10 10 0 6 -4 10 -10 10 -5 0
-10 -4 -10 -10z"/>
<path d="M2645 8620 c3 -5 13 -10 21 -10 8 0 12 5 9 10 -3 6 -13 10 -21 10 -8
0 -12 -4 -9 -10z"/>
<path d="M2413 8608 c2 -7 10 -13 17 -13 7 0 15 6 18 13 2 7 -5 12 -18 12 -13
0 -20 -5 -17 -12z"/>
<path d="M820 8576 c0 -9 5 -16 10 -16 6 0 10 4 10 9 0 6 -4 13 -10 16 -5 3
-10 -1 -10 -9z"/>
<path d="M1730 8580 c0 -5 5 -10 10 -10 6 0 10 5 10 10 0 6 -4 10 -10 10 -5 0
-10 -4 -10 -10z"/>
<path d="M2120 8576 c0 -9 -8 -16 -17 -16 -17 -1 -17 -1 0 -11 9 -5 22 -7 27
-4 13 8 13 32 0 40 -5 3 -10 -1 -10 -9z"/>
<path d="M2241 8564 c0 -11 3 -14 6 -6 3 7 2 16 -1 19 -3 4 -6 -2 -5 -13z"/>
<path d="M2365 8570 c3 -5 8 -10 11 -10 2 0 4 5 4 10 0 6 -5 10 -11 10 -5 0
-7 -4 -4 -10z"/>
<path d="M1476 8561 c-3 -5 5 -11 19 -13 17 -4 25 -1 25 8 0 15 -36 19 -44 5z"/>
<path d="M4418 8563 c12 -2 32 -2 45 0 12 2 2 4 -23 4 -25 0 -35 -2 -22 -4z"/>
<path d="M2060 8501 c0 -5 7 -11 14 -14 10 -4 13 -1 9 9 -6 15 -23 19 -23 5z"/>
<path d="M1698 8483 c7 -3 16 -2 19 1 4 3 -2 6 -13 5 -11 0 -14 -3 -6 -6z"/>
<path d="M4547 8012 c-5 -28 7 -62 23 -62 14 0 12 14 -2 28 -10 10 -10 15 1
22 12 7 12 11 -1 24 -14 14 -16 13 -21 -12z"/>
<path d="M4744 7764 c3 -9 6 -31 6 -50 0 -30 3 -34 26 -34 14 0 23 -4 20 -9
-11 -17 14 -63 36 -69 21 -5 21 -6 2 -13 -18 -8 -18 -8 3 -14 12 -4 23 -17 25
-28 2 -12 11 -23 21 -25 45 -9 -9 115 -68 154 -13 8 -27 30 -31 47 -3 18 -11
38 -16 45 -15 17 -31 15 -24 -4z"/>
<path d="M5196 7746 c4 -16 1 -25 -10 -29 -12 -5 -13 -17 -9 -61 7 -66 -2 -73
-17 -15 -11 38 -12 40 -25 23 -30 -39 -7 -83 43 -84 13 0 22 -6 22 -15 0 -18
1 -18 -43 0 -19 8 -37 20 -39 27 -7 21 -28 -2 -28 -32 0 -19 7 -33 19 -40 25
-13 40 -13 21 1 -11 7 -1 8 36 4 l51 -6 -1 120 c0 90 -3 122 -13 125 -10 4
-12 -1 -7 -18z"/>
<path d="M5025 7680 c17 -7 17 -9 3 -9 -20 -1 -25 -37 -6 -43 14 -5 48 22 48
38 0 6 -10 14 -22 18 -33 8 -46 6 -23 -4z"/>
<path d="M4960 7528 c0 -4 4 -8 8 -8 10 0 33 -60 27 -70 -5 -8 50 -32 57 -25
8 8 -5 95 -14 95 -6 0 -7 -16 -3 -41 6 -32 4 -40 -6 -37 -17 6 -31 71 -17 79
5 4 -4 8 -21 11 -17 2 -31 1 -31 -4z"/>
<path d="M4896 7501 c-8 -12 42 -111 55 -111 5 0 9 -7 9 -15 0 -9 9 -15 23
-15 l22 1 -22 18 c-13 11 -23 26 -23 35 0 9 -6 16 -12 17 -7 0 -4 4 7 9 16 7
17 9 3 9 -9 1 -19 10 -23 20 -8 26 -31 45 -39 32z"/>
<path d="M5600 6911 c0 -10 174 -77 265 -101 107 -29 250 -77 303 -102 24 -11
46 -18 49 -14 7 7 -106 58 -205 92 -43 15 -90 32 -107 39 -31 13 -241 79 -282
88 -13 3 -23 2 -23 -2z"/>
<path d="M4656 6678 c-22 -31 -20 -45 6 -51 31 -8 38 0 34 36 -4 39 -19 45
-40 15z"/>
<path d="M6236 6681 c5 -5 50 -30 99 -56 143 -75 219 -129 310 -218 83 -82
160 -136 173 -122 12 12 -172 180 -264 241 -131 86 -369 202 -318 155z"/>
<path d="M5270 5576 c0 -19 7 -41 15 -50 17 -17 20 -53 4 -58 -7 -2 -11 -74
-12 -219 -2 -173 1 -219 12 -233 13 -15 16 -15 29 -2 14 13 17 13 26 0 10 -13
14 -13 31 -1 18 14 18 15 1 32 -11 12 -16 28 -14 45 3 21 0 26 -11 23 -24 -5
-45 13 -37 32 6 16 8 16 24 2 16 -15 19 -15 30 4 15 23 8 71 -14 107 -13 19
-13 22 1 22 13 0 16 10 14 48 -3 94 -36 232 -61 259 -29 31 -38 29 -38 -11z
m24 -411 c3 -8 1 -15 -4 -15 -6 0 -10 7 -10 15 0 8 2 15 4 15 2 0 6 -7 10 -15z"/>
<path d="M5316 4927 c-15 -11 -17 -17 -7 -35 7 -13 21 -22 35 -22 21 0 23 3
17 32 -8 37 -20 43 -45 25z"/>
<path d="M4520 4456 c-16 -22 -34 -46 -40 -53 -11 -13 -14 -41 -3 -30 3 4 15
-1 26 -10 18 -17 20 -17 42 9 13 15 26 45 30 67 4 23 11 41 16 41 5 0 9 -4 9
-10 0 -5 5 -10 11 -10 24 0 0 25 -29 31 -29 6 -35 3 -62 -35z"/>
<path d="M5825 4470 c3 -5 8 -10 11 -10 2 0 4 5 4 10 0 6 -5 10 -11 10 -5 0
-7 -4 -4 -10z"/>
<path d="M4587 4343 c-15 -14 -6 -31 12 -26 12 3 17 11 14 19 -6 15 -16 18
-26 7z"/>
<path d="M4518 4313 c7 -3 16 -2 19 1 4 3 -2 6 -13 5 -11 0 -14 -3 -6 -6z"/>
<path d="M3987 3844 c-12 -12 -8 -49 7 -70 8 -10 18 -16 22 -11 4 4 3 12 -3
18 -6 6 -9 17 -6 25 6 16 -10 47 -20 38z"/>
<path d="M3986 3723 c2 -21 6 -85 9 -143 11 -215 16 -267 31 -350 18 -95 20
-105 29 -174 3 -27 11 -72 17 -100 12 -63 18 -93 23 -131 2 -16 9 -50 15 -75
6 -25 15 -61 20 -80 20 -78 42 -303 40 -408 0 -43 4 -80 11 -88 9 -11 8 -14
-5 -14 -13 0 -15 -4 -6 -19 5 -11 10 -65 10 -120 0 -82 3 -101 15 -101 8 0 22
-17 32 -37 9 -21 20 -40 24 -43 3 -3 9 -22 13 -42 6 -31 4 -38 -9 -38 -8 0
-15 -4 -15 -10 0 -5 9 -10 20 -10 24 0 25 -8 6 -35 -11 -16 -11 -22 -1 -32 14
-13 28 -6 40 22 7 18 9 18 12 3 3 -10 11 -18 19 -18 10 0 14 12 14 40 0 29 -4
40 -15 40 -8 0 -15 7 -15 15 0 8 4 15 9 15 17 0 29 -26 33 -79 4 -41 11 -58
31 -75 14 -11 28 -34 31 -50 12 -49 18 -21 8 35 -8 41 -7 55 4 66 12 12 14 10
14 -15 0 -16 7 -35 15 -42 8 -7 15 -16 15 -21 0 -4 11 -25 25 -45 14 -20 23
-39 20 -42 -3 -3 4 -11 15 -19 11 -8 20 -19 20 -25 0 -13 113 -162 157 -207
34 -36 44 -71 18 -71 -9 0 -12 6 -9 17 5 14 4 15 -4 4 -12 -17 -5 -41 13 -41
8 0 17 -5 20 -10 4 -7 -2 -9 -19 -4 -20 5 -26 2 -26 -9 0 -9 5 -19 11 -23 8
-5 10 -31 5 -86 -6 -74 -5 -80 14 -85 11 -3 17 -9 14 -15 -3 -5 -12 -4 -20 3
-9 7 -14 8 -14 1 0 -6 -3 -18 -7 -27 -5 -15 -3 -16 15 -6 19 10 22 9 22 -9 0
-12 -7 -20 -17 -20 -17 -1 -17 -1 -1 -14 11 -8 14 -16 8 -22 -5 -5 -12 -36
-16 -69 -4 -33 -12 -67 -19 -75 -26 -30 -102 -216 -93 -226 3 -3 51 4 106 16
121 24 204 26 222 5 7 -8 19 -15 28 -15 8 0 12 -3 9 -7 -8 -8 47 -43 68 -43 8
0 20 -9 27 -20 7 -11 19 -20 26 -20 7 0 20 -7 28 -15 9 -8 26 -15 39 -15 12 0
26 -7 29 -16 4 -10 12 -14 23 -10 18 7 67 -40 57 -55 -3 -5 3 -6 12 -2 11 4
15 2 13 -6 -3 -7 -29 -21 -59 -31 -30 -9 -86 -28 -125 -40 -48 -16 -92 -23
-140 -22 -105 1 -220 -44 -374 -146 l-56 -37 75 -3 c69 -3 80 0 161 38 62 28
101 40 133 40 47 0 70 -14 36 -23 -28 -7 -25 -36 6 -47 14 -6 118 -10 232 -9
151 0 200 3 179 11 -15 5 -25 14 -21 19 10 16 99 10 142 -11 37 -18 61 -20
237 -20 l195 0 0 31 c0 17 4 28 10 24 6 -3 10 -17 10 -31 0 -28 24 -33 35 -6
6 16 7 16 19 0 18 -25 43 -22 49 4 5 18 8 19 21 8 14 -11 16 -9 16 11 0 20 5
24 30 25 25 1 30 -3 30 -22 0 -35 17 -38 24 -3 4 21 11 29 23 27 14 -2 18 4
18 27 1 26 5 31 35 35 29 4 35 10 41 38 9 44 19 52 21 16 3 -54 4 -59 12 -72
12 -20 27 -3 16 18 -13 25 -13 30 5 30 8 0 15 -4 15 -10 0 -22 22 -8 31 19 8
22 15 28 30 24 26 -7 46 12 55 50 6 29 8 30 15 12 9 -19 4 19 -8 71 -7 31 15
40 26 11 10 -27 31 -45 31 -28 0 6 -5 11 -10 11 -6 0 -8 15 -4 40 4 27 3 40
-5 40 -7 0 -11 20 -11 50 0 38 5 54 20 67 11 10 20 25 20 34 0 10 5 19 12 21
10 4 10 13 0 45 -7 22 -12 54 -12 72 0 17 -5 31 -10 31 -7 0 -7 6 0 19 5 11
10 29 10 40 0 12 5 21 11 21 7 0 8 7 4 18 -10 22 -34 227 -32 269 2 24 7 33
20 33 10 0 17 8 17 19 0 14 -5 18 -21 14 -19 -5 -20 -3 -14 43 8 65 10 74 24
107 15 38 14 114 -1 121 -10 5 -10 7 0 12 6 3 12 23 12 45 0 21 4 39 9 39 5 0
8 -7 7 -16 0 -9 5 -19 12 -21 10 -4 11 2 6 24 -5 15 -7 37 -5 48 2 11 3 66 3
121 1 87 3 101 17 100 14 -1 15 10 12 73 l-3 74 28 -7 c16 -4 24 -3 18 1 -19
14 -24 80 -8 94 8 7 12 19 10 26 -3 8 1 27 9 42 7 15 11 38 8 49 -3 14 -1 22
7 22 6 0 14 -9 17 -20 4 -16 9 -18 19 -9 7 6 10 17 7 25 -3 8 0 14 6 14 16 0
13 25 -4 40 -23 19 -18 40 9 40 14 0 28 -4 31 -10 3 -5 10 -10 16 -10 12 0 12
33 -1 46 -17 17 -18 104 -1 113 13 8 13 16 -2 67 -9 33 -18 92 -20 131 -2 40
-9 79 -16 86 -6 8 -12 50 -14 93 -2 44 -5 84 -8 89 -3 6 -6 24 -7 40 -1 17 -7
32 -12 33 -16 6 -12 42 5 42 18 0 18 4 5 52 -6 20 -17 39 -25 42 -8 3 -15 16
-15 30 0 14 -4 28 -10 31 -5 3 -10 17 -10 30 0 13 -5 27 -11 31 -6 4 -8 20 -5
38 8 43 -3 96 -21 96 -7 0 -16 7 -19 15 -16 40 -64 -7 -64 -62 0 -18 5 -43 11
-57 9 -20 9 -32 -4 -58 -21 -46 -28 -95 -42 -328 -3 -47 -10 -98 -14 -115 -5
-16 -12 -66 -16 -110 -3 -44 -10 -107 -15 -140 -5 -33 -11 -98 -14 -145 -2
-47 -7 -92 -10 -100 -3 -8 -7 -61 -10 -117 -3 -56 -10 -112 -16 -123 -6 -11
-10 -30 -8 -43 5 -39 -13 -249 -27 -322 -7 -38 -16 -92 -20 -120 -4 -27 -11
-55 -17 -62 -5 -7 -8 -16 -5 -20 9 -15 -39 -180 -96 -326 -21 -56 -37 -82 -54
-90 -12 -5 -23 -17 -23 -24 0 -8 -7 -21 -15 -30 -8 -8 -13 -19 -9 -24 3 -5 -3
-12 -13 -16 -22 -8 -43 -28 -43 -41 0 -13 -51 -26 -59 -15 -3 4 -50 9 -103 10
-53 2 -107 7 -120 12 -29 11 -90 67 -113 104 -15 24 -23 27 -69 27 -28 0 -87
-9 -131 -21 -44 -11 -98 -24 -120 -30 -22 -6 -65 -8 -95 -5 -30 3 -63 6 -73 6
-14 1 -16 4 -7 15 8 10 8 14 -2 18 -7 3 1 6 17 6 17 1 71 13 120 27 145 41
157 44 220 44 57 0 61 2 84 35 13 19 27 32 32 29 5 -3 9 7 9 23 0 19 3 24 9
15 6 -10 10 -7 15 14 5 18 3 30 -6 35 -9 6 -10 9 -1 9 17 0 34 71 32 128 -2
45 26 226 38 246 3 5 12 34 18 65 7 31 22 92 34 135 14 55 18 83 11 92 -12 13
-74 25 -130 24 -33 0 -102 13 -164 31 -15 5 -33 6 -39 2 -6 -3 -68 -7 -137 -7
-87 -1 -132 -5 -142 -14 -19 -16 -36 -99 -44 -222 -4 -52 -10 -103 -14 -113
-7 -20 -6 -21 -142 164 l-56 76 -94 6 c-149 8 -346 89 -330 135 2 6 -10 20
-26 29 -26 15 -29 21 -24 55 3 23 1 38 -6 38 -5 0 -8 -9 -5 -20 3 -11 1 -20
-5 -20 -6 0 -17 -3 -25 -6 -12 -4 -14 0 -10 15 6 23 -21 31 -30 9 -3 -8 -6 -6
-6 4 -1 12 -6 15 -18 11 -16 -6 -16 -5 -4 10 7 9 19 17 27 17 21 0 27 20 12
38 -17 22 -45 81 -51 110 -7 32 36 80 57 63 10 -8 16 -9 21 -1 3 5 -1 10 -9
10 -12 0 -16 10 -16 40 0 35 -3 40 -22 40 -21 0 -21 1 -6 17 16 15 15 18 -13
44 -32 29 -38 59 -13 59 9 0 14 7 12 18 -3 11 -12 16 -28 14 -18 -1 -21 0 -11
7 10 6 12 20 8 47 -4 23 -2 43 5 52 10 11 9 17 -5 27 -10 7 -15 19 -11 29 4 9
-4 28 -20 47 -22 25 -26 41 -26 89 0 62 -14 87 -29 48 -8 -21 -8 -22 -14 -3
-3 11 -9 54 -13 95 -4 48 -13 82 -23 95 -10 11 -24 40 -31 65 -8 25 -17 50
-21 55 -3 6 -14 44 -24 85 -9 41 -25 90 -34 109 -9 19 -15 40 -13 47 1 7 -2
15 -8 19 -5 3 -10 18 -10 33 0 15 -7 37 -15 49 -8 12 -18 43 -21 70 -3 26 -11
59 -17 72 -9 19 -9 25 1 28 24 9 6 43 -23 43 -2 0 -1 -17 1 -37z m2734 -963
c0 -5 -2 -10 -4 -10 -3 0 -8 5 -11 10 -3 6 -1 10 4 10 6 0 11 -4 11 -10z m28
-178 c2 -7 -3 -12 -12 -12 -9 0 -16 7 -16 16 0 17 22 14 28 -4z m-2348 -217
c0 -18 -5 -25 -18 -25 -30 0 -34 13 -10 32 29 22 28 23 28 -7z m2327 -107 c-3
-8 -6 -5 -6 6 -1 11 2 17 5 13 3 -3 4 -12 1 -19z m-2387 -191 c0 -14 -6 -24
-15 -24 -15 0 -21 28 -8 40 13 14 23 6 23 -16z m-29 -147 c6 0 7 -4 4 -10 -12
-19 -25 -10 -24 18 1 16 3 20 6 10 2 -10 9 -18 14 -18z m49 21 c0 -17 -15 -19
-28 -5 -11 12 -9 14 8 14 11 0 20 -4 20 -9z m20 -86 c10 -12 10 -15 -3 -15 -8
0 -17 7 -21 15 -3 8 -2 15 3 15 5 0 14 -7 21 -15z m2195 -205 c-3 -5 -10 -10
-16 -10 -5 0 -9 5 -9 10 0 6 7 10 16 10 8 0 12 -4 9 -10z m-750 -1150 c3 -5
13 -7 23 -4 14 5 14 4 2 -5 -10 -7 -15 -30 -16 -73 -2 -75 3 -98 21 -98 8 0
11 -7 8 -20 -4 -14 0 -20 11 -20 9 0 20 -10 25 -22 10 -27 2 -47 -10 -27 -13
22 -22 2 -11 -28 10 -29 -5 -123 -20 -123 -4 0 -5 6 -2 14 3 8 -1 27 -10 43
-14 27 -15 27 -16 5 0 -13 -4 -21 -9 -18 -5 3 -7 25 -4 47 l6 42 -31 -5 c-20
-3 -33 0 -36 8 -3 8 -17 16 -31 20 -24 6 -24 7 -8 20 16 12 16 13 1 14 -9 0
-23 -7 -32 -15 -19 -20 -35 -19 -58 2 -15 13 -21 14 -27 4 -6 -10 -15 -9 -42
3 l-34 16 33 -5 c24 -3 32 -1 29 8 -2 6 -14 11 -25 10 -14 -2 -20 3 -20 15 1
9 -1 29 -5 44 -6 22 -4 27 15 30 12 2 22 11 24 22 1 10 7 23 13 29 8 8 11 3
11 -16 0 -46 34 -30 45 21 7 33 19 42 28 20 3 -7 6 -3 6 9 1 13 -6 23 -16 26
-14 4 -12 5 5 6 12 0 22 -3 22 -8 0 -6 12 -3 28 5 31 16 98 19 107 4z m55 -76
c0 -14 -3 -14 -15 -4 -8 7 -15 14 -15 16 0 2 7 4 15 4 8 0 15 -7 15 -16z m18
-53 c12 -11 22 -27 22 -36 0 -13 -6 -16 -22 -11 -13 3 -26 6 -30 6 -5 0 -8 14
-8 30 0 35 6 36 38 11z m552 -2 c0 -11 -21 -11 -39 0 -9 6 -5 9 13 9 14 0 26
-4 26 -9z m-1060 -59 c0 -5 -2 -10 -4 -10 -3 0 -8 5 -11 10 -3 6 -1 10 4 10 6
0 11 -4 11 -10z m1080 -5 c0 -8 -2 -15 -4 -15 -2 0 -6 7 -10 15 -3 8 -1 15 4
15 6 0 10 -7 10 -15z m-1102 -11 c15 -15 14 -16 -8 -9 -33 10 -49 25 -26 25 9
0 25 -7 34 -16z m1082 -34 c0 -11 -4 -20 -10 -20 -5 0 -10 9 -10 20 0 11 5 20
10 20 6 0 10 -9 10 -20z m-996 -92 c-5 -8 0 -9 14 -6 12 4 22 2 22 -3 0 -5 8
-9 18 -9 17 0 112 -54 112 -64 0 -5 -129 52 -174 76 -12 6 -16 6 -11 -1 4 -7
-7 -11 -32 -11 -21 0 -71 -7 -112 -15 -94 -20 -122 -14 -46 10 8 2 16 5 18 6
5 5 144 27 170 28 19 1 26 -3 21 -11z m466 -44 c0 -8 -4 -12 -10 -9 -5 3 -10
10 -10 16 0 5 5 9 10 9 6 0 10 -7 10 -16z m-735 -4 c-3 -5 -14 -10 -23 -10
-15 0 -15 2 -2 10 20 13 33 13 25 0z"/>
<path d="M5760 446 c0 -6 9 -12 20 -12 11 0 20 3 20 7 0 4 -9 9 -20 12 -12 3
-20 0 -20 -7z"/>
<path d="M5785 400 c3 -5 13 -10 21 -10 8 0 12 5 9 10 -3 6 -13 10 -21 10 -8
0 -12 -4 -9 -10z"/>
<path d="M5761 356 c-9 -11 -6 -12 14 -8 14 2 25 8 25 13 0 14 -26 11 -39 -5z"/>
<path d="M5755 319 c-4 -6 -5 -12 -2 -15 2 -3 7 2 10 11 7 17 1 20 -8 4z"/>
<path d="M5798 323 c7 -3 16 -2 19 1 4 3 -2 6 -13 5 -11 0 -14 -3 -6 -6z"/>
<path d="M5760 251 c0 -9 24 -21 43 -21 6 0 2 7 -9 15 -22 17 -34 19 -34 6z"/>
<path d="M640 3641 c0 -12 5 -21 10 -21 6 0 10 6 10 14 0 8 -4 18 -10 21 -5 3
-10 -3 -10 -14z"/>
<path d="M5825 3040 c3 -5 8 -10 11 -10 2 0 4 5 4 10 0 6 -5 10 -11 10 -5 0
-7 -4 -4 -10z"/>
<path d="M5811 2933 c0 -18 -5 -33 -11 -33 -5 0 -10 -16 -10 -35 0 -19 4 -35
9 -35 11 0 21 25 21 51 0 10 5 19 11 19 8 0 8 4 1 13 -5 6 -12 21 -15 32 -3
13 -5 9 -6 -12z"/>
<path d="M4480 2386 c0 -22 28 -52 39 -41 7 7 2 17 -15 32 -14 12 -24 16 -24
9z"/>
<path d="M4465 2310 c3 -5 8 -10 11 -10 2 0 4 5 4 10 0 6 -5 10 -11 10 -5 0
-7 -4 -4 -10z"/>
<path d="M4398 2274 c-32 -17 -38 -39 -9 -31 16 4 18 -1 17 -27 -1 -21 4 -31
14 -31 10 0 15 10 16 30 0 26 3 30 26 27 22 -2 25 1 20 23 -3 19 -7 23 -17 15
-9 -8 -15 -8 -20 0 -8 13 -14 12 -47 -6z"/>
<path d="M4484 2208 c3 -7 9 -21 12 -30 11 -31 31 -21 26 12 -3 22 -10 30 -24
30 -12 0 -17 -5 -14 -12z"/>
<path d="M4465 2130 c-4 -6 -3 -15 1 -21 5 -8 9 -8 14 1 6 9 10 6 15 -9 7 -23
25 -29 25 -8 0 27 -43 56 -55 37z"/>
<path d="M6760 2126 c0 -9 5 -16 10 -16 6 0 10 4 10 9 0 6 -4 13 -10 16 -5 3
-10 -1 -10 -9z"/>
<path d="M6698 2073 c7 -3 16 -2 19 1 4 3 -2 6 -13 5 -11 0 -14 -3 -6 -6z"/>
<path d="M4200 1668 c0 -7 5 -20 10 -28 8 -12 10 -9 10 13 0 15 -4 27 -10 27
-5 0 -10 -6 -10 -12z"/>
<path d="M4257 1643 c-12 -11 -8 -23 8 -23 8 0 15 7 15 15 0 16 -12 20 -23 8z"/>
<path d="M4313 1632 c-6 -4 -15 -20 -18 -35 -5 -17 -13 -26 -20 -23 -8 3 -15
-6 -18 -22 -5 -27 2 -47 10 -25 2 6 13 21 24 34 10 12 19 26 19 31 0 4 9 8 21
8 14 0 19 5 17 17 -4 19 -18 26 -35 15z"/>
<path d="M2930 1620 c0 -5 7 -10 15 -10 8 0 15 5 15 10 0 6 -7 10 -15 10 -8 0
-15 -4 -15 -10z"/>
<path d="M7760 1604 c-6 -14 -10 -31 -10 -39 0 -8 -4 -16 -9 -19 -4 -3 -16
-27 -26 -53 -10 -26 -21 -50 -24 -53 -10 -8 -71 -135 -71 -148 0 -7 -4 -12
-10 -12 -5 0 -10 -5 -10 -11 0 -9 -106 -225 -170 -349 -10 -19 -39 -76 -63
-126 -25 -49 -72 -136 -106 -192 -34 -56 -61 -105 -61 -107 0 -3 -18 -35 -41
-71 -22 -37 -45 -77 -50 -88 -5 -12 -19 -37 -31 -56 -11 -19 -31 -53 -42 -75
-12 -22 -41 -72 -64 -112 -23 -39 -42 -76 -42 -82 0 -8 128 -11 425 -11 l425
0 0 815 c0 448 -2 815 -5 815 -3 0 -10 -12 -15 -26z"/>
<path d="M2995 1571 c0 -16 3 -33 8 -37 4 -4 7 9 7 29 0 21 -3 37 -7 37 -5 0
-8 -13 -8 -29z"/>
<path d="M2958 1537 c-3 -19 -2 -25 4 -19 6 6 8 18 6 28 -3 14 -5 12 -10 -9z"/>
<path d="M2996 1503 c-12 -38 2 -63 35 -63 19 0 28 4 24 11 -4 6 -13 8 -21 5
-9 -3 -16 4 -20 22 -3 15 -7 32 -8 37 -2 6 -6 0 -10 -12z"/>
<path d="M2961 1484 c0 -11 3 -14 6 -6 3 7 2 16 -1 19 -3 4 -6 -2 -5 -13z"/>
<path d="M4316 1441 c-4 -5 3 -7 14 -4 23 6 26 13 6 13 -8 0 -17 -4 -20 -9z"/>
<path d="M3049 1399 c-1 -18 -3 -19 -6 -6 -6 24 -27 16 -31 -11 -3 -19 1 -22
27 -22 29 0 31 2 25 28 -9 37 -14 40 -15 11z"/>
<path d="M3040 1331 c0 -11 4 -21 9 -21 18 0 21 18 6 30 -13 10 -15 9 -15 -9z"/>
<path d="M3004 1306 c-8 -20 -1 -29 20 -24 13 3 13 6 1 22 -13 17 -15 18 -21
2z"/>
<path d="M4385 1310 c-3 -5 -1 -10 4 -10 6 0 11 5 11 10 0 6 -2 10 -4 10 -3 0
-8 -4 -11 -10z"/>
<path d="M4145 1290 c-3 -5 -1 -10 4 -10 6 0 11 5 11 10 0 6 -2 10 -4 10 -3 0
-8 -4 -11 -10z"/>
<path d="M3063 1240 c0 -25 2 -35 4 -22 2 12 2 32 0 45 -2 12 -4 2 -4 -23z"/>
<path d="M6551 1224 c0 -11 3 -14 6 -6 3 7 2 16 -1 19 -3 4 -6 -2 -5 -13z"/>
<path d="M4182 1219 c2 -6 8 -10 13 -10 5 0 11 4 13 10 2 6 -4 11 -13 11 -9 0
-15 -5 -13 -11z"/>
<path d="M4140 1163 c0 -21 5 -45 10 -53 7 -11 10 0 10 38 0 28 -4 52 -10 52
-5 0 -10 -17 -10 -37z"/>
<path d="M4170 1101 c0 -6 5 -13 10 -16 6 -3 10 1 10 9 0 9 -4 16 -10 16 -5 0
-10 -4 -10 -9z"/>
<path d="M4206 1101 c-4 -6 -3 -19 3 -28 9 -17 10 -17 17 0 8 21 -10 45 -20
28z"/>
<path d="M4110 1085 c0 -8 -4 -15 -8 -15 -5 0 -19 -9 -32 -20 -18 -16 -20 -20
-7 -20 10 0 17 -7 17 -15 0 -10 -7 -15 -17 -13 -13 2 -18 -3 -17 -19 0 -18 -5
-23 -23 -23 -20 0 -23 -5 -23 -40 0 -27 4 -40 14 -40 21 0 17 -76 -6 -96 -14
-13 -21 -15 -30 -6 -9 9 -7 17 10 32 12 12 22 26 22 33 0 7 -4 6 -10 -3 -8
-13 -13 -11 -32 9 -16 16 -19 25 -10 28 20 8 13 40 -13 57 -14 9 -25 23 -25
32 0 8 -4 12 -10 9 -5 -3 -10 -21 -10 -39 0 -17 -5 -37 -12 -44 -8 -8 -8 -12
-1 -12 7 0 9 -50 6 -160 -3 -119 -1 -160 8 -160 8 0 8 -4 -1 -15 -10 -12 -10
-18 1 -31 7 -9 15 -33 16 -53 5 -79 15 -141 23 -141 7 0 14 36 22 120 3 21 8
25 38 25 32 0 35 -3 38 -32 3 -28 0 -33 -17 -33 -12 0 -21 -4 -21 -9 0 -5 9
-7 20 -4 21 6 25 -3 11 -26 -5 -7 -14 -10 -20 -7 -7 5 -11 -1 -11 -15 0 -16 3
-20 10 -13 6 6 24 9 40 6 28 -4 30 -7 30 -48 0 -31 -4 -44 -14 -44 -9 0 -12
-7 -9 -20 3 -11 9 -20 14 -20 5 0 9 -9 9 -20 0 -12 7 -20 18 -20 13 0 17 -9
17 -40 1 -22 -3 -40 -9 -40 -5 0 -1 -9 9 -20 17 -19 17 -21 0 -40 -17 -19 -17
-20 -1 -20 10 0 26 5 37 10 13 7 19 7 19 0 0 -5 7 -10 16 -10 13 0 15 7 11 36
-3 20 -13 44 -22 54 -16 17 -21 50 -7 50 13 0 10 94 -4 108 -16 16 -19 46 -4
37 13 -8 24 20 16 42 -6 15 -8 15 -16 3 -7 -11 -10 -2 -10 30 0 33 3 41 10 30
9 -13 11 -13 20 0 16 25 11 59 -10 70 -14 8 -20 20 -19 43 l1 32 8 -30 c7 -26
8 -24 7 17 0 26 2 50 6 54 4 4 3 12 -2 18 -4 6 -11 25 -15 41 -5 21 -4 26 3
15 15 -23 21 -7 12 31 -14 52 -20 159 -10 159 5 0 9 -9 9 -20 0 -22 18 -27 26
-7 8 22 -15 70 -30 64 -20 -8 -7 35 15 51 13 9 16 21 13 50 -9 60 -13 69 -24
52 -8 -12 -10 -9 -11 10 0 14 -3 19 -6 13 -5 -15 -33 -18 -33 -4 0 5 5 11 12
13 14 5 4 38 -12 38 -5 0 -10 -7 -10 -15z m-40 -261 c0 -13 -4 -24 -10 -24 -5
0 -10 14 -10 31 0 17 4 28 10 24 6 -3 10 -17 10 -31z m-25 -64 c3 -5 1 -10 -4
-10 -6 0 -11 5 -11 10 0 6 2 10 4 10 3 0 8 -4 11 -10z m-41 -25 c7 -18 47 -20
64 -3 9 9 12 9 12 0 0 -7 -4 -12 -10 -12 -14 0 -12 -78 2 -82 8 -3 4 -12 -10
-26 -12 -12 -22 -29 -22 -37 0 -8 -9 -15 -20 -15 -11 0 -20 -4 -20 -10 0 -5 6
-10 14 -10 17 0 25 -18 18 -42 -3 -11 -14 -18 -28 -18 -21 0 -24 5 -24 40 0
29 -4 40 -15 40 -18 0 -21 45 -4 56 6 3 18 -1 27 -10 15 -14 17 -13 29 16 14
32 4 58 -21 58 -27 1 -37 16 -27 43 12 30 26 35 35 12z m-64 -189 c0 -8 -4
-18 -10 -21 -5 -3 -10 3 -10 14 0 12 5 21 10 21 6 0 10 -6 10 -14z m-13 -98
c-3 -8 -6 -5 -6 6 -1 11 2 17 5 13 3 -3 4 -12 1 -19z m233 -278 c0 -5 -7 -10
-15 -10 -8 0 -15 5 -15 10 0 6 7 10 15 10 8 0 15 -4 15 -10z"/>
<path d="M0 558 c0 -23 7 -37 21 -46 30 -19 35 -7 13 34 -26 48 -34 51 -34 12z"/>
<path d="M6530 400 c0 -5 5 -10 10 -10 6 0 10 5 10 10 0 6 -4 10 -10 10 -5 0
-10 -4 -10 -10z"/>
<path d="M3960 360 c0 -22 3 -40 8 -40 4 0 7 18 7 40 0 22 -3 40 -7 40 -5 0
-8 -18 -8 -40z"/>
<path d="M3080 381 c0 -6 5 -13 10 -16 6 -3 10 1 10 9 0 9 -4 16 -10 16 -5 0
-10 -4 -10 -9z"/>
<path d="M3103 294 c-3 -8 -1 -25 5 -37 10 -20 11 -18 11 16 1 39 -5 48 -16
21z"/>
<path d="M4034 289 c-10 -17 13 -36 27 -22 12 12 4 33 -11 33 -5 0 -12 -5 -16
-11z"/>
<path d="M3106 184 c-3 -8 1 -22 9 -30 13 -14 15 -13 15 10 0 29 -15 43 -24
20z"/>
<path d="M6388 138 c-2 -16 -9 -22 -20 -20 -25 4 -22 -20 4 -42 14 -13 23 -15
26 -8 2 7 10 12 18 12 16 0 18 33 4 61 -14 25 -28 24 -32 -3z"/>
<path d="M3105 100 c-3 -6 0 -17 9 -25 16 -17 56 -20 56 -5 0 6 -6 10 -14 10
-8 0 -16 7 -20 15 -6 17 -22 20 -31 5z"/>
<path d="M6360 37 c0 -9 12 -17 30 -19 34 -5 51 7 22 15 -9 2 -25 8 -34 12
-13 5 -18 3 -18 -8z"/>
<path d="M3115 10 c-4 -6 7 -10 24 -10 17 0 31 5 31 10 0 6 -11 10 -24 10 -14
0 -28 -4 -31 -10z"/>
</g>
</svg>
